<svg width="18" height="16" viewBox="0 0 18 16" xmlns="http://www.w3.org/2000/svg">
    <path d="M6.386 9.659H15.234C15.5711 9.65996 15.8642 9.42819 15.941 9.1L17.367 2.817C17.416 2.60218 17.3645 2.37674 17.2271 2.2045C17.0897 2.03226 16.8813 1.93196 16.661 1.932H4.806L4.529 0.579001C4.46006 0.241761 4.16322 -0.00031692 3.819 3.11421e-07H0.724002C0.324148 3.11421e-07 6.84445e-07 0.324147 6.84445e-07 0.724001V1.207C-0.000263392 1.39919 0.0758978 1.5836 0.211703 1.71959C0.347508 1.85559 0.531812 1.932 0.724002 1.932H2.834L4.954 12.3C4.32458 12.6618 3.99659 13.3853 4.1392 14.0971C4.28182 14.809 4.86316 15.3502 5.5834 15.4417C6.30363 15.5331 7.0018 15.1544 7.3178 14.5007C7.6338 13.8471 7.49702 13.0647 6.978 12.557H13.305C12.7782 13.073 12.6465 13.8708 12.9795 14.5287C13.3125 15.1866 14.0334 15.5529 14.7612 15.4339C15.4889 15.3149 16.0556 14.738 16.1617 14.0083C16.2677 13.2786 15.8887 12.5643 15.225 12.243L15.392 11.51C15.441 11.2952 15.3895 11.0697 15.2521 10.8975C15.1147 10.7253 14.9063 10.625 14.686 10.625H6.586L6.386 9.659ZM10.866 5.071H12.315C12.4431 5.071 12.566 5.12189 12.6565 5.21247C12.7471 5.30305 12.798 5.4259 12.798 5.554V6.037C12.798 6.1651 12.7471 6.28795 12.6565 6.37853C12.566 6.46911 12.4431 6.52 12.315 6.52H10.866V7.727C10.866 7.99375 10.6498 8.21 10.383 8.21H9.9C9.7719 8.21 9.64905 8.15911 9.55847 8.06853C9.46789 7.97795 9.417 7.8551 9.417 7.727V6.52H7.969C7.70225 6.52 7.486 6.30375 7.486 6.037V5.554C7.486 5.28725 7.70225 5.071 7.969 5.071H9.417V3.864C9.417 3.7359 9.46789 3.61305 9.55847 3.52247C9.64905 3.43189 9.7719 3.381 9.9 3.381H10.383C10.6498 3.381 10.866 3.59725 10.866 3.864V5.071Z"/>
</svg>
