<svg width="18" height="16" viewBox="0 0 18 16" fill="none" xmlns="http://www.w3.org/2000/svg">
    <path fill-rule="evenodd" clip-rule="evenodd" d="M9.859 15.2709C8.73376 15.5845 7.56762 15.7265 6.4 15.6919C3.665 15.6919 0 15.2349 0 11.2849C0.0379192 8.95095 1.23548 6.78905 3.194 5.51894C3.05322 5.35034 2.9745 5.13856 2.971 4.91894C2.971 4.37826 3.40931 3.93994 3.95 3.93994H8.847C9.10717 3.93968 9.35674 4.04298 9.54061 4.22704C9.72448 4.4111 9.82753 4.66078 9.827 4.92094C9.8233 5.1407 9.74422 5.35252 9.603 5.52094C9.9323 5.73299 10.2431 5.97251 10.532 6.23694C10.1241 6.53144 9.86761 6.99149 9.83152 7.49329C9.79542 7.99509 9.98345 8.4871 10.345 8.83694C10.0126 9.15736 9.82476 9.59922 9.82476 10.0609C9.82476 10.5227 10.0126 10.9645 10.345 11.2849C10.0126 11.6054 9.82476 12.0472 9.82476 12.5089C9.82476 12.9707 10.0126 13.4125 10.345 13.7329C9.93107 14.129 9.74782 14.7089 9.859 15.2709ZM4.94507 9.72031C5.06495 10.426 5.67721 10.9417 6.393 10.9399C6.66362 10.9399 6.883 11.1593 6.883 11.4299C6.883 11.7006 6.66362 11.9199 6.393 11.9199C6.12238 11.9199 5.903 11.7006 5.903 11.4299C5.91115 11.2498 5.81967 11.0797 5.66486 10.9872C5.51006 10.8947 5.31694 10.8947 5.16214 10.9872C5.00733 11.0797 4.91585 11.2498 4.924 11.4299C4.92606 12.0524 5.32099 12.6057 5.909 12.8099V13.2449C5.90086 13.4251 5.99233 13.5952 6.14714 13.6877C6.30194 13.7802 6.49506 13.7802 6.64986 13.6877C6.80467 13.5952 6.89615 13.4251 6.888 13.2449V12.8069C7.55901 12.5664 7.95974 11.878 7.83759 11.1757C7.71544 10.4734 7.10583 9.96081 6.393 9.96094C6.12238 9.96094 5.903 9.74156 5.903 9.47094C5.903 9.20032 6.12238 8.98094 6.393 8.98094C6.66362 8.98094 6.883 9.20032 6.883 9.47094C6.89483 9.73269 7.11049 9.93881 7.3725 9.93881C7.63451 9.93881 7.85017 9.73269 7.862 9.47094C7.86003 8.85253 7.47045 8.30177 6.888 8.09394V7.36894C6.89615 7.18878 6.80467 7.01871 6.64986 6.9262C6.49506 6.83368 6.30194 6.83368 6.14714 6.9262C5.99233 7.01871 5.90086 7.18878 5.909 7.36894V8.09094C5.23279 8.32565 4.82518 9.01463 4.94507 9.72031Z" />
    <path d="M16.6401 14.2229H12.2001C11.9312 14.213 11.6784 14.3508 11.541 14.5821C11.4036 14.8135 11.4036 15.1014 11.541 15.3327C11.6784 15.5641 11.9312 15.7018 12.2001 15.6919H16.6401C17.0352 15.6773 17.348 15.3528 17.348 14.9574C17.348 14.562 17.0352 14.2375 16.6401 14.2229Z" />
    <path d="M16.6401 11.7749H12.2001C11.9312 11.765 11.6784 11.9028 11.541 12.1341C11.4036 12.3655 11.4036 12.6534 11.541 12.8847C11.6784 13.1161 11.9312 13.2538 12.2001 13.2439H16.6401C17.0352 13.2293 17.348 12.9048 17.348 12.5094C17.348 12.114 17.0352 11.7895 16.6401 11.7749Z" />
    <path d="M16.6401 9.6548H12.2001C11.9312 9.64488 11.6784 9.78266 11.541 10.014C11.4036 10.2453 11.4036 10.5333 11.541 10.7646C11.6784 10.9959 11.9312 11.1337 12.2001 11.1238H16.6401C17.0352 11.1092 17.348 10.7847 17.348 10.3893C17.348 9.99392 17.0352 9.66938 16.6401 9.6548Z" />
    <path d="M16.6398 7.36987H12.1998C11.7942 7.36987 11.4653 7.69872 11.4653 8.10437C11.4653 8.51003 11.7942 8.83887 12.1998 8.83887H16.6398C17.0455 8.83887 17.3743 8.51003 17.3743 8.10437C17.3743 7.69872 17.0455 7.36987 16.6398 7.36987V7.36987Z" />
    <path d="M7.97599 0.978892C7.7697 0.392407 7.2157 0 6.59399 0C5.97228 0 5.41828 0.392407 5.21199 0.978892H3.65899C3.50145 0.978714 3.35348 1.05444 3.26148 1.18233C3.16948 1.31021 3.14473 1.47459 3.19499 1.62389L3.95899 3.98289H9.23499L9.99899 1.62389C10.0492 1.47459 10.0245 1.31021 9.9325 1.18233C9.8405 1.05444 9.69253 0.978714 9.53499 0.978892H7.97599Z" />
</svg>
