<svg width="18" height="20" viewBox="0 0 18 20" fill="currentcolor" xmlns="http://www.w3.org/2000/svg">
<path d="M1.38462 1.33333C1.01739 1.33333 0.66521 1.47381 0.405544 1.72386C0.145879 1.97391 0 2.31304 0 2.66667V4C0 4.35362 0.145879 4.69276 0.405544 4.94281C0.66521 5.19286 1.01739 5.33333 1.38462 5.33333H2.07692V17.3333C2.07692 18.0406 2.36868 18.7189 2.88801 19.219C3.40734 19.719 4.11171 20 4.84615 20H13.1538C13.8883 20 14.5927 19.719 15.112 19.219C15.6313 18.7189 15.9231 18.0406 15.9231 17.3333V5.33333H16.6154C16.9826 5.33333 17.3348 5.19286 17.5945 4.94281C17.8541 4.69276 18 4.35362 18 4V2.66667C18 2.31304 17.8541 1.97391 17.5945 1.72386C17.3348 1.47381 16.9826 1.33333 16.6154 1.33333H11.7692C11.7692 0.979711 11.6234 0.640573 11.3637 0.390524C11.104 0.140476 10.7518 0 10.3846 0L7.61539 0C7.24816 0 6.89598 0.140476 6.63631 0.390524C6.37665 0.640573 6.23077 0.979711 6.23077 1.33333H1.38462ZM5.53846 6.66667C5.72207 6.66667 5.89816 6.73691 6.028 6.86193C6.15783 6.98695 6.23077 7.15652 6.23077 7.33333V16.6667C6.23077 16.8435 6.15783 17.013 6.028 17.1381C5.89816 17.2631 5.72207 17.3333 5.53846 17.3333C5.35485 17.3333 5.17876 17.2631 5.04893 17.1381C4.91909 17.013 4.84615 16.8435 4.84615 16.6667V7.33333C4.84615 7.15652 4.91909 6.98695 5.04893 6.86193C5.17876 6.73691 5.35485 6.66667 5.53846 6.66667ZM9 6.66667C9.18361 6.66667 9.3597 6.73691 9.48954 6.86193C9.61937 6.98695 9.69231 7.15652 9.69231 7.33333V16.6667C9.69231 16.8435 9.61937 17.013 9.48954 17.1381C9.3597 17.2631 9.18361 17.3333 9 17.3333C8.81639 17.3333 8.6403 17.2631 8.51046 17.1381C8.38063 17.013 8.30769 16.8435 8.30769 16.6667V7.33333C8.30769 7.15652 8.38063 6.98695 8.51046 6.86193C8.6403 6.73691 8.81639 6.66667 9 6.66667ZM13.1538 7.33333V16.6667C13.1538 16.8435 13.0809 17.013 12.9511 17.1381C12.8212 17.2631 12.6452 17.3333 12.4615 17.3333C12.2779 17.3333 12.1018 17.2631 11.972 17.1381C11.8422 17.013 11.7692 16.8435 11.7692 16.6667V7.33333C11.7692 7.15652 11.8422 6.98695 11.972 6.86193C12.1018 6.73691 12.2779 6.66667 12.4615 6.66667C12.6452 6.66667 12.8212 6.73691 12.9511 6.86193C13.0809 6.98695 13.1538 7.15652 13.1538 7.33333Z" fill="url(#paint0_linear_1437_115)"/>
<defs>
<linearGradient id="paint0_linear_1437_115" x1="9" y1="0" x2="9" y2="20" gradientUnits="userSpaceOnUse">
<stop stop-color="#96CC00"/>
<stop offset="1" stop-color="#709900"/>
</linearGradient>
</defs>
</svg>
