<svg width="260" height="145" viewBox="0 0 260 145" fill="none" xmlns="http://www.w3.org/2000/svg">
    <path opacity="0.1" fill-rule="evenodd" clip-rule="evenodd" d="M166.6 113.107C167.191 113.236 167.795 113.3 168.4 113.3H230.8C235.439 113.3 239.2 109.539 239.2 104.9C239.2 100.261 235.439 96.5 230.8 96.5H223.6C218.961 96.5 215.2 92.7392 215.2 88.1C215.2 83.4609 218.961 79.7001 223.6 79.7001H246.4C251.039 79.7001 254.8 75.9392 254.8 71.3C254.8 66.6609 251.039 62.9 246.4 62.9H220C224.639 62.9 228.4 59.1392 228.4 54.5C228.4 49.8609 224.639 46.1 220 46.1H143.2C147.839 46.1 151.6 42.3392 151.6 37.7C151.6 33.0609 147.839 29.3 143.2 29.3H74.7999C70.1607 29.3 66.3999 33.0609 66.3999 37.7C66.3999 42.3392 70.1607 46.1 74.7999 46.1H26.7999C22.1607 46.1 18.3999 49.8609 18.3999 54.5C18.3999 59.1392 22.1607 62.9 26.7999 62.9H56.7999C61.4391 62.9 65.1999 66.6609 65.1999 71.3C65.1999 75.9392 61.4391 79.7001 56.7999 79.7001H8.7999C4.16071 79.7001 0.399902 83.4609 0.399902 88.1C0.399902 92.7392 4.16071 96.5 8.7999 96.5H55.5999C50.9607 96.5 47.1999 100.261 47.1999 104.9C47.1999 109.539 50.9607 113.3 55.5999 113.3H164.8C165.405 113.3 166.009 113.236 166.6 113.107ZM251.2 96.5C246.561 96.5 242.8 100.261 242.8 104.9C242.8 107.128 243.685 109.264 245.26 110.84C246.836 112.415 248.972 113.3 251.2 113.3C255.839 113.3 259.6 109.539 259.6 104.9C259.6 100.261 255.839 96.5 251.2 96.5Z" fill="#3F3D56"/>
    <path d="M95.1998 31.7H175.6L168.4 42.5L178 49.7H92.7998L103.6 42.5L95.1998 31.7Z" fill="#F0F1F5"/>
    <path d="M64 127.1H89.745" stroke="#3F3D56" stroke-width="2.5" stroke-linecap="round" stroke-linejoin="round"/>
    <path d="M48.554 127.1H56.8" stroke="#3F3D56" stroke-width="2.5" stroke-linecap="round" stroke-linejoin="round"/>
    <path d="M220.154 127.1H223.6" stroke="#3F3D56" stroke-width="2.5" stroke-linecap="round" stroke-linejoin="round"/>
    <path d="M187.6 127.1H214.513" stroke="#3F3D56" stroke-width="2.5" stroke-linecap="round" stroke-linejoin="round"/>
    <path d="M176.254 143.3H96.354C93.7189 143.282 91.5953 141.135 91.607 138.5V52.1C91.6218 50.1004 93.2523 48.4901 95.252 48.5H178.627C179.944 48.5089 181.006 49.5826 181 50.9V138.5C181.012 141.135 178.889 143.282 176.254 143.3Z" fill="white" stroke="#3F3D56" stroke-width="2.5" stroke-linecap="round"/>
    <path d="M93.9999 48.5V34.1C93.9357 32.8438 94.8981 31.7715 96.1539 31.7L175.846 31.7C177.102 31.7715 178.064 32.8438 178 34.1V48.5" stroke="#3F3D56" stroke-width="2.5"/>
    <circle cx="116.2" cy="69.5" r="4.2" fill="white" stroke="#3F3D56" stroke-width="2.5"/>
    <circle cx="155.8" cy="69.5" r="4.2" fill="white" stroke="#3F3D56" stroke-width="2.5"/>
    <path d="M155.2 73.7C155.2 84.3038 146.604 92.9 136 92.9C125.396 92.9 116.8 84.3038 116.8 73.7" stroke="#3F3D56" stroke-width="2.5" stroke-linecap="round"/>
    <path d="M95.273 32.896L103.8 41.314C104.068 41.5797 104.195 41.9558 104.143 42.3294C104.092 42.703 103.868 43.0306 103.538 43.214L94 48.496" stroke="#3F3D56" stroke-width="2.5" stroke-linecap="round"/>
    <path d="M176.93 32.9829L168.768 41.3079C168.504 41.5764 168.382 41.953 168.437 42.3251C168.493 42.6972 168.72 43.0218 169.05 43.2019L178.763 48.5019" stroke="#3F3D56" stroke-width="2.5" stroke-linecap="round"/>
    <path d="M168.252 2.89468C168.711 2.37931 168.666 1.58916 168.15 1.12983C167.635 0.670496 166.845 0.715927 166.386 1.2313L168.252 2.89468ZM153.067 16.1753C152.607 16.6907 152.653 17.4808 153.168 17.9402C153.683 18.3995 154.474 18.354 154.933 17.8387L153.067 16.1753ZM105.733 1.23126C105.274 0.715909 104.483 0.670508 103.968 1.12986C103.453 1.58921 103.407 2.37936 103.867 2.89471L105.733 1.23126ZM117.187 17.8387C117.646 18.3541 118.436 18.3995 118.952 17.9401C119.467 17.4808 119.512 16.6906 119.053 16.1753L117.187 17.8387ZM166.386 1.2313L153.067 16.1753L154.933 17.8387L168.252 2.89468L166.386 1.2313ZM154.933 17.8387L168.252 2.89468L166.386 1.2313L153.067 16.1753L154.933 17.8387ZM103.867 2.89471L117.187 17.8387L119.053 16.1753L105.733 1.23126L103.867 2.89471ZM119.053 16.1753L105.733 1.23126L103.867 2.89471L117.187 17.8387L119.053 16.1753Z" fill="#3F3D56"/>
</svg>
