<svg width="20" height="16" viewBox="0 0 20 16" fill="none" xmlns="http://www.w3.org/2000/svg">
<path fill-rule="evenodd" clip-rule="evenodd" d="M19.1853 4.30001L16.6063 0.429009C16.4246 0.159532 16.1203 -0.001419 15.7953 9.42892e-06H3.54729C3.22576 0.000649257 2.92572 0.161545 2.74729 0.429009L0.163286 4.30001C-0.0347874 4.59627 -0.054055 4.97741 0.113131 5.29214C0.280317 5.60686 0.606913 5.80427 0.963286 5.80601H18.3813C18.7381 5.80506 19.0655 5.60811 19.2335 5.29337C19.4015 4.97862 19.383 4.597 19.1853 4.30001ZM9.67329 11.611H3.86729V6.77301H1.93229V14.514C1.93202 14.7708 2.03392 15.0172 2.21551 15.1988C2.39711 15.3804 2.64347 15.4823 2.90029 15.482H10.6413C10.8981 15.4823 11.1445 15.3804 11.3261 15.1988C11.5077 15.0172 11.6096 14.7708 11.6093 14.514V6.77301H9.67329V11.611ZM15.9623 15.484C15.6952 15.4835 15.4788 15.2671 15.4783 15V6.77301H17.4133V15C17.4127 15.2667 17.197 15.4829 16.9303 15.484H15.9623Z" fill="#3F3D56"/>
</svg>
