<svg width="14" height="16" viewBox="0 0 14 16" xmlns="http://www.w3.org/2000/svg">
<path clip-rule="evenodd" d="M11.7641 6.57298H12.4641C12.8379 6.57272 13.1966 6.72105 13.461 6.98532C13.7255 7.24958 13.8741 7.60812 13.8741 7.98198V13.616C13.8741 13.9897 13.7256 14.3481 13.4614 14.6123C13.1971 14.8765 12.8388 15.025 12.4651 15.025H2.13507C1.35691 15.025 0.726074 14.3942 0.726074 13.616V7.98198C0.726068 7.6069 0.875614 7.2473 1.14159 6.98283C1.40756 6.71836 1.768 6.57085 2.14307 6.57298H2.84307V4.46098C2.87957 2.02356 4.86588 0.0667725 7.30357 0.0667725C9.74127 0.0667725 11.7276 2.02356 11.7641 4.46098V6.57298ZM5.18707 6.57298H9.41207L9.41307 4.46098C9.41307 3.29401 8.46705 2.34798 7.30007 2.34798C6.1331 2.34798 5.18707 3.29401 5.18707 4.46098V6.57298Z"/>
<defs>
<linearGradient id="paint0_linear_0_1540" x1="0.726074" y1="0.0667725" x2="0.726074" y2="15.025" gradientUnits="userSpaceOnUse">
<stop stop-color="#FF7E5B"/>
<stop offset="1" stop-color="#FF3937"/>
</linearGradient>
</defs>
</svg>
