<svg width="17" height="20" viewBox="0 0 17 20" fill="none" xmlns="http://www.w3.org/2000/svg">
<path fill-rule="evenodd" clip-rule="evenodd" d="M14.121 8.49906H15.021C15.4984 8.49906 15.9562 8.68871 16.2938 9.02627C16.6314 9.36384 16.821 9.82168 16.821 10.2991V17.5091C16.821 18.5032 16.0151 19.3091 15.021 19.3091H1.8C0.805887 19.3091 0 18.5032 0 17.5091V10.2991C0 9.30495 0.805887 8.49906 1.8 8.49906H2.705V5.79906C2.705 3.75979 3.79294 1.87543 5.559 0.855791C7.32506 -0.163845 9.50094 -0.163845 11.267 0.855791C13.0331 1.87543 14.121 3.75979 14.121 5.79906V8.49906ZM5.708 8.49906H11.115L11.116 5.79906C11.116 4.30569 9.90538 3.09506 8.412 3.09506C6.91862 3.09506 5.708 4.30569 5.708 5.79906V8.49906Z" fill="#3F3D56"/>
</svg>
