<svg width="29" height="26" viewBox="0 0 29 26" xmlns="http://www.w3.org/2000/svg">
    <circle cx="19.9019" cy="11.529" r="0.904" />
    <circle cx="8.89997" cy="11.529" r="0.904"/>
    <path fill-rule="evenodd" clip-rule="evenodd" d="M12.2159 9.721C12.2159 8.22265 13.4306 7.008 14.9289 7.008C16.4266 7.00965 17.6403 8.22333 17.6419 9.721C17.6419 11.2193 16.4273 12.434 14.9289 12.434C13.4306 12.434 12.2159 11.2193 12.2159 9.721ZM14.0289 9.725C14.0289 10.2221 14.4319 10.625 14.9289 10.625C15.4249 10.6223 15.8262 10.2209 15.8289 9.725C15.8289 9.22794 15.426 8.825 14.9289 8.825C14.4319 8.825 14.0289 9.22794 14.0289 9.725Z"/>
    <path fill-rule="evenodd" clip-rule="evenodd" d="M15.998 0.0429876C15.0702 -0.119555 14.1251 0.21635 13.508 0.927988L1.47796 14.015C1.15855 14.3575 0.914623 14.7632 0.761963 15.206V17.293C0.763066 18.6037 1.8253 19.6659 3.13596 19.667H6.18796V22.38C6.20386 23.3492 6.73565 24.2364 7.583 24.7073C8.43036 25.1781 9.46455 25.1612 10.296 24.6628C11.1275 24.1644 11.6299 23.2602 11.614 22.291V21.317C11.9046 21.423 12.2116 21.4768 12.521 21.476C13.6702 21.4778 14.6947 20.7519 15.074 19.667H25.102C26.9727 19.662 28.488 18.1467 28.493 16.276V15.143C28.4924 7.76294 23.2475 1.42462 15.998 0.0429876ZM14.846 2.14299L14.861 2.12699C15.0566 1.89308 15.359 1.77664 15.661 1.81899C21.7266 2.97464 26.2459 8.08177 26.655 14.243H24.842C24.3794 8.33882 19.603 3.69728 13.688 3.40399L14.846 2.14299ZM3.13596 17.858H6.18296V17.029C6.18631 16.5275 5.78446 16.1171 5.28296 16.11H2.57096V17.293C2.57151 17.6048 2.82415 17.8574 3.13596 17.858ZM13.422 16.958V18.763C13.4224 19.0113 13.3202 19.2488 13.1396 19.4193C12.9589 19.5897 12.7159 19.6779 12.468 19.663C11.9651 19.6014 11.5935 19.1642 11.614 18.658V15.143C11.614 14.6434 11.209 14.2385 10.7095 14.2385C10.2099 14.2385 9.80496 14.6434 9.80496 15.143V22.289C9.82456 22.746 9.52054 23.1541 9.07696 23.266C8.81127 23.3183 8.53612 23.249 8.32687 23.0771C8.11763 22.9052 7.99624 22.6488 7.99596 22.378V17.028C7.99873 15.5261 6.78488 14.3055 5.28296 14.3H3.66996L11.977 5.26399C14.6397 4.95403 17.3147 5.7327 19.3951 7.42332C21.4754 9.11394 22.7848 11.5732 23.026 14.243H16.135C14.6381 14.2446 13.4247 15.4571 13.422 16.954V16.958ZM25.103 17.862C25.9762 17.8609 26.6839 17.1532 26.685 16.28L26.68 16.062H16.13C15.634 16.0647 15.2327 16.4661 15.23 16.962V17.862H25.103Z" />
</svg>
