<svg width="19" height="25" viewBox="0 0 19 25" fill="none" xmlns="http://www.w3.org/2000/svg">
<path fill-rule="evenodd" clip-rule="evenodd" d="M4.94406 19.0422C5.83133 20.3062 6.87088 21.7871 8.087 23.55C8.29758 23.8535 8.64356 24.0346 9.013 24.0346C9.38244 24.0346 9.72842 23.8535 9.939 23.55C11.1551 21.7871 12.1947 20.3062 13.0819 19.0422C17.1712 13.2168 18.026 11.9991 18.026 9.013C18.026 4.03526 13.9907 0 9.013 0C4.03526 0 0 4.03526 0 9.013C0 11.9991 0.85481 13.2168 4.94406 19.0422ZM12.4839 10.4498C11.9023 11.8534 10.5323 12.7684 9.013 12.768V12.769C6.93901 12.7684 5.258 11.087 5.258 9.013C5.2576 7.49366 6.17257 6.12371 7.57618 5.5421C8.97979 4.96049 10.5956 5.28177 11.6699 6.35611C12.7442 7.43044 13.0655 9.04621 12.4839 10.4498Z" fill="#709900"/>
</svg>
