<?xml version="1.0" encoding="iso-8859-1"?>
<!-- Generator: Adobe Illustrator 17.1.0, SVG Export Plug-In . SVG Version: 6.00 Build 0)  -->
<!DOCTYPE svg PUBLIC "-//W3C//DTD SVG 1.1//EN" "http://www.w3.org/Graphics/SVG/1.1/DTD/svg11.dtd">
<svg version="1.1" id="Capa_1" xmlns="http://www.w3.org/2000/svg" xmlns:xlink="http://www.w3.org/1999/xlink" x="0px" y="0px"
	 viewBox="0 0 198.603 198.603" style="enable-background:new 0 0 198.603 198.603;" xml:space="preserve">
<path d="M147.559,190.471H51.044c-1.381,0-2.5-1.119-2.5-2.5c0-6.127,4.931-11.058,10.992-11.058
	c17.795,0,32.273-14.478,32.273-32.273V31.198H38.55l30.501,66.004c0.188,0.406,0.26,0.847,0.22,1.278
	c0.004,0.126,0.008,0.253,0.008,0.381c0,18.268-15.539,33.13-34.64,33.13S0,117.13,0,98.862c0-0.135,0.004-0.27,0.008-0.404
	c-0.035-0.424,0.038-0.856,0.222-1.255l30.501-66.004h-2.271c-1.381,0-2.5-1.119-2.5-2.5s1.119-2.5,2.5-2.5h63.349V15.624
	c0-4.131,3.361-7.492,7.492-7.492c4.131,0,7.492,3.361,7.492,7.492v10.575h63.349c1.381,0,2.5,1.119,2.5,2.5s-1.119,2.5-2.5,2.5
	h-2.271l30.502,66.004c0.188,0.407,0.26,0.849,0.22,1.281c0.004,0.126,0.008,0.252,0.008,0.378c0,18.268-15.539,33.13-34.64,33.13
	s-34.64-14.862-34.64-33.13c0-0.136,0.004-0.271,0.009-0.406c-0.035-0.423,0.038-0.855,0.222-1.253l30.501-66.004h-53.259V144.64
	c0,17.795,14.478,32.273,32.273,32.273c6.062,0,10.992,4.931,10.992,10.992C150.059,189.286,148.94,190.471,147.559,190.471z
	 M54.061,185.471h90.47c-0.941-2.106-3.036-3.558-5.464-3.558c-20.553,0-37.273-16.721-37.273-37.273V31.198h-4.984V144.64
	c0,20.553-16.721,37.273-37.273,37.273C57.098,181.914,54.996,183.377,54.061,185.471z M134.387,100.752
	c1.027,14.633,13.899,26.241,29.573,26.241s28.546-11.607,29.573-26.241H134.387z M5.066,100.752
	c1.028,14.633,13.9,26.241,29.574,26.241s28.545-11.607,29.574-26.241H5.066z M135.73,95.752h56.464l-28.232-61.094L135.73,95.752z
	 M6.409,95.752h56.464L34.641,34.658L6.409,95.752z M96.809,26.198h4.984V15.624c0-1.374-1.118-2.492-2.492-2.492
	s-2.492,1.118-2.492,2.492V26.198z"/>
<g>
</g>
<g>
</g>
<g>
</g>
<g>
</g>
<g>
</g>
<g>
</g>
<g>
</g>
<g>
</g>
<g>
</g>
<g>
</g>
<g>
</g>
<g>
</g>
<g>
</g>
<g>
</g>
<g>
</g>
</svg>
