<svg width="19" height="19" viewBox="0 0 19 19" xmlns="http://www.w3.org/2000/svg">
    <path clip-rule="evenodd" d="M14.419 8.50013C14.419 5.72813 12.938 3.40813 10.356 2.79413V2.17213C10.356 1.42406 9.74957 0.817627 9.0015 0.817627C8.25343 0.817627 7.647 1.42406 7.647 2.17213V2.78613C5.055 3.40413 3.584 5.71613 3.584 8.49713V13.0111L1.779 14.8171V15.7171H16.225V14.8171L14.419 13.0111V8.50013ZM3.72 0.957127L5.011 2.24913C3.11556 3.59206 1.93568 5.72579 1.806 8.04513H0C0.12357 5.24664 1.48711 2.64858 3.72 0.957127ZM18.004 8.04913H16.202C16.0682 5.7311 14.8916 3.59844 13.002 2.24913L14.284 0.961127C16.5107 2.65782 17.8726 5.25276 18.004 8.04913ZM9.363 18.3961C9.24444 18.4219 9.12332 18.434 9.002 18.4321V18.4281C8.00748 18.426 7.19903 17.6256 7.187 16.6311H10.798C10.7998 16.8711 10.7539 17.109 10.663 17.3311C10.4277 17.8757 9.9432 18.2725 9.363 18.3961Z" />
</svg>
