<svg width="18" height="15" viewBox="0 0 18 15" xmlns="http://www.w3.org/2000/svg">
    <path clip-rule="evenodd" d="M16.045 0.439952H1.78301C1.31054 0.438601 0.857163 0.626309 0.523922 0.961241C0.19068 1.29617 0.00526907 1.75049 0.00901018 2.22295L1.01784e-05 12.919C-0.00159086 13.3923 0.185746 13.8468 0.520471 14.1815C0.855196 14.5162 1.30964 14.7036 1.78301 14.702H16.045C16.5184 14.7036 16.9728 14.5162 17.3075 14.1815C17.6423 13.8468 17.8296 13.3923 17.828 12.919V2.22295C17.8296 1.74958 17.6423 1.29514 17.3075 0.960413C16.9728 0.625688 16.5184 0.438351 16.045 0.439952ZM16.045 12.919H1.78301V7.57095H16.045V12.919ZM1.78301 4.00495H16.045V2.22295H1.78301V4.00495Z"/>
</svg>
