<svg width="15" height="15" viewBox="0 0 15 15" fill="currentColor" xmlns="http://www.w3.org/2000/svg">
<path fill-rule="evenodd" clip-rule="evenodd" d="M1.76763 0.478285C1.93167 0.314493 2.12864 0.187433 2.3455 0.105525C2.56236 0.0236175 2.79415 -0.0112678 3.02551 0.00318114C3.25687 0.0176301 3.48252 0.0810833 3.6875 0.189336C3.89248 0.297589 4.07212 0.448169 4.2145 0.631097L5.89732 2.79297C6.20575 3.18953 6.3145 3.7061 6.19263 4.1936L5.67982 6.24672C5.6533 6.35306 5.65474 6.46445 5.68397 6.57008C5.71321 6.6757 5.76927 6.77197 5.84669 6.84953L8.15013 9.15297C8.22779 9.23055 8.32422 9.2867 8.43002 9.31594C8.53583 9.34519 8.6474 9.34653 8.75388 9.31985L10.8061 8.80704C11.0466 8.74688 11.2977 8.74221 11.5404 8.79337C11.783 8.84453 12.0109 8.95019 12.2067 9.10235L14.3686 10.7842C15.1458 11.3889 15.217 12.5373 14.5214 13.232L13.552 14.2014C12.8583 14.8952 11.8214 15.1998 10.8548 14.8595C8.38093 13.9891 6.13476 12.5728 4.28294 10.7158C2.42602 8.86424 1.00976 6.6184 0.139191 4.14485C-0.200183 3.17922 0.104504 2.14141 0.798254 1.44766L1.76763 0.478285Z" />
</svg>
