<svg width="12" height="13" viewBox="0 0 12 13" fill="none" xmlns="http://www.w3.org/2000/svg">
<path d="M0.923077 0.866667C0.678262 0.866667 0.443473 0.957976 0.270363 1.12051C0.0972524 1.28304 0 1.50348 0 1.73333V2.6C0 2.82985 0.0972524 3.05029 0.270363 3.21283C0.443473 3.37536 0.678262 3.46667 0.923077 3.46667H1.38462V11.2667C1.38462 11.7264 1.57912 12.1673 1.92534 12.4923C2.27156 12.8174 2.74114 13 3.23077 13H8.76923C9.25886 13 9.72844 12.8174 10.0747 12.4923C10.4209 12.1673 10.6154 11.7264 10.6154 11.2667V3.46667H11.0769C11.3217 3.46667 11.5565 3.37536 11.7296 3.21283C11.9027 3.05029 12 2.82985 12 2.6V1.73333C12 1.50348 11.9027 1.28304 11.7296 1.12051C11.5565 0.957976 11.3217 0.866667 11.0769 0.866667H7.84615C7.84615 0.636812 7.7489 0.416372 7.57579 0.253841C7.40268 0.0913093 7.16789 0 6.92308 0L5.07692 0C4.83211 0 4.59732 0.0913093 4.42421 0.253841C4.2511 0.416372 4.15385 0.636812 4.15385 0.866667H0.923077ZM3.69231 4.33333C3.81472 4.33333 3.93211 4.37899 4.01866 4.46025C4.10522 4.54152 4.15385 4.65174 4.15385 4.76667V10.8333C4.15385 10.9483 4.10522 11.0585 4.01866 11.1397C3.93211 11.221 3.81472 11.2667 3.69231 11.2667C3.5699 11.2667 3.45251 11.221 3.36595 11.1397C3.2794 11.0585 3.23077 10.9483 3.23077 10.8333V4.76667C3.23077 4.65174 3.2794 4.54152 3.36595 4.46025C3.45251 4.37899 3.5699 4.33333 3.69231 4.33333ZM6 4.33333C6.12241 4.33333 6.2398 4.37899 6.32636 4.46025C6.41291 4.54152 6.46154 4.65174 6.46154 4.76667V10.8333C6.46154 10.9483 6.41291 11.0585 6.32636 11.1397C6.2398 11.221 6.12241 11.2667 6 11.2667C5.87759 11.2667 5.7602 11.221 5.67364 11.1397C5.58709 11.0585 5.53846 10.9483 5.53846 10.8333V4.76667C5.53846 4.65174 5.58709 4.54152 5.67364 4.46025C5.7602 4.37899 5.87759 4.33333 6 4.33333ZM8.76923 4.76667V10.8333C8.76923 10.9483 8.7206 11.0585 8.63405 11.1397C8.54749 11.221 8.4301 11.2667 8.30769 11.2667C8.18528 11.2667 8.06789 11.221 7.98134 11.1397C7.89478 11.0585 7.84615 10.9483 7.84615 10.8333V4.76667C7.84615 4.65174 7.89478 4.54152 7.98134 4.46025C8.06789 4.37899 8.18528 4.33333 8.30769 4.33333C8.4301 4.33333 8.54749 4.37899 8.63405 4.46025C8.7206 4.54152 8.76923 4.65174 8.76923 4.76667Z" fill="white"/>
</svg>
