<svg width="46" height="44" viewBox="0 0 46 44" fill="none" xmlns="http://www.w3.org/2000/svg">
    <path d="M36.138 0.120972H12.558C8.89684 0.131408 5.93146 3.09679 5.92102 6.75797C5.92585 9.08606 7.14798 11.242 9.14302 12.442V30.298C9.15346 33.9592 12.1188 36.9245 15.78 36.935H32.916C36.5772 36.9245 39.5426 33.9592 39.553 30.298V12.442C41.5481 11.242 42.7702 9.08606 42.775 6.75797C42.7646 3.09679 39.7992 0.131408 36.138 0.120972Z" fill="#FFB655"/>
    <circle cx="38.307" cy="20.317" r="7.607" fill="#FF0C38"/>
    <circle cx="38.307" cy="20.3179" r="5.201" fill="#D80027"/>
    <path d="M45.363 17.478C43.9922 14.0742 40.387 12.1341 36.7911 12.8652C33.1953 13.5963 30.6338 16.7902 30.701 20.459C33.0224 22.0682 35.9001 22.6599 38.6681 22.0971C41.4361 21.5344 43.8543 19.8659 45.363 17.478Z" fill="#D80027"/>
    <path d="M24.302 30.25L18.865 39.234C17.3562 41.7108 14.1306 42.5042 11.645 41.01L2.661 35.573C0.184255 34.0643 -0.609205 30.8386 0.885001 28.353L6.322 19.369C7.83067 16.8941 11.0541 16.1009 13.539 17.593L22.523 23.03C25.0008 24.5378 25.7957 27.7637 24.302 30.25Z" fill="#EEBF00"/>
    <path d="M24.23 27.806C24.5138 27.6206 24.7857 27.4175 25.044 27.198C24.9367 25.4803 23.9959 23.9237 22.525 23.03L13.541 17.593C11.0555 16.0988 7.82979 16.8923 6.32102 19.369L1.65802 27.069L4.32402 31.169C6.74341 34.8779 11.7071 35.931 15.424 33.524L24.23 27.806Z" fill="#DDB200"/>
    <path d="M22.723 25.4859L13.923 31.2089C11.4866 32.7827 8.23665 32.0933 6.64901 29.6659L0.926011 20.8659C-0.650748 18.4302 0.0365491 15.1783 2.46401 13.5889L11.264 7.86591C13.7004 6.29215 16.9504 6.98155 18.538 9.40891L24.261 18.2089C25.8378 20.6446 25.1505 23.8965 22.723 25.4859Z" fill="#FFCD00"/>
    <path d="M43.468 19.696C43.2354 17.7495 41.9278 16.0993 40.0861 15.4278C38.2443 14.7562 36.1814 15.1775 34.7505 16.5175C33.3196 17.8574 32.7638 19.8882 33.313 21.77C36.8254 22.9431 40.6969 22.1524 43.468 19.696Z" fill="#C70024"/>
    <circle cx="36.6" cy="11.93" r="7.607" fill="#FF3F62"/>
    <path d="M42.622 13.7249C42.6164 9.22258 39.4251 5.35379 35.006 4.49194C31.8525 5.16482 29.4658 7.7528 29.05 10.9504C28.6341 14.148 30.2794 17.2603 33.1559 18.7175C36.0324 20.1746 39.515 19.6599 41.847 17.4329C42.3562 16.2629 42.62 15.0009 42.622 13.7249Z" fill="#FF0C38"/>
    <circle cx="36.6" cy="11.93" r="5.201" fill="#D80027"/>
    <path d="M4.54901 14.517C4.54901 16.263 6.18601 17.728 6.69801 19.303C7.22801 20.935 6.78301 23.08 7.77201 24.439C8.76101 25.798 10.954 26.046 12.327 27.045C13.7 28.044 14.579 30.045 16.211 30.574C17.786 31.085 19.683 30.001 21.428 30.001C23.173 30.001 25.07 31.085 26.645 30.574C28.277 30.044 29.17 28.034 30.529 27.045C31.888 26.056 34.085 25.811 35.084 24.439C36.083 23.067 35.628 20.939 36.158 19.303C36.669 17.728 38.307 16.262 38.307 14.517C38.307 12.807 36.689 11.517 36.197 10.164C35.642 8.63597 35.951 6.60297 34.874 5.51097C33.797 4.41897 31.722 4.67697 30.252 4.00297C28.898 3.38197 27.812 1.61097 26.205 1.32097C24.731 1.05497 23.045 2.30897 21.427 2.30897C19.809 2.30897 18.127 1.05497 16.649 1.32097C15.043 1.61097 13.956 3.38297 12.602 4.00297C11.131 4.67697 9.04701 4.42797 7.98001 5.51097C6.91301 6.59397 7.21301 8.63597 6.65801 10.164C6.16701 11.517 4.54901 12.807 4.54901 14.517Z" fill="#6DC82A"/>
    <path d="M18.407 13.4409C16.992 14.4639 16.764 16.6489 15.788 17.9869C14.776 19.3729 12.777 20.2689 12.256 21.8669C11.729 23.4809 12.818 25.3879 12.813 27.0849C12.808 28.7649 11.702 30.6669 12.229 32.2999C12.737 33.8759 14.729 34.7769 15.75 36.1919C16.771 37.6069 17.005 39.7789 18.343 40.7549C19.729 41.7669 21.881 41.3129 23.479 41.8349C25.093 42.3619 26.562 43.9939 28.26 43.9989C29.941 44.0039 31.418 42.3869 33.051 41.8599C34.627 41.3519 36.774 41.8189 38.189 40.7969C39.575 39.7969 39.672 37.7279 40.48 36.5369C41.393 35.1919 43.221 34.2509 43.48 32.7369C43.739 31.2229 42.309 29.6949 41.993 28.1079C41.703 26.6469 42.502 24.7289 41.793 23.2569C41.145 21.9069 39.141 21.2749 38.193 19.9639C37.245 18.6529 37.273 16.5519 36.193 15.5129C35.017 14.3809 32.944 14.5389 31.648 13.8059C30.24 13.0059 29.221 11.1739 27.718 10.9439C26.215 10.7139 24.736 12.1529 23.173 12.5989C21.79 12.9949 19.796 12.4389 18.407 13.4409Z" fill="#6DC82A"/>
    <path d="M22.526 23.03L13.542 17.593C11.0564 16.0988 7.83077 16.8923 6.32199 19.369L3.45599 24.105V36.054L11.645 41.01C14.1306 42.5042 17.3562 41.7108 18.865 39.234L24.302 30.25C25.7962 27.7644 25.0027 24.5388 22.526 23.03Z" fill="#DDB200"/>
    <path d="M18.542 9.40794C16.9544 6.98057 13.7044 6.29117 11.268 7.86494L2.46202 13.5889C1.58868 14.1563 0.905031 14.9719 0.499023 15.9309C0.963686 17.8171 1.99452 19.5159 3.45302 20.7989V24.7609L6.64202 29.6669C8.22966 32.0943 11.4796 32.7837 13.916 31.2099L22.716 25.4869C25.1444 23.9003 25.8352 20.6501 24.262 18.2129L18.542 9.40794Z" fill="#EEBF00"/>
    <path d="M38.194 19.9659C37.246 18.6549 37.274 16.5539 36.194 15.5149C35.018 14.3829 32.945 14.5409 31.649 13.8079C30.241 13.0079 29.222 11.1759 27.719 10.9459C26.216 10.7159 24.737 12.1549 23.174 12.6009C21.79 12.9959 19.796 12.4399 18.41 13.4419C16.995 14.4649 16.767 16.6499 15.791 17.9879C14.779 19.3739 12.78 20.2699 12.259 21.8679C11.732 23.4819 12.821 25.3889 12.816 27.0859C12.811 28.7659 11.705 30.6679 12.232 32.3009C12.74 33.8769 14.732 34.7779 15.753 36.1929C16.774 37.6079 17.008 39.7799 18.346 40.7559C19.732 41.7679 21.884 41.3139 23.482 41.8359C25.096 42.3629 26.565 43.9949 28.263 43.9999C29.944 44.0049 31.421 42.3879 33.054 41.8609C34.63 41.3519 36.777 41.8199 38.192 40.7979C38.5377 40.5406 38.827 40.2153 39.042 39.8419C39.2807 39.004 39.4015 38.137 39.401 37.2659V21.0989C38.9425 20.786 38.5353 20.4037 38.194 19.9659Z" fill="#5EAC24"/>
    <path d="M36.2 10.1639C35.645 8.63592 35.954 6.60292 34.877 5.51092C34.029 4.64992 32.539 4.63092 31.225 4.32092H11.634C10.32 4.63092 8.83401 4.64992 7.98101 5.51092C6.90501 6.60292 7.21401 8.63592 6.65901 10.1639C6.16701 11.5169 4.54901 12.8069 4.54901 14.5169C4.54901 16.2629 6.18601 17.7279 6.69801 19.3029C7.22801 20.9359 6.78301 23.0799 7.77201 24.4389C8.76101 25.7979 10.954 26.0459 12.327 27.0449C13.7 28.0439 14.579 30.0449 16.211 30.5739C17.786 31.0849 19.683 30.0009 21.428 30.0009C23.173 30.0009 25.07 31.0849 26.645 30.5739C28.277 30.0439 29.17 28.0339 30.529 27.0449C31.888 26.0559 34.085 25.8109 35.084 24.4389C36.083 23.0669 35.628 20.9389 36.158 19.3029C36.669 17.7279 38.307 16.2619 38.307 14.5169C38.307 12.8069 36.689 11.5169 36.2 10.1639Z" fill="#5EAC24"/>
    <path d="M33.218 7.08801H9.637C5.97582 7.09845 3.01044 10.0638 3 13.725C3.00483 16.0531 4.22696 18.2091 6.222 19.409V37.265C6.23244 40.9262 9.19782 43.8916 12.859 43.902H29.996C33.6572 43.8916 36.6226 40.9262 36.633 37.265V19.409C38.628 18.2091 39.8502 16.0531 39.855 13.725C39.8446 10.0638 36.8792 7.09845 33.218 7.08801Z" fill="#FFDAAA"/>
    <path d="M13.788 37.2659V21.8529C13.7789 20.5067 13.2613 19.2137 12.339 18.2329C11.2006 17.0109 10.5672 15.4031 10.566 13.7329C10.5764 10.0718 13.5418 7.10638 17.203 7.09595H9.637C5.97582 7.10638 3.01044 10.0718 3 13.7329C3.00483 16.061 4.22696 18.217 6.222 19.4169V37.2729C6.23244 40.9341 9.19782 43.8995 12.859 43.9099H20.424C16.7605 43.8989 13.7946 40.9295 13.788 37.2659Z" fill="#FFC477"/>
    <circle cx="20.604" cy="19.383" r="1.866" fill="#FFC477"/>
    <circle cx="19.691" cy="34.821" r="1.866" fill="#FFC477"/>
    <circle cx="31.828" cy="27.9259" r="1.866" fill="#FFC477"/>
    <circle cx="22.996" cy="29.791" r="0.692" fill="#FFC477"/>
    <circle cx="28.993" cy="38.2169" r="0.692" fill="#FFC477"/>
    <circle cx="17.096" cy="23.5749" r="0.692" fill="#FFC477"/>
    <circle cx="25.11" cy="16.7619" r="0.692" fill="#FFC477"/>
    <circle cx="32.678" cy="22.0609" r="0.692" fill="#FFC477"/>
</svg>
