<svg width="23" height="24" viewBox="0 0 23 24"  xmlns="http://www.w3.org/2000/svg">
<path clip-rule="evenodd" d="M17.5 15.815L21.8 20.115V20.114C22.2038 20.5201 22.2038 21.176 21.8 21.582L20.563 22.797C20.3693 22.9917 20.1061 23.1011 19.8315 23.1011C19.5569 23.1011 19.2937 22.9917 19.1 22.797L14.8 18.497C14.6065 18.3019 14.4986 18.0378 14.5 17.763V17.063C10.7437 19.9582 5.38314 19.4311 2.26264 15.8597C-0.857855 12.2884 -0.661158 6.90559 2.71168 3.57152C6.08452 0.237455 11.4692 0.102997 15.0042 3.26457C18.5393 6.42615 19.0044 11.7924 16.066 15.515H16.766C17.0408 15.5136 17.3049 15.6216 17.5 15.815ZM3.86962 12.0951C4.72622 14.1604 6.74305 15.5061 8.97901 15.504C12.028 15.5035 14.4995 13.032 14.5 9.98304C14.502 7.74707 13.1564 5.73024 11.091 4.87364C9.02566 4.01704 6.64761 4.4895 5.06654 6.07057C3.48548 7.65164 3.01301 10.0297 3.86962 12.0951Z"/>
</svg>
