<svg width="12" height="12" viewBox="0 0 12 12" fill="currentColor" xmlns="http://www.w3.org/2000/svg">
<path d="M7.125 4.5V5.25C7.125 5.40469 6.99844 5.53125 6.84375 5.53125H5.53125V6.84375C5.53125 6.99844 5.40469 7.125 5.25 7.125H4.5C4.34531 7.125 4.21875 6.99844 4.21875 6.84375V5.53125H2.90625C2.75156 5.53125 2.625 5.40469 2.625 5.25V4.5C2.625 4.34531 2.75156 4.21875 2.90625 4.21875H4.21875V2.90625C4.21875 2.75156 4.34531 2.625 4.5 2.625H5.25C5.40469 2.625 5.53125 2.75156 5.53125 2.90625V4.21875H6.84375C6.99844 4.21875 7.125 4.34531 7.125 4.5ZM11.8359 11.1727L11.1727 11.8359C10.9523 12.0562 10.5961 12.0562 10.3781 11.8359L8.03906 9.49922C7.93359 9.39375 7.875 9.25078 7.875 9.10078V8.71875C7.04766 9.36562 6.00703 9.75 4.875 9.75C2.18203 9.75 0 7.56797 0 4.875C0 2.18203 2.18203 0 4.875 0C7.56797 0 9.75 2.18203 9.75 4.875C9.75 6.00703 9.36563 7.04766 8.71875 7.875H9.10078C9.25078 7.875 9.39375 7.93359 9.49922 8.03906L11.8359 10.3758C12.0539 10.5961 12.0539 10.9523 11.8359 11.1727ZM8.0625 4.875C8.0625 3.1125 6.6375 1.6875 4.875 1.6875C3.1125 1.6875 1.6875 3.1125 1.6875 4.875C1.6875 6.6375 3.1125 8.0625 4.875 8.0625C6.6375 8.0625 8.0625 6.6375 8.0625 4.875Z" fill="#B5B5B5"/>
</svg>
