<svg width="19" height="19" viewBox="0 0 19 19" xmlns="http://www.w3.org/2000/svg">
    <path clip-rule="evenodd" d="M16.0141 9.62395C16.0231 9.92736 16.0077 10.231 15.9681 10.532L18.0111 12.03C18.1562 12.1908 18.1927 12.4222 18.1041 12.62L16.2471 15.751C16.1363 15.9463 15.8949 16.0252 15.6901 15.933L13.3691 15.025C12.8801 15.3878 12.3505 15.6925 11.7911 15.933L11.4191 18.333C11.3597 18.5419 11.1722 18.6886 10.9551 18.696H7.23813C7.01474 18.7071 6.81709 18.5525 6.77413 18.333L6.40313 15.933C5.83856 15.7029 5.30774 15.3975 4.82513 15.025L2.51313 15.939C2.30795 16.0232 2.072 15.9461 1.95613 15.757L0.0991279 12.626C0.0317907 12.5359 0.00368925 12.4224 0.0211999 12.3113C0.0387105 12.2003 0.100348 12.1009 0.192128 12.036L2.14113 10.536C2.14113 10.377 2.12963 10.2295 2.11813 10.082C2.10663 9.93445 2.09513 9.78695 2.09513 9.62796C2.09513 9.46896 2.10663 9.32146 2.11813 9.17396C2.12963 9.02646 2.14113 8.87896 2.14113 8.71996L0.141128 7.21995C-0.00374268 7.05895 -0.0401906 6.82772 0.0481279 6.62996L1.90513 3.49896C2.01596 3.30358 2.25732 3.22471 2.46213 3.31696L4.78313 4.22496C5.27218 3.86219 5.80173 3.55748 6.36113 3.31696L6.73213 0.916955C6.79152 0.70801 6.97903 0.561317 7.19613 0.553955H10.9091C11.1262 0.561317 11.3137 0.70801 11.3731 0.916955L11.6981 3.31696C12.2627 3.54703 12.7935 3.85247 13.2761 4.22496L15.5971 3.31696C15.8023 3.23276 16.0383 3.30986 16.1541 3.49896L18.0101 6.62596C18.0775 6.71603 18.1056 6.82948 18.0881 6.94057C18.0705 7.05166 18.0089 7.15096 17.9171 7.21596L15.9681 8.71595C15.9681 8.87495 15.9796 9.02245 15.9911 9.16995C16.0026 9.31745 16.0141 9.46495 16.0141 9.62395ZM5.94749 9.57671C5.92109 11.3218 7.30731 12.7614 9.05213 12.801C9.90569 12.8159 10.7297 12.4885 11.3402 11.8917C11.9506 11.295 12.2967 10.4786 12.3011 9.62496C12.3012 7.87969 10.8935 6.46112 9.14825 6.44786C7.40304 6.43461 5.9739 7.83164 5.94749 9.57671Z"/>
</svg>
