<?xml version="1.0" encoding="iso-8859-1"?>
<!-- Uploaded to: SVG Repo, www.svgrepo.com, Generator: SVG Repo Mixer Tools -->
<svg fill="#000000" height="800px" width="800px" version="1.1" id="Layer_1" xmlns="http://www.w3.org/2000/svg" xmlns:xlink="http://www.w3.org/1999/xlink" 
	 viewBox="0 0 512 512" xml:space="preserve">
<g>
	<g>
		<path d="M511.459,287.329l0.006-0.002L429.214,73.474c8.491-4.035,14.377-12.692,14.377-22.701c0-4.427-3.589-8.017-8.017-8.017
			c-4.427,0-8.017,3.589-8.017,8.017c0,5.01-4.076,9.086-9.086,9.086c-3.416,0-6.513-1.889-8.083-4.929
			c-3.936-7.622-11.015-12.174-18.937-12.174H288.697c-3.606-14.707-16.895-25.653-32.699-25.653S226.908,28.049,223.3,42.756
			H120.545c-7.922,0-15.001,4.551-18.937,12.174c-1.568,3.04-4.665,4.929-8.081,4.929c-5.01,0-9.086-4.076-9.086-9.086
			c0-4.427-3.589-8.017-8.017-8.017s-8.017,3.589-8.017,8.017c0,10.009,5.885,18.666,14.377,22.701L0.534,287.327l0.006,0.002
			C0.197,288.223,0,289.19,0,290.205c0,51.572,41.956,93.528,93.528,93.528s93.528-41.956,93.528-93.528
			c0-1.014-0.197-1.982-0.541-2.875l0.006-0.002L104.273,73.478c4.892-2.311,8.996-6.178,11.585-11.193
			c0.423-0.821,2.013-3.496,4.69-3.496h102.755c1.33,5.422,3.974,10.333,7.58,14.372V444.66h-68.944
			c-13.851,0-25.119,11.268-25.119,25.119c0,13.851,11.268,25.119,25.119,25.119h188.125c13.851,0,25.119-11.268,25.119-25.119
			c0-13.851-11.269-25.119-25.12-25.119h-68.944V73.161c3.604-4.039,6.249-8.95,7.58-14.372h102.755c2.677,0,4.267,2.675,4.69,3.496
			c2.589,5.014,6.692,8.883,11.585,11.193l-82.25,213.848l0.006,0.002c-0.344,0.894-0.541,1.861-0.541,2.875
			c0,51.572,41.956,93.528,93.528,93.528S512,341.777,512,290.205C512,289.19,511.803,288.223,511.459,287.329z M93.528,367.699
			c-40.024,0-73.058-30.501-77.083-69.478H170.61C166.586,337.198,133.552,367.699,93.528,367.699z M167.367,282.188H19.689
			L93.528,90.207L167.367,282.188z M256,33.136c9.725,0,17.637,7.912,17.637,17.637S265.725,68.409,256,68.409
			s-17.637-7.912-17.637-17.637S246.275,33.136,256,33.136z M265.086,83.187V444.66h-18.171V83.187
			c2.892,0.812,5.938,1.256,9.086,1.256S262.193,83.999,265.086,83.187z M350.063,460.693c5.01,0,9.086,4.076,9.086,9.086
			c0,5.01-4.076,9.086-9.086,9.086H161.937c-5.01,0-9.086-4.076-9.086-9.086c0-5.01,4.076-9.086,9.086-9.086H350.063z
			 M418.472,90.207l73.839,191.981H344.633L418.472,90.207z M418.472,367.699c-40.024,0-73.058-30.501-77.083-69.478h154.165
			C491.53,337.198,458.495,367.699,418.472,367.699z"/>
	</g>
</g>
</svg>