<svg width="19" height="15" viewBox="0 0 19 15" fill="none" xmlns="http://www.w3.org/2000/svg">
<path d="M8.3125 15C8.3125 15 7.125 15 7.125 13.75C7.125 12.5 8.3125 8.75 13.0625 8.75C17.8125 8.75 19 12.5 19 13.75C19 15 17.8125 15 17.8125 15H8.3125ZM13.0625 7.5C14.0073 7.5 14.9135 7.10491 15.5816 6.40165C16.2497 5.69839 16.625 4.74456 16.625 3.75C16.625 2.75544 16.2497 1.80161 15.5816 1.09835C14.9135 0.395088 14.0073 0 13.0625 0C12.1177 0 11.2115 0.395088 10.5434 1.09835C9.87533 1.80161 9.5 2.75544 9.5 3.75C9.5 4.74456 9.87533 5.69839 10.5434 6.40165C11.2115 7.10491 12.1177 7.5 13.0625 7.5ZM6.194 15C6.01796 14.6098 5.93017 14.1819 5.9375 13.75C5.9375 12.0562 6.745 10.3125 8.2365 9.1C7.49205 8.85854 6.71644 8.74047 5.9375 8.75C1.1875 8.75 0 12.5 0 13.75C0 15 1.1875 15 1.1875 15H6.194ZM5.34375 7.5C6.13111 7.5 6.88622 7.17076 7.44297 6.58471C7.99972 5.99866 8.3125 5.2038 8.3125 4.375C8.3125 3.5462 7.99972 2.75134 7.44297 2.16529C6.88622 1.57924 6.13111 1.25 5.34375 1.25C4.55639 1.25 3.80128 1.57924 3.24453 2.16529C2.68778 2.75134 2.375 3.5462 2.375 4.375C2.375 5.2038 2.68778 5.99866 3.24453 6.58471C3.80128 7.17076 4.55639 7.5 5.34375 7.5Z" fill="#3F3D56"/>
</svg>
