<svg width="10" height="11" viewBox="0 0 10 11" xmlns="http://www.w3.org/2000/svg">
    <path d="M6.5 0.5H3.5V1.5H6.5V0.5ZM4.5 7H5.5V4H4.5V7ZM8.515 3.695L9.225 2.985C9.01 2.73 8.775 2.49 8.52 2.28L7.81 2.99C7.01366 2.34916 6.02217 1.99984 5 2C2.515 2 0.5 4.015 0.5 6.5C0.5 8.985 2.51 11 5 11C5.84715 11.0005 6.67721 10.7616 7.39456 10.311C8.11192 9.86034 8.6874 9.21625 9.05472 8.45287C9.42204 7.68949 9.56626 6.83788 9.47077 5.99613C9.37529 5.15437 9.04398 4.35671 8.515 3.695ZM5 10C3.065 10 1.5 8.435 1.5 6.5C1.5 4.565 3.065 3 5 3C6.935 3 8.5 4.565 8.5 6.5C8.5 8.435 6.935 10 5 10Z" />
</svg>
