<svg width="20" height="24" viewBox="0 0 20 24" fill="none" xmlns="http://www.w3.org/2000/svg">
<path fill-rule="evenodd" clip-rule="evenodd" d="M15.273 6.44597C15.273 9.51336 12.7864 12 9.719 12C6.65161 12 4.165 9.51336 4.165 6.44597C4.165 3.37858 6.65161 0.891968 9.719 0.891968C12.7864 0.891968 15.273 3.37858 15.273 6.44597ZM11.802 21.715L13.876 13.415V13.414C16.9836 13.5523 19.4335 16.1092 19.439 19.22V21.025C19.439 22.1754 18.5064 23.108 17.356 23.108H2.083C1.53055 23.108 1.00073 22.8885 0.610097 22.4979C0.219458 22.1072 0 21.5774 0 21.025V19.22C0.00973468 16.1123 2.45844 13.5602 5.563 13.422L7.637 21.722L9.025 15.822L7.637 13.392H11.8L10.414 15.815L11.802 21.715Z" fill="#3F3D56"/>
</svg>
