<svg width="4" height="16" viewBox="0 0 4 16" fill="none" xmlns="http://www.w3.org/2000/svg">
    <path d="M3.38 0.43V6.15C3.38 6.76333 3.34333 7.37333 3.27 7.98C3.19667 8.58 3.1 9.19333 2.98 9.82H0.88C0.76 9.19333 0.663333 8.58 0.59 7.98C0.516667 7.37333 0.48 6.76333 0.48 6.15V0.43H3.38ZM0.14 13.43C0.14 13.19 0.183333 12.9667 0.27 12.76C0.363333 12.5533 0.486667 12.3733 0.64 12.22C0.8 12.0667 0.986667 11.9467 1.2 11.86C1.41333 11.7667 1.64667 11.72 1.9 11.72C2.14667 11.72 2.37667 11.7667 2.59 11.86C2.80333 11.9467 2.99 12.0667 3.15 12.22C3.31 12.3733 3.43333 12.5533 3.52 12.76C3.61333 12.9667 3.66 13.19 3.66 13.43C3.66 13.67 3.61333 13.8967 3.52 14.11C3.43333 14.3167 3.31 14.4967 3.15 14.65C2.99 14.8033 2.80333 14.9233 2.59 15.01C2.37667 15.0967 2.14667 15.14 1.9 15.14C1.64667 15.14 1.41333 15.0967 1.2 15.01C0.986667 14.9233 0.8 14.8033 0.64 14.65C0.486667 14.4967 0.363333 14.3167 0.27 14.11C0.183333 13.8967 0.14 13.67 0.14 13.43Z" fill="#3F3D56"/>
</svg>
