<svg width="40" height="40" viewBox="0 0 40 40" xmlns="http://www.w3.org/2000/svg">
<path fill-rule="evenodd" clip-rule="evenodd" d="M20 2.7907C10.4956 2.7907 2.7907 10.4956 2.7907 20C2.7907 29.5044 10.4956 37.2093 20 37.2093C29.5044 37.2093 37.2093 29.5044 37.2093 20C37.2093 10.4956 29.5044 2.7907 20 2.7907ZM0 20C0 8.95431 8.95431 0 20 0C31.0458 0 40 8.95431 40 20C40 31.0458 31.0458 40 20 40C8.95431 40 0 31.0458 0 20Z" />
<path fill-rule="evenodd" clip-rule="evenodd" d="M20 9.30222C20.7706 9.30222 21.3953 9.92694 21.3953 10.6976V23.9156C21.3953 24.6862 20.7706 25.311 20 25.311C19.2294 25.311 18.6046 24.6862 18.6046 23.9156V10.6976C18.6046 9.92694 19.2294 9.30222 20 9.30222Z" />
<path fill-rule="evenodd" clip-rule="evenodd" d="M18.1395 29.3022C18.1395 28.2747 18.9725 27.4417 20 27.4417H20.0186C21.0461 27.4417 21.8791 28.2747 21.8791 29.3022C21.8791 30.3297 21.0461 31.1627 20.0186 31.1627H20C18.9725 31.1627 18.1395 30.3297 18.1395 29.3022Z" />
</svg>
