<svg width="28" height="26" viewBox="0 0 28 26" fill="none" xmlns="http://www.w3.org/2000/svg">
<path d="M24.769 15.1191L26.986 5.36406C27.0624 5.02988 26.9824 4.67909 26.7687 4.41106C26.555 4.14303 26.2308 3.98696 25.888 3.98706H7.467L7.037 1.88706C6.9299 1.36432 6.4706 0.988524 5.937 0.987061H1.126C0.504127 0.987061 0 1.49119 0 2.11306V2.86306C0.00110318 3.48415 0.504908 3.98706 1.126 3.98706H4.4L7.7 20.0961C6.72097 20.6579 6.21031 21.7824 6.43149 22.8893C6.65267 23.9962 7.55625 24.8381 8.67601 24.9805C9.79578 25.123 10.8814 24.5342 11.3727 23.5179C11.864 22.5017 11.6512 21.2852 10.844 20.4961H20.676C19.8583 21.2975 19.6542 22.5364 20.1715 23.5578C20.6888 24.5792 21.8082 25.1478 22.9382 24.9629C24.0681 24.7781 24.948 23.8825 25.1129 22.7494C25.2777 21.6164 24.6894 20.5072 23.659 20.0081L23.918 18.8691C23.9938 18.5348 23.9132 18.1843 23.6991 17.9167C23.485 17.649 23.1607 17.4935 22.818 17.4941H10.23L9.923 15.9941H23.671C24.1963 15.9942 24.6519 15.6311 24.769 15.1191Z"/>
</svg>
