<svg width="40" height="40" viewBox="0 0 40 40" fill="none" xmlns="http://www.w3.org/2000/svg">
    <path fill-rule="evenodd" clip-rule="evenodd" d="M20 2.7907C10.4956 2.7907 2.7907 10.4956 2.7907 20C2.7907 29.5044 10.4956 37.2093 20 37.2093C29.5044 37.2093 37.2093 29.5044 37.2093 20C37.2093 10.4956 29.5044 2.7907 20 2.7907ZM0 20C0 8.95431 8.95431 0 20 0C31.0458 0 40 8.95431 40 20C40 31.0458 31.0458 40 20 40C8.95431 40 0 31.0458 0 20Z" fill="#DA1E28"/>
    <path fill-rule="evenodd" clip-rule="evenodd" d="M13.0683 16.3044C13.4536 15.637 14.307 15.4084 14.9744 15.7937L26.4215 22.4027C27.0889 22.788 27.3176 23.6414 26.9323 24.3088C26.547 24.9761 25.6935 25.2048 25.0262 24.8195L13.579 18.2105C12.9116 17.8252 12.683 16.9718 13.0683 16.3044Z" fill="#DA1E28"/>
</svg>
