<svg xmlns="http://www.w3.org/2000/svg"  viewBox="0 0 64 64" width="64px" height="64px"><linearGradient id="vc8QRGE7FrZm_4whYbQGXa" x1="32" x2="32" y1="5.25" y2="59.38" gradientUnits="userSpaceOnUse" spreadMethod="reflect"><stop offset="0" stop-color="#1a6dff"/><stop offset="1" stop-color="#c822ff"/></linearGradient><path fill="url(#vc8QRGE7FrZm_4whYbQGXa)" d="M32,58C17.663,58,6,46.337,6,32S17.663,6,32,6s26,11.663,26,26S46.337,58,32,58z M32,8 C18.767,8,8,18.767,8,32s10.767,24,24,24s24-10.767,24-24S45.233,8,32,8z"/><linearGradient id="vc8QRGE7FrZm_4whYbQGXb" x1="31.015" x2="31.015" y1="14.405" y2="49.732" gradientUnits="userSpaceOnUse" spreadMethod="reflect"><stop offset="0" stop-color="#6dc7ff"/><stop offset="1" stop-color="#e6abff"/></linearGradient><path fill="url(#vc8QRGE7FrZm_4whYbQGXb)" d="M34,49V34h5.001l1.03-6L34,28.019V23.93c0-1.743-0.109-2.93,2.39-2.93L40,20.999 l0.005-5.731c-0.845-0.074-2.273-0.238-4.512-0.238c-4.675,0-7.493,2.817-7.493,7.989V28h-6v6h6v15H34z"/></svg>