<svg width="17" height="18" viewBox="0 0 17 18" xmlns="http://www.w3.org/2000/svg">
    <path d="M8.33201 7.74002H16.174C16.174 8.23002 16.337 8.55702 16.337 9.04702C16.337 13.785 13.237 17.216 8.33201 17.216C3.7301 17.216 -0.000488281 13.4854 -0.000488281 8.88352C-0.000488281 4.28161 3.7301 0.551022 8.33201 0.551022C10.3866 0.525827 12.3734 1.28549 13.887 2.67502L11.6 4.96202C10.7437 4.0846 9.5573 3.60865 8.33201 3.65102C5.44973 3.66849 3.11748 6.00074 3.10001 8.88302C3.0818 10.2758 3.6273 11.6168 4.61259 12.6013C5.59787 13.5858 6.93927 14.1303 8.33201 14.111C10.5974 14.2986 12.6401 12.7491 13.07 10.517H8.33201V7.74002Z"/>
</svg>
