<svg width="121" height="28" viewBox="0 0 121 28" fill="none" xmlns="http://www.w3.org/2000/svg">
<g opacity="0.1">
<path d="M37.0294 0.5H120.25V27.5H37.0294V0.5Z" fill="#3B3A3F"/>
<path d="M37.0294 0.5H120.25V27.5H37.0294V0.5Z" stroke="#3F3D56"/>
<path d="M37.0294 0.5H120.25V27.5H37.0294V0.5Z" stroke="black" stroke-opacity="0.2"/>
<path d="M37.0294 0.5H120.25V27.5H37.0294V0.5Z" stroke="black" stroke-opacity="0.2"/>
<path d="M37.0294 0.5H120.25V27.5H37.0294V0.5Z" stroke="black" stroke-opacity="0.2"/>
<path d="M37.0294 0.5H120.25V27.5H37.0294V0.5Z" stroke="black" stroke-opacity="0.2"/>
</g>
<path d="M0 0H36.5294V28H10C4.47715 28 0 23.5228 0 18V0Z" fill="#3B3A3F"/>
<path d="M19.3736 13.82C19.3736 14.8933 19.2003 15.87 18.8536 16.75C18.5136 17.63 18.0303 18.3867 17.4036 19.02C16.7769 19.6467 16.0269 20.1333 15.1536 20.48C14.2803 20.8267 13.3103 21 12.2436 21H6.84362V6.64H12.2436C13.3103 6.64 14.2803 6.81333 15.1536 7.16C16.0269 7.50667 16.7769 7.99667 17.4036 8.63C18.0303 9.25667 18.5136 10.0133 18.8536 10.9C19.2003 11.78 19.3736 12.7533 19.3736 13.82ZM17.1936 13.82C17.1936 12.9667 17.0769 12.2033 16.8436 11.53C16.6103 10.85 16.2769 10.2767 15.8436 9.81C15.4169 9.33667 14.8969 8.97667 14.2836 8.73C13.6769 8.48333 12.9969 8.36 12.2436 8.36H8.98362V19.28H12.2436C12.9969 19.28 13.6769 19.1567 14.2836 18.91C14.8969 18.6633 15.4169 18.3067 15.8436 17.84C16.2769 17.3667 16.6103 16.7933 16.8436 16.12C17.0769 15.4467 17.1936 14.68 17.1936 13.82ZM30.9685 19.27L30.9585 21H22.0585V6.64H30.9585V8.37H24.1985V12.92H29.6385V14.59H24.1985V19.27H30.9685Z" fill="#F5F6FB"/>
<path d="M48.0686 14.03C48.6086 14.03 49.0819 13.96 49.4886 13.82C49.9019 13.68 50.2453 13.4833 50.5186 13.23C50.7986 12.97 51.0086 12.6633 51.1486 12.31C51.2886 11.95 51.3586 11.5533 51.3586 11.12C51.3586 10.2467 51.0853 9.56 50.5386 9.06C49.9986 8.56 49.1753 8.31 48.0686 8.31H45.8486V14.03H48.0686ZM48.0686 6.64C48.9886 6.64 49.7886 6.74667 50.4686 6.96C51.1486 7.17333 51.7119 7.47667 52.1586 7.87C52.6053 8.25667 52.9353 8.72667 53.1486 9.28C53.3686 9.83333 53.4786 10.4467 53.4786 11.12C53.4786 11.7933 53.3619 12.4133 53.1286 12.98C52.8953 13.54 52.552 14.0233 52.0986 14.43C51.6453 14.8367 51.0786 15.1533 50.3986 15.38C49.7253 15.6 48.9486 15.71 48.0686 15.71H45.8486V21H43.7186V6.64H48.0686ZM69.208 13.82C69.208 14.8933 69.0347 15.88 68.688 16.78C68.348 17.6733 67.8647 18.4467 67.238 19.1C66.6113 19.7467 65.8613 20.25 64.988 20.61C64.1147 20.97 63.1447 21.15 62.078 21.15C61.018 21.15 60.048 20.97 59.168 20.61C58.2947 20.25 57.5447 19.7467 56.918 19.1C56.298 18.4467 55.8147 17.6733 55.468 16.78C55.1213 15.88 54.948 14.8933 54.948 13.82C54.948 12.7533 55.1213 11.77 55.468 10.87C55.8147 9.97 56.298 9.19667 56.918 8.55C57.5447 7.89667 58.2947 7.39 59.168 7.03C60.048 6.66333 61.018 6.48 62.078 6.48C63.1447 6.48 64.1147 6.66333 64.988 7.03C65.8613 7.39 66.6113 7.89667 67.238 8.55C67.8647 9.19667 68.348 9.97 68.688 10.87C69.0347 11.77 69.208 12.7533 69.208 13.82ZM67.028 13.82C67.028 12.9667 66.9113 12.2 66.678 11.52C66.4447 10.84 66.1113 10.2633 65.678 9.79C65.2513 9.31667 64.7313 8.95333 64.118 8.7C63.5113 8.44667 62.8313 8.32 62.078 8.32C61.3247 8.32 60.6413 8.44667 60.028 8.7C59.4213 8.95333 58.9013 9.31667 58.468 9.79C58.0347 10.2633 57.7013 10.84 57.468 11.52C57.2347 12.2 57.118 12.9667 57.118 13.82C57.118 14.68 57.2347 15.45 57.468 16.13C57.7013 16.8033 58.0347 17.3767 58.468 17.85C58.9013 18.3233 59.4213 18.6867 60.028 18.94C60.6413 19.1867 61.3247 19.31 62.078 19.31C62.8313 19.31 63.5113 19.1867 64.118 18.94C64.7313 18.6867 65.2513 18.3233 65.678 17.85C66.1113 17.3767 66.4447 16.8033 66.678 16.13C66.9113 15.45 67.028 14.68 67.028 13.82ZM74.0227 21H71.8827V6.64H74.0227V21ZM84.9963 8.98C84.9296 9.09333 84.8596 9.17667 84.7863 9.23C84.7129 9.28333 84.6196 9.31 84.5063 9.31C84.3863 9.31 84.2496 9.25667 84.0963 9.15C83.9429 9.03667 83.7496 8.91333 83.5163 8.78C83.2896 8.64 83.0163 8.51667 82.6963 8.41C82.3763 8.29667 81.9929 8.24 81.5463 8.24C81.1263 8.24 80.7563 8.29667 80.4363 8.41C80.1229 8.51667 79.8596 8.66667 79.6463 8.86C79.4329 9.04667 79.2696 9.27 79.1563 9.53C79.0496 9.78333 78.9963 10.06 78.9963 10.36C78.9963 10.7467 79.0929 11.0667 79.2863 11.32C79.4863 11.5733 79.7463 11.79 80.0663 11.97C80.3863 12.15 80.7496 12.3067 81.1563 12.44C81.5629 12.5733 81.9796 12.7133 82.4063 12.86C82.8329 13 83.2496 13.1633 83.6563 13.35C84.0629 13.5367 84.4263 13.7733 84.7463 14.06C85.0663 14.34 85.3229 14.6867 85.5163 15.1C85.7163 15.5067 85.8163 16.0067 85.8163 16.6C85.8163 17.2333 85.7063 17.8267 85.4863 18.38C85.2729 18.9333 84.9596 19.4167 84.5463 19.83C84.1329 20.2433 83.6229 20.57 83.0163 20.81C82.4163 21.0433 81.7329 21.16 80.9663 21.16C80.5063 21.16 80.0596 21.1133 79.6263 21.02C79.1929 20.9333 78.7829 20.81 78.3963 20.65C78.0096 20.4833 77.6463 20.2867 77.3063 20.06C76.9729 19.8267 76.6729 19.5667 76.4063 19.28L77.0163 18.26C77.0763 18.18 77.1463 18.1133 77.2263 18.06C77.3129 18.0067 77.4096 17.98 77.5163 17.98C77.6563 17.98 77.8163 18.0533 77.9963 18.2C78.1829 18.3467 78.4096 18.51 78.6763 18.69C78.9496 18.8633 79.2729 19.0233 79.6463 19.17C80.0263 19.3167 80.4863 19.39 81.0263 19.39C81.4663 19.39 81.8596 19.3333 82.2063 19.22C82.5529 19.1 82.8429 18.9333 83.0763 18.72C83.3163 18.5 83.4996 18.2367 83.6263 17.93C83.7529 17.6233 83.8163 17.2833 83.8163 16.91C83.8163 16.49 83.7196 16.1467 83.5263 15.88C83.3329 15.6133 83.0763 15.39 82.7563 15.21C82.4363 15.03 82.0729 14.8767 81.6663 14.75C81.2596 14.6233 80.8429 14.4933 80.4163 14.36C79.9896 14.22 79.5729 14.06 79.1663 13.88C78.7596 13.7 78.3963 13.4667 78.0763 13.18C77.7563 12.8867 77.4996 12.5233 77.3063 12.09C77.1129 11.65 77.0163 11.11 77.0163 10.47C77.0163 9.95667 77.1163 9.46 77.3163 8.98C77.5163 8.5 77.8063 8.07667 78.1863 7.71C78.5729 7.33667 79.0463 7.04 79.6063 6.82C80.1663 6.59333 80.8063 6.48 81.5263 6.48C82.3329 6.48 83.0729 6.61 83.7463 6.87C84.4263 7.12333 85.0163 7.49 85.5163 7.97L84.9963 8.98ZM98.2352 8.42H93.6752V21H91.5552V8.42H86.9752V6.64H98.2352V8.42ZM105.901 19.29C106.474 19.29 106.987 19.1933 107.441 19C107.894 18.8067 108.277 18.5367 108.591 18.19C108.904 17.8367 109.144 17.42 109.311 16.94C109.477 16.4533 109.561 15.9167 109.561 15.33V6.64H111.681V15.33C111.681 16.17 111.547 16.9467 111.281 17.66C111.014 18.3733 110.631 18.99 110.131 19.51C109.631 20.03 109.024 20.4367 108.311 20.73C107.597 21.0233 106.794 21.17 105.901 21.17C105.007 21.17 104.204 21.0233 103.491 20.73C102.777 20.4367 102.171 20.03 101.671 19.51C101.171 18.99 100.787 18.3733 100.521 17.66C100.254 16.9467 100.121 16.17 100.121 15.33V6.64H102.251V15.32C102.251 15.9067 102.331 16.4433 102.491 16.93C102.657 17.4167 102.897 17.8367 103.211 18.19C103.524 18.5367 103.907 18.8067 104.361 19C104.814 19.1933 105.327 19.29 105.901 19.29Z" fill="#3B3A3F"/>
</svg>
