<svg width="22" height="19" viewBox="0 0 22 19" fill="none" xmlns="http://www.w3.org/2000/svg">
<path d="M19.6969 1.37042C17.2133 -0.690177 13.3762 -0.380663 11 2.00641C8.62383 -0.380663 4.78672 -0.694417 2.30313 1.37042C-0.928119 4.05429 -0.455463 8.42989 1.84766 10.7491L9.38437 18.3259C9.81406 18.7583 10.3898 19 11 19C11.6145 19 12.1859 18.7626 12.6156 18.3301L20.1523 10.7534C22.4512 8.43413 22.9324 4.05853 19.6969 1.37042ZM18.6828 9.32027L11.1461 16.897C11.043 16.9988 10.957 16.9988 10.8539 16.897L3.31719 9.32027C1.74883 7.74302 1.43086 4.75812 3.63086 2.93071C5.30235 1.54426 7.88047 1.75201 9.49609 3.3759L11 4.88955L12.5039 3.3759C14.1281 1.74354 16.7062 1.54426 18.3691 2.92647C20.5648 4.75388 20.2383 7.75574 18.6828 9.32027Z" fill="#3F3D56"/>
</svg>
