<svg viewBox="0 0 40 40" xmlns="http://www.w3.org/2000/svg">
    <path d="M20 37.2093C29.5044 37.2093 37.2093 29.5044 37.2093 20C37.2093 10.4956 29.5044 2.79069 20 2.79069C10.4956 2.79069 2.7907 10.4956 2.7907 20C2.7907 29.5044 10.4956 37.2093 20 37.2093ZM40 20C40 31.0457 31.0457 40 20 40C8.95423 40 7.8281e-07 31.0457 1.74846e-06 20C2.71411e-06 8.95423 8.95423 -2.71411e-06 20 -1.74846e-06C31.0457 -7.8281e-07 40 8.95423 40 20Z" fill="#0244CF"/>
    <path d="M19.9999 30.6978C19.2293 30.6978 18.6046 30.0731 18.6046 29.3025L18.6046 16.0844C18.6046 15.3138 19.2293 14.6891 19.9999 14.6891C20.7705 14.6891 21.3953 15.3138 21.3953 16.0844L21.3953 29.3025C21.3953 30.0731 20.7705 30.6978 19.9999 30.6978Z" fill="#0244CF"/>
    <path d="M21.8604 10.6978C21.8604 11.7253 21.0274 12.5582 19.9999 12.5582L19.9813 12.5582C18.9537 12.5582 18.1208 11.7253 18.1208 10.6978C18.1208 9.67023 18.9537 8.8373 19.9813 8.8373L19.9999 8.8373C21.0274 8.8373 21.8604 9.67023 21.8604 10.6978Z" fill="#0244CF"/>
</svg>
