<svg width="17" height="16" viewBox="0 0 17 16" fill="none" xmlns="http://www.w3.org/2000/svg">
    <path d="M8.22127 15.0853L7.02927 14.0043C2.79527 10.1613 0.000271945 7.62528 0.000271945 4.52128C-0.0129888 3.31805 0.459208 2.16024 1.31017 1.30947C2.16113 0.458697 3.31904 -0.0132439 4.52227 0.000282969C5.94508 0.0112756 7.29384 0.636082 8.22227 1.71428C9.1507 0.636082 10.4995 0.0112756 11.9223 0.000282969C13.1253 -0.0129728 14.283 0.459087 15.1337 1.30983C15.9845 2.16057 16.4565 3.31822 16.4433 4.52128C16.4433 7.62128 13.6433 10.1613 9.41427 14.0043L8.22227 15.0853H8.22127Z" fill="url(#paint0_linear_1050_185)"/>
    <defs>
        <linearGradient id="paint0_linear_1050_185" x1="0" y1="0" x2="0" y2="15.0853" gradientUnits="userSpaceOnUse">
            <stop stop-color="#FF7E5B"/>
            <stop offset="1" stop-color="#FF3937"/>
        </linearGradient>
    </defs>
</svg>
