<svg width="16" height="16" viewBox="0 0 16 16" fill="none" xmlns="http://www.w3.org/2000/svg">
    <path d="M9.51294 6.32683C9.3281 6.14103 9.12317 5.97635 8.90194 5.83583C7.46286 4.91433 5.57639 5.11862 4.36794 6.32683L1.06094 9.63483C-0.329985 11.0599 -0.316739 13.3384 1.09066 14.7471C2.49807 16.1559 4.77655 16.1714 6.20294 14.7818L8.93094 12.0538C9.00543 11.9795 9.02773 11.8675 8.98744 11.7703C8.94714 11.6731 8.8522 11.6097 8.74694 11.6098H8.64694C8.07692 11.6119 7.51199 11.5025 6.98394 11.2878C6.88676 11.2479 6.77509 11.2704 6.70094 11.3448L4.73894 13.3088C4.1276 13.905 3.1505 13.8989 2.54668 13.2951C1.94285 12.6913 1.93673 11.7142 2.53294 11.1028L5.85094 7.78783C6.45922 7.18217 7.44266 7.18217 8.05094 7.78783C8.46104 8.17389 9.10084 8.17389 9.51094 7.78783C9.70538 7.59466 9.81472 7.33191 9.81472 7.05783C9.81472 6.78375 9.70538 6.52099 9.51094 6.32783L9.51294 6.32683Z" />
    <path d="M14.5247 1.31486C13.8425 0.632573 12.9171 0.249268 11.9522 0.249268C10.9874 0.249268 10.062 0.632573 9.37974 1.31486L6.65374 4.03786C6.57949 4.11335 6.5582 4.22622 6.59986 4.32357C6.64152 4.42092 6.73786 4.48345 6.84374 4.48186H6.94374C7.51297 4.48092 8.07689 4.59132 8.60374 4.80686C8.70093 4.84678 8.81259 4.82429 8.88674 4.74986L10.8437 2.79586C11.4551 2.19964 12.4322 2.20576 13.036 2.80959C13.6398 3.41342 13.646 4.39051 13.0497 5.00186L10.6127 7.43686L10.5917 7.45986L9.73974 8.30686C9.13146 8.91252 8.14802 8.91252 7.53974 8.30686C7.12964 7.92079 6.48984 7.92079 6.07974 8.30686C5.67524 8.71143 5.67524 9.36729 6.07974 9.77186C6.38034 10.074 6.73212 10.3205 7.11874 10.4999C7.17374 10.5259 7.22774 10.5469 7.28274 10.5699C7.33774 10.5929 7.39474 10.6119 7.44874 10.6319C7.50274 10.6519 7.56074 10.6709 7.61474 10.6869L7.76774 10.7289C7.86774 10.7549 7.97574 10.7759 8.08174 10.7939C8.21 10.8128 8.33919 10.8248 8.46874 10.8299H8.66874L8.82474 10.8119C8.88174 10.8119 8.94174 10.7959 9.00974 10.7959H9.09774L9.27674 10.7699L9.35974 10.7539L9.51074 10.7229H9.53974C10.1779 10.5626 10.7606 10.2322 11.2257 9.76686L14.5337 6.45886C15.9514 5.03575 15.9474 2.733 14.5247 1.31486Z" />
</svg>
