<svg width="19" height="18" viewBox="0 0 19 18" fill="none" xmlns="http://www.w3.org/2000/svg">
<g id="Group">
<g id="Group_2">
<g id="Group_3">
<path id="Vector" d="M8.99851 3.75014C8.54853 3.75014 8.24854 3.45015 8.24854 3.00016V0.750223C8.24854 0.300236 8.54853 0.000244141 8.99851 0.000244141C9.4485 0.000244141 9.74849 0.300236 9.74849 0.750223V3.00016C9.74849 3.45015 9.4485 3.75014 8.99851 3.75014Z" fill="#FF3937" fill-opacity="0.4"/>
</g>
</g>
<g id="Group_4">
<g id="Group_5">
<path id="Vector_2" d="M8.99851 17.9998C8.54853 17.9998 8.24854 17.6998 8.24854 17.2498V14.9999C8.24854 14.5499 8.54853 14.2499 8.99851 14.2499C9.4485 14.2499 9.74849 14.5499 9.74849 14.9999V17.2498C9.74849 17.6998 9.4485 17.9998 8.99851 17.9998Z" fill="#FF3937"/>
</g>
</g>
<g id="Group_6">
<g id="Group_7">
<path id="Vector_3" d="M3.00333 9.75032H0.753397C0.303409 9.75032 0.00341797 9.45033 0.00341797 9.00034C0.00341797 8.55036 0.303409 8.25037 0.753397 8.25037H3.00333C3.45332 8.25037 3.75331 8.55036 3.75331 9.00034C3.75331 9.45033 3.45332 9.75032 3.00333 9.75032Z" fill="#FF3937" fill-opacity="0.1"/>
</g>
</g>
<g id="Group_8">
<g id="Group_9">
<path id="Vector_4" d="M17.2568 9.7502H15.0068C14.5568 9.7502 14.2568 9.45021 14.2568 9.00022C14.2568 8.55024 14.5568 8.25024 15.0068 8.25024H17.2568C17.7067 8.25024 18.0067 8.55024 18.0067 9.00022C18.0067 9.45021 17.7067 9.7502 17.2568 9.7502Z" fill="#FF3937" fill-opacity="0.7"/>
</g>
</g>
<g id="Group_10">
<g id="Group_11">
<path id="Vector_5" d="M14.1779 6.75024C13.9529 6.75024 13.6529 6.60025 13.5029 6.37525C13.2779 6.00027 13.4279 5.55028 13.8029 5.32528L15.7529 4.20032C16.1279 3.97532 16.5778 4.12532 16.8028 4.50031C17.0278 4.8753 16.8778 5.32528 16.5028 5.55028L14.5529 6.67525C14.4779 6.75024 14.3279 6.75024 14.1779 6.75024Z" fill="#FF3937" fill-opacity="0.6"/>
</g>
</g>
<g id="Group_12">
<g id="Group_13">
<path id="Vector_6" d="M1.87811 13.8746C1.65311 13.8746 1.35312 13.7246 1.20312 13.4996C0.978131 13.1247 1.12813 12.6747 1.50312 12.4497L3.45306 11.3247C3.82805 11.0997 4.27804 11.2497 4.50303 11.6247C4.72802 11.9997 4.57803 12.4497 4.20304 12.6747L2.25309 13.7996C2.1031 13.8746 1.9531 13.8746 1.87811 13.8746Z" fill="#FF3937" fill-opacity="0.05"/>
</g>
</g>
<g id="Group_14">
<g id="Group_15">
<path id="Vector_7" d="M12.0047 4.57465C11.8547 4.57465 11.7797 4.57465 11.6297 4.49965C11.2548 4.27466 11.1798 3.82467 11.3298 3.44968L12.4547 1.49974C12.6797 1.12475 13.1297 1.04975 13.5047 1.19975C13.8797 1.42474 13.9547 1.87473 13.8047 2.24972L12.6797 4.19966C12.5297 4.42466 12.2297 4.57465 12.0047 4.57465Z" fill="#FF3937" fill-opacity="0.5"/>
</g>
</g>
<g id="Group_16">
<g id="Group_17">
<path id="Vector_8" d="M4.88218 16.8748C4.73218 16.8748 4.65718 16.8748 4.50719 16.7998C4.1322 16.5748 4.0572 16.1248 4.20719 15.7498L5.33216 13.7999C5.55716 13.4999 6.00714 13.3499 6.38213 13.5749C6.75712 13.7999 6.83212 14.2499 6.68212 14.6249L5.55716 16.4998C5.40716 16.7248 5.10717 16.8748 4.88218 16.8748Z" fill="#FF3937" fill-opacity="0.02"/>
</g>
</g>
<g id="Group_18">
<g id="Group_19">
<path id="Vector_9" d="M3.82805 6.75029C3.67805 6.75029 3.52806 6.75029 3.45306 6.67529L1.50312 5.55032C1.12813 5.32533 0.978131 4.87534 1.20312 4.50035C1.42812 4.12536 1.87811 4.05036 2.25309 4.20036L4.20304 5.32533C4.57803 5.55032 4.65303 6.00031 4.42803 6.3753C4.35303 6.60029 4.05304 6.75029 3.82805 6.75029Z" fill="#FF3937" fill-opacity="0.2"/>
</g>
</g>
<g id="Group_20">
<g id="Group_21">
<path id="Vector_10" d="M16.1297 13.8742C15.9797 13.8742 15.9047 13.8742 15.7547 13.7992L13.8048 12.6742C13.4298 12.4492 13.3548 11.9992 13.5048 11.6243C13.7298 11.2493 14.1798 11.1743 14.5548 11.3243L16.5047 12.4492C16.8797 12.6742 16.9547 13.1242 16.8047 13.4992C16.6547 13.7242 16.4297 13.8742 16.1297 13.8742Z" fill="#FF3937" fill-opacity="0.8"/>
</g>
</g>
<g id="Group_22">
<g id="Group_23">
<path id="Vector_11" d="M6.00714 4.57583C5.78215 4.57583 5.48216 4.42583 5.33216 4.20084L4.20719 2.2509C4.0572 1.87591 4.1322 1.42592 4.50719 1.20093C4.88218 0.975934 5.33216 1.12593 5.55716 1.50092L6.68212 3.45086C6.83212 3.82585 6.75712 4.27584 6.38213 4.42583C6.23214 4.50083 6.15714 4.57583 6.00714 4.57583Z" fill="#FF3937" fill-opacity="0.3"/>
</g>
</g>
<g id="Group_24">
<g id="Group_25">
<path id="Vector_12" d="M13.1278 16.8751C12.9028 16.8751 12.6028 16.7252 12.4528 16.5002L11.3279 14.5502C11.1029 14.1752 11.2529 13.7252 11.6279 13.5002C12.0029 13.2753 12.4528 13.4252 12.6778 13.8002L13.8028 15.7502C14.0278 16.1252 13.8778 16.5752 13.5028 16.8001C13.3528 16.8751 13.2778 16.8751 13.1278 16.8751Z" fill="#FF3937" fill-opacity="0.9"/>
</g>
</g>
</g>
</svg>
