<svg width="19" height="18" viewBox="0 0 19 18" fill="none" xmlns="http://www.w3.org/2000/svg">
<g id="Group">
<g id="Group_2">
<g id="Group_3">
<path id="Vector" d="M8.9951 3.75014C8.54511 3.75014 8.24512 3.45015 8.24512 3.00016V0.750223C8.24512 0.300236 8.54511 0.000244141 8.9951 0.000244141C9.44508 0.000244141 9.74507 0.300236 9.74507 0.750223V3.00016C9.74507 3.45015 9.44508 3.75014 8.9951 3.75014Z" fill="white" fill-opacity="0.4"/>
</g>
</g>
<g id="Group_4">
<g id="Group_5">
<path id="Vector_2" d="M8.9951 17.9998C8.54511 17.9998 8.24512 17.6998 8.24512 17.2498V14.9999C8.24512 14.5499 8.54511 14.2499 8.9951 14.2499C9.44508 14.2499 9.74507 14.5499 9.74507 14.9999V17.2498C9.74507 17.6998 9.44508 17.9998 8.9951 17.9998Z" fill="white"/>
</g>
</g>
<g id="Group_6">
<g id="Group_7">
<path id="Vector_3" d="M2.99991 9.75032H0.749979C0.299991 9.75032 0 9.45033 0 9.00034C0 8.55036 0.299991 8.25037 0.749979 8.25037H2.99991C3.4499 8.25037 3.74989 8.55036 3.74989 9.00034C3.74989 9.45033 3.4499 9.75032 2.99991 9.75032Z" fill="white" fill-opacity="0.1"/>
</g>
</g>
<g id="Group_8">
<g id="Group_9">
<path id="Vector_4" d="M17.2533 9.7502H15.0034C14.5534 9.7502 14.2534 9.45021 14.2534 9.00022C14.2534 8.55024 14.5534 8.25024 15.0034 8.25024H17.2533C17.7033 8.25024 18.0033 8.55024 18.0033 9.00022C18.0033 9.45021 17.7033 9.7502 17.2533 9.7502Z" fill="white" fill-opacity="0.7"/>
</g>
</g>
<g id="Group_10">
<g id="Group_11">
<path id="Vector_5" d="M14.1745 6.75024C13.9495 6.75024 13.6495 6.60025 13.4995 6.37525C13.2745 6.00027 13.4245 5.55028 13.7995 5.32528L15.7494 4.20032C16.1244 3.97532 16.5744 4.12532 16.7994 4.50031C17.0244 4.8753 16.8744 5.32528 16.4994 5.55028L14.5495 6.67525C14.4745 6.75024 14.3245 6.75024 14.1745 6.75024Z" fill="white" fill-opacity="0.6"/>
</g>
</g>
<g id="Group_12">
<g id="Group_13">
<path id="Vector_6" d="M1.87469 13.8746C1.64969 13.8746 1.3497 13.7246 1.19971 13.4996C0.974713 13.1247 1.12471 12.6747 1.4997 12.4497L3.44964 11.3247C3.82463 11.0997 4.27462 11.2497 4.49961 11.6247C4.72461 11.9997 4.57461 12.4497 4.19962 12.6747L2.24968 13.7996C2.09968 13.8746 1.94969 13.8746 1.87469 13.8746Z" fill="white" fill-opacity="0.05"/>
</g>
</g>
<g id="Group_14">
<g id="Group_15">
<path id="Vector_7" d="M12.0013 4.57465C11.8513 4.57465 11.7763 4.57465 11.6263 4.49965C11.2513 4.27466 11.1763 3.82467 11.3263 3.44968L12.4513 1.49974C12.6763 1.12475 13.1263 1.04975 13.5013 1.19975C13.8763 1.42474 13.9513 1.87473 13.8013 2.24972L12.6763 4.19966C12.5263 4.42466 12.2263 4.57465 12.0013 4.57465Z" fill="white" fill-opacity="0.5"/>
</g>
</g>
<g id="Group_16">
<g id="Group_17">
<path id="Vector_8" d="M4.87876 16.8748C4.72876 16.8748 4.65376 16.8748 4.50377 16.7998C4.12878 16.5748 4.05378 16.1248 4.20378 15.7498L5.32874 13.7999C5.55374 13.4999 6.00373 13.3499 6.37871 13.5749C6.7537 13.7999 6.8287 14.2499 6.67871 14.6249L5.55374 16.4998C5.40374 16.7248 5.10375 16.8748 4.87876 16.8748Z" fill="white" fill-opacity="0.02"/>
</g>
</g>
<g id="Group_18">
<g id="Group_19">
<path id="Vector_9" d="M3.82463 6.75029C3.67464 6.75029 3.52464 6.75029 3.44964 6.67529L1.4997 5.55032C1.12471 5.32533 0.974713 4.87534 1.19971 4.50035C1.4247 4.12536 1.87469 4.05036 2.24968 4.20036L4.19962 5.32533C4.57461 5.55032 4.64961 6.00031 4.42461 6.3753C4.34962 6.60029 4.04963 6.75029 3.82463 6.75029Z" fill="white" fill-opacity="0.2"/>
</g>
</g>
<g id="Group_20">
<g id="Group_21">
<path id="Vector_10" d="M16.1263 13.8742C15.9763 13.8742 15.9013 13.8742 15.7513 13.7992L13.8014 12.6742C13.4264 12.4492 13.3514 11.9992 13.5014 11.6243C13.7264 11.2493 14.1764 11.1743 14.5514 11.3243L16.5013 12.4492C16.8763 12.6742 16.9513 13.1242 16.8013 13.4992C16.6513 13.7242 16.4263 13.8742 16.1263 13.8742Z" fill="white" fill-opacity="0.8"/>
</g>
</g>
<g id="Group_22">
<g id="Group_23">
<path id="Vector_11" d="M6.00373 4.57583C5.77873 4.57583 5.47874 4.42583 5.32874 4.20084L4.20378 2.2509C4.05378 1.87591 4.12878 1.42592 4.50377 1.20093C4.87876 0.975934 5.32874 1.12593 5.55374 1.50092L6.67871 3.45086C6.8287 3.82585 6.7537 4.27584 6.37871 4.42583C6.22872 4.50083 6.15372 4.57583 6.00373 4.57583Z" fill="white" fill-opacity="0.3"/>
</g>
</g>
<g id="Group_24">
<g id="Group_25">
<path id="Vector_12" d="M13.1244 16.8751C12.8994 16.8751 12.5994 16.7252 12.4494 16.5002L11.3245 14.5502C11.0995 14.1752 11.2495 13.7252 11.6245 13.5002C11.9994 13.2753 12.4494 13.4252 12.6744 13.8002L13.7994 15.7502C14.0244 16.1252 13.8744 16.5752 13.4994 16.8001C13.3494 16.8751 13.2744 16.8751 13.1244 16.8751Z" fill="white" fill-opacity="0.9"/>
</g>
</g>
</g>
</svg>
