<svg width="192" height="192" viewBox="0 0 192 192" fill="none" xmlns="http://www.w3.org/2000/svg">
    <path fill-rule="evenodd" clip-rule="evenodd" d="M106.014 52.8C106.52 66.3192 106.52 79.7592 106.014 93.12C105.859 79.597 105.859 66.157 106.014 52.8Z" fill="#C9E5C5"/>
    <path fill-rule="evenodd" clip-rule="evenodd" d="M106.014 93.12C106.52 79.7592 106.52 66.3192 106.014 52.8C107.163 52.1693 108.362 52.1693 109.611 52.8C110.979 72.0931 112.498 91.3733 114.169 110.64C114.003 112.985 113.283 115.145 112.01 117.12C109.116 119.855 106.398 122.735 103.855 125.76C102.788 127.575 101.989 129.495 101.457 131.52C101.447 151.682 101.687 171.842 102.176 192C98.0186 192 93.8615 192 89.7039 192C90.2513 172.161 90.6509 152.321 90.9032 132.48C90.306 129.685 89.1868 127.126 87.5453 124.8C84.8115 122.225 82.2528 119.505 79.8701 116.64C78.467 114.451 77.9076 112.051 78.1911 109.44C79.8149 90.4114 81.254 71.3717 82.5084 52.32C83.7648 52.1914 84.964 52.3512 86.1062 52.8C86.0098 66.2366 85.9297 79.6766 85.8663 93.12C86.8257 93.12 87.7851 93.12 88.7445 93.12C89.2003 79.5254 89.68 65.9256 90.1836 52.32C91.44 52.1914 92.6392 52.3512 93.7814 52.8C93.8903 66.2467 94.1301 79.6867 94.5009 93.12C95.4603 93.12 96.4197 93.12 97.3791 93.12C97.8948 79.5278 98.2148 65.928 98.3385 52.32C99.5949 52.1914 100.794 52.3512 101.936 52.8C102.26 66.2434 102.66 79.6834 103.136 93.12C104.095 93.12 105.054 93.12 106.014 93.12Z" fill="#FDFEFD"/>
    <path fill-rule="evenodd" clip-rule="evenodd" d="M93.0618 0C94.8208 0 96.5794 0 98.3385 0C101.289 0.500857 104.327 0.820858 107.453 0.96C116.354 1.99003 124.988 4.15003 133.357 7.44C167.953 23.5942 187.461 50.7139 191.88 88.8C193.384 123.338 180.752 151.418 153.984 173.04C139.503 183.761 123.354 190.08 105.534 192C104.415 192 103.295 192 102.176 192C101.687 171.842 101.447 151.682 101.457 131.52C101.988 129.495 102.788 127.575 103.855 125.76C106.398 122.735 109.116 119.855 112.01 117.12C113.283 115.145 114.003 112.985 114.169 110.64C112.498 91.3733 110.979 72.0931 109.611 52.8C108.362 52.1693 107.163 52.1693 106.014 52.8C105.859 66.157 105.859 79.597 106.014 93.12C105.054 93.12 104.095 93.12 103.135 93.12C102.66 79.6834 102.26 66.2434 101.936 52.8C100.794 52.3512 99.5948 52.1914 98.3385 52.32C98.2147 65.928 97.8947 79.5278 97.3791 93.12C96.4197 93.12 95.4603 93.12 94.5009 93.12C94.1301 79.6867 93.8902 66.2467 93.7813 52.8C92.6391 52.3512 91.4399 52.1914 90.1836 52.32C89.6799 65.9256 89.2002 79.5254 88.7445 93.12C87.7851 93.12 86.8257 93.12 85.8663 93.12C85.9296 79.6766 86.0097 66.2366 86.1061 52.8C84.964 52.3512 83.7647 52.1914 82.5084 52.32C81.254 71.3717 79.8149 90.4114 78.1911 109.44C77.9076 112.051 78.4669 114.451 79.87 116.64C82.2527 119.505 84.8114 122.225 87.5452 124.8C89.1867 127.126 90.3059 129.685 90.9031 132.48C90.6508 152.321 90.2512 172.161 89.7039 192C88.5847 192 87.4651 192 86.346 192C46.2058 186.158 18.9429 164.238 4.55715 126.24C2.0956 118.026 0.576554 109.706 0 101.28C0 97.92 0 94.56 0 91.2C0.776975 79.9978 3.25542 69.1181 7.43535 58.56C24.6641 22.3868 53.2064 2.8668 93.0618 0Z" fill="#96CC00"/>
</svg>
