<svg width="18" height="17" viewBox="0 0 18 17" xmlns="http://www.w3.org/2000/svg">
    <path fill-rule="evenodd" clip-rule="evenodd" d="M17.9 6.62694V14.8089C17.9 15.8594 17.0505 16.7121 16 16.7159H1.907C1.40123 16.7159 0.916179 16.515 0.558547 16.1574C0.200916 15.7998 0 15.3147 0 14.8089V6.62694C0 5.57373 0.853793 4.71994 1.907 4.71994H3.32V2.16394C3.3211 1.47127 3.88234 0.910037 4.575 0.908936H13.158C13.8507 0.910037 14.4119 1.47127 14.413 2.16394V4.71994H16C17.0505 4.72379 17.9 5.57646 17.9 6.62694ZM5.128 3.16494C5.128 2.91365 5.33171 2.70994 5.583 2.70994H11.976C12.2273 2.70994 12.431 2.91365 12.431 3.16494C12.431 3.41623 12.2273 3.61994 11.976 3.61994H5.583C5.33171 3.61994 5.128 3.41623 5.128 3.16494ZM10.811 10.8279L16.525 14.5459L16.531 14.5489C16.6673 14.6383 16.7456 14.7935 16.7364 14.9562C16.7272 15.1189 16.6319 15.2643 16.4864 15.3377C16.3409 15.4111 16.1673 15.4013 16.031 15.3119L10.013 11.3949L9.713 11.6079C9.25983 11.9257 8.65617 11.9257 8.203 11.6079L7.947 11.4279L7.931 11.4409L1.9 15.3659C1.7637 15.4553 1.59011 15.4651 1.44461 15.3917C1.29911 15.3183 1.20381 15.1729 1.19461 15.0102C1.18541 14.8475 1.2637 14.6923 1.4 14.6029L7.142 10.8649L1.385 6.82194C1.25192 6.72851 1.17879 6.57118 1.19316 6.40922C1.20752 6.24726 1.30721 6.10526 1.45466 6.03672C1.6021 5.96818 1.77492 5.98351 1.908 6.07694L4.231 7.70394V6.06494V2.16494C4.231 1.9744 4.38546 1.81994 4.576 1.81994H13.155C13.3455 1.81994 13.5 1.9744 13.5 2.16494V7.81494L16.014 6.04494C16.2194 5.89996 16.5035 5.94899 16.6485 6.15444C16.7935 6.35989 16.7444 6.64396 16.539 6.78894L10.811 10.8279ZM5.583 5.65494H11.976C12.2273 5.65494 12.431 5.45122 12.431 5.19994C12.431 4.94865 12.2273 4.74494 11.976 4.74494H5.583C5.33171 4.74494 5.128 4.94865 5.128 5.19994C5.128 5.45122 5.33171 5.65494 5.583 5.65494ZM11.976 7.69094H5.583C5.33171 7.69094 5.128 7.48723 5.128 7.23594C5.128 6.98465 5.33171 6.78094 5.583 6.78094H11.976C12.2273 6.78094 12.431 6.98465 12.431 7.23594C12.431 7.48723 12.2273 7.69094 11.976 7.69094Z" />
</svg>
