<svg width="20" height="19" viewBox="0 0 20 19" fill="none" xmlns="http://www.w3.org/2000/svg">
    <path fill-rule="evenodd" clip-rule="evenodd" d="M14.2502 17.5955C17.4649 16.0539 19.5077 12.8022 19.5011 9.23702C19.4953 5.53648 17.2848 2.19541 13.8812 0.742897C10.4777 -0.709618 6.53598 0.00591135 3.86009 2.56202L2.01509 0.715018C1.84333 0.547404 1.58821 0.498267 1.36648 0.590093C1.14474 0.68192 0.999061 0.897042 0.996094 1.13702V6.56202C0.996094 6.89339 1.26472 7.16202 1.59609 7.16202H7.01509C7.25507 7.15905 7.47019 7.01337 7.56202 6.79164C7.65385 6.5699 7.60471 6.31478 7.43709 6.14302L5.54809 4.24902C8.2163 1.7439 12.3807 1.77289 15.0138 4.3149C17.6469 6.85692 17.8223 11.0177 15.4126 13.7724C13.0029 16.5271 8.85574 16.9066 5.98609 14.635C5.62763 14.3557 5.11719 14.3875 4.79609 14.709L4.37609 15.129C4.19826 15.309 4.10442 15.5556 4.11755 15.8082C4.13068 16.0609 4.24957 16.2964 4.44509 16.457C7.22103 18.6942 11.0355 19.1371 14.2502 17.5955ZM13.1191 11.705L12.7531 12.176L12.7401 12.174C12.4352 12.5617 11.8751 12.6317 11.4841 12.331L9.04409 10.431V5.37102C9.04409 4.87396 9.44704 4.47102 9.94409 4.47102H10.5441C11.0412 4.47102 11.4441 4.87396 11.4441 5.37102V9.26302L12.9621 10.449C13.3497 10.7539 13.4197 11.3141 13.1191 11.705Z" fill="#3F3D56"/>
</svg>
