<svg width="24" height="23" viewBox="0 0 24 23" xmlns="http://www.w3.org/2000/svg">
    <path d="M20.6424 0.117188H3.35758C2.4671 0.117188 1.61308 0.454276 0.983413 1.0543C0.353744 1.65432 0 2.46813 0 3.31669V19.8005C0.00248082 20.6483 0.357022 21.4608 0.986154 22.0603C1.61529 22.6598 2.46786 22.9976 3.35758 23H20.6424C21.5321 22.9976 22.3847 22.6598 23.0138 22.0603C23.643 21.4608 23.9975 20.6483 24 19.8005V3.31669C24 2.89652 23.9132 2.48047 23.7444 2.09229C23.5757 1.70411 23.3284 1.3514 23.0166 1.0543C22.7048 0.757198 22.3347 0.521525 21.9273 0.360735C21.5199 0.199945 21.0833 0.117188 20.6424 0.117188ZM1.34303 3.31669C1.34303 2.80755 1.55528 2.31927 1.93308 1.95925C2.31088 1.59924 2.82329 1.39699 3.35758 1.39699H20.6424C21.1767 1.39699 21.6891 1.59924 22.0669 1.95925C22.4447 2.31927 22.657 2.80755 22.657 3.31669V14.3997L17.446 9.43413C17.0667 9.07742 16.5553 8.87742 16.0224 8.87742C15.4895 8.87742 14.978 9.07742 14.5988 9.43413L8.47454 15.2828C8.34627 15.4 8.17545 15.4654 7.99776 15.4654C7.82007 15.4654 7.64926 15.4 7.52099 15.2828L6.76889 14.5661C6.38745 14.2134 5.87681 14.0161 5.34527 14.0161C4.81373 14.0161 4.30309 14.2134 3.92166 14.5661L1.34303 17.0233V3.31669ZM22.657 19.8005C22.657 20.3096 22.4447 20.7979 22.0669 21.1579C21.6891 21.5179 21.1767 21.7202 20.6424 21.7202H3.35758C2.82329 21.7202 2.31088 21.5179 1.93308 21.1579C1.55528 20.7979 1.34303 20.3096 1.34303 19.8005V18.8407L4.88192 15.4748C5.00808 15.3589 5.17677 15.2946 5.35199 15.2956C5.53121 15.2945 5.70414 15.3586 5.83548 15.4748L6.57415 16.1915C6.95342 16.5482 7.46487 16.7482 7.99776 16.7482C8.53065 16.7482 9.0421 16.5482 9.42138 16.1915L15.559 10.3428C15.6215 10.2828 15.6957 10.2352 15.7776 10.2027C15.8594 10.1702 15.9472 10.1535 16.0358 10.1535C16.1245 10.1535 16.2122 10.1702 16.2941 10.2027C16.3759 10.2352 16.4502 10.2828 16.5126 10.3428L22.6637 16.2043L22.657 19.8005Z"/>
    <path d="M6.71159 9.72224C6.04752 9.72224 5.39837 9.53459 4.84621 9.18303C4.29406 8.83146 3.86371 8.33177 3.60959 7.74714C3.35546 7.16251 3.28897 6.51919 3.41852 5.89855C3.54807 5.27791 3.86785 4.70781 4.33742 4.26036C4.80698 3.8129 5.40525 3.50817 6.05656 3.38472C6.70786 3.26127 7.38296 3.32463 7.99648 3.56679C8.61 3.80895 9.13438 4.21904 9.50332 4.7452C9.87225 5.27135 10.0692 5.88994 10.0692 6.52274C10.0692 7.3713 9.71543 8.18511 9.08576 8.78513C8.45609 9.38515 7.60207 9.72224 6.71159 9.72224ZM6.71159 4.60304C6.31315 4.60304 5.92366 4.71563 5.59236 4.92657C5.26107 5.13751 5.00286 5.43733 4.85039 5.78811C4.69791 6.13888 4.65802 6.52487 4.73575 6.89726C4.81348 7.26964 5.00535 7.6117 5.28709 7.88017C5.56883 8.14865 5.92778 8.33148 6.31857 8.40555C6.70935 8.47963 7.11441 8.44161 7.48252 8.29631C7.85063 8.15102 8.16526 7.90496 8.38662 7.58927C8.60799 7.27358 8.72614 6.90242 8.72614 6.52274C8.72614 6.01361 8.51389 5.52532 8.13609 5.16531C7.75829 4.8053 7.24588 4.60304 6.71159 4.60304Z"/>
</svg>