<svg width="17" height="19" viewBox="0 0 17 19" fill="none" xmlns="http://www.w3.org/2000/svg">
<path d="M16.3331 15.0254C15.9066 14.015 15.2878 13.0972 14.511 12.3231C13.7366 11.5468 12.8192 10.9279 11.8096 10.5005C11.8005 10.496 11.7915 10.4937 11.7824 10.4892C13.1908 9.47162 14.1063 7.81408 14.1063 5.94398C14.1063 2.84599 11.5971 0.335938 8.5 0.335938C5.40295 0.335938 2.89365 2.84599 2.89365 5.94398C2.89365 7.81408 3.80921 9.47162 5.21758 10.4915C5.20853 10.496 5.19949 10.4982 5.19045 10.5028C4.17769 10.9302 3.26892 11.543 2.489 12.3254C1.71295 13.1 1.09421 14.0177 0.66694 15.0276C0.247193 16.0164 0.0208134 17.0765 5.65291e-05 18.1505C-0.000546843 18.1746 0.00368511 18.1987 0.0125031 18.2211C0.0213212 18.2436 0.0345468 18.2641 0.0514007 18.2814C0.0682546 18.2986 0.0883959 18.3124 0.110638 18.3217C0.132879 18.3311 0.156772 18.3359 0.180906 18.3359H1.53728C1.63675 18.3359 1.71587 18.2568 1.71813 18.1596C1.76334 16.4138 2.46414 14.7789 3.70296 13.5397C4.98473 12.2575 6.68698 11.552 8.5 11.552C10.313 11.552 12.0153 12.2575 13.297 13.5397C14.5359 14.7789 15.2367 16.4138 15.2819 18.1596C15.2841 18.2591 15.3633 18.3359 15.4627 18.3359H16.8191C16.8432 18.3359 16.8671 18.3311 16.8894 18.3217C16.9116 18.3124 16.9317 18.2986 16.9486 18.2814C16.9655 18.2641 16.9787 18.2436 16.9875 18.2211C16.9963 18.1987 17.0005 18.1746 16.9999 18.1505C16.9773 17.0696 16.7535 16.0181 16.3331 15.0254ZM8.5 9.83342C7.46237 9.83342 6.48578 9.42865 5.75108 8.69373C5.01638 7.9588 4.61173 6.98192 4.61173 5.94398C4.61173 4.90604 5.01638 3.92915 5.75108 3.19423C6.48578 2.4593 7.46237 2.05453 8.5 2.05453C9.53763 2.05453 10.5142 2.4593 11.2489 3.19423C11.9836 3.92915 12.3883 4.90604 12.3883 5.94398C12.3883 6.98192 11.9836 7.9588 11.2489 8.69373C10.5142 9.42865 9.53763 9.83342 8.5 9.83342Z"/>
</svg>
