<svg width="31" height="31" viewBox="0 0 31 31" fill="currentcolor" xmlns="http://www.w3.org/2000/svg">
    <path d="M13.7812 0.5H1.75C1.05859 0.5 0.5 1.05859 0.5 1.75V13.7812C0.5 13.9531 0.640625 14.0938 0.8125 14.0938H13.7812C13.9531 14.0938 14.0938 13.9531 14.0938 13.7812V0.8125C14.0938 0.640625 13.9531 0.5 13.7812 0.5ZM11.5938 11.5938H3V3H11.5938V11.5938ZM6.20312 8.70312H8.39062C8.5625 8.70312 8.70312 8.5625 8.70312 8.39062V6.20312C8.70312 6.03125 8.5625 5.89062 8.39062 5.89062H6.20312C6.03125 5.89062 5.89062 6.03125 5.89062 6.20312V8.39062C5.89062 8.5625 6.03125 8.70312 6.20312 8.70312ZM13.7812 16.9062H0.8125C0.640625 16.9062 0.5 17.0469 0.5 17.2188V29.25C0.5 29.9414 1.05859 30.5 1.75 30.5H13.7812C13.9531 30.5 14.0938 30.3594 14.0938 30.1875V17.2188C14.0938 17.0469 13.9531 16.9062 13.7812 16.9062ZM11.5938 28H3V19.4062H11.5938V28ZM6.20312 25.1094H8.39062C8.5625 25.1094 8.70312 24.9688 8.70312 24.7969V22.6094C8.70312 22.4375 8.5625 22.2969 8.39062 22.2969H6.20312C6.03125 22.2969 5.89062 22.4375 5.89062 22.6094V24.7969C5.89062 24.9688 6.03125 25.1094 6.20312 25.1094ZM29.25 0.5H17.2188C17.0469 0.5 16.9062 0.640625 16.9062 0.8125V13.7812C16.9062 13.9531 17.0469 14.0938 17.2188 14.0938H30.1875C30.3594 14.0938 30.5 13.9531 30.5 13.7812V1.75C30.5 1.05859 29.9414 0.5 29.25 0.5ZM28 11.5938H19.4062V3H28V11.5938ZM22.6094 8.70312H24.7969C24.9688 8.70312 25.1094 8.5625 25.1094 8.39062V6.20312C25.1094 6.03125 24.9688 5.89062 24.7969 5.89062H22.6094C22.4375 5.89062 22.2969 6.03125 22.2969 6.20312V8.39062C22.2969 8.5625 22.4375 8.70312 22.6094 8.70312ZM30.1875 16.9062H28.3125C28.1406 16.9062 28 17.0469 28 17.2188V22.4531H24.9531V17.2188C24.9531 17.0469 24.8125 16.9062 24.6406 16.9062H17.2188C17.0469 16.9062 16.9062 17.0469 16.9062 17.2188V30.1875C16.9062 30.3594 17.0469 30.5 17.2188 30.5H19.0938C19.2656 30.5 19.4062 30.3594 19.4062 30.1875V20.6562H22.4531V24.6406C22.4531 24.8125 22.5937 24.9531 22.7656 24.9531H30.1875C30.3594 24.9531 30.5 24.8125 30.5 24.6406V17.2188C30.5 17.0469 30.3594 16.9062 30.1875 16.9062ZM24.6406 28H22.7656C22.5937 28 22.4531 28.1406 22.4531 28.3125V30.1875C22.4531 30.3594 22.5937 30.5 22.7656 30.5H24.6406C24.8125 30.5 24.9531 30.3594 24.9531 30.1875V28.3125C24.9531 28.1406 24.8125 28 24.6406 28ZM30.1875 28H28.3125C28.1406 28 28 28.1406 28 28.3125V30.1875C28 30.3594 28.1406 30.5 28.3125 30.5H30.1875C30.3594 30.5 30.5 30.3594 30.5 30.1875V28.3125C30.5 28.1406 30.3594 28 30.1875 28Z" />
</svg>
