<svg width="10" height="10" viewBox="0 0 10 10" fill="none" xmlns="http://www.w3.org/2000/svg">
<path d="M4.293 0.320031L3.119 2.70103L0.493005 3.08403C0.276884 3.11636 0.0976678 3.2682 0.0302828 3.47608C-0.0371022 3.68395 0.0189497 3.91206 0.175005 4.06503L2.075 5.91703L1.625 8.53203C1.58816 8.74764 1.67683 8.96548 1.85379 9.09406C2.03074 9.22264 2.26532 9.23968 2.459 9.13803L4.809 7.90103L7.159 9.13803C7.35269 9.23968 7.58727 9.22264 7.76422 9.09406C7.94118 8.96548 8.02985 8.74764 7.993 8.53203L7.543 5.91603L9.443 4.06403C9.59906 3.91106 9.65511 3.68295 9.58773 3.47508C9.52034 3.2672 9.34113 3.11536 9.125 3.08303L6.499 2.70103L5.325 0.320031C5.22776 0.123998 5.02783 0 4.809 0C4.59018 0 4.39025 0.123998 4.293 0.320031Z" fill="white"/>
</svg>
