<svg xmlns="http://www.w3.org/2000/svg" xmlns:xlink="http://www.w3.org/1999/xlink" version="1.1" width="256" height="256" viewBox="0 0 256 256" xml:space="preserve">
<defs>
</defs>
<g style="stroke: none; stroke-width: 0; stroke-dasharray: none; stroke-linecap: butt; stroke-linejoin: miter; stroke-miterlimit: 10; fill: none; fill-rule: nonzero; opacity: 1;" transform="translate(1.4065934065934016 1.4065934065934016) scale(2.81 2.81)" >
	<path d="M 58.506 39.939 c -2.231 0 -4.329 -0.869 -5.907 -2.447 c -3.257 -3.258 -3.257 -8.557 0 -11.815 v 0 c 3.259 -3.257 8.559 -3.255 11.814 0 c 1.578 1.577 2.448 3.675 2.448 5.907 s -0.869 4.33 -2.448 5.908 C 62.836 39.07 60.738 39.939 58.506 39.939 z M 55.428 28.507 c -1.697 1.698 -1.697 4.46 0 6.157 c 0.822 0.822 1.916 1.275 3.079 1.275 c 1.163 0 2.256 -0.453 3.079 -1.275 c 0.822 -0.822 1.276 -1.916 1.276 -3.079 c 0 -1.163 -0.453 -2.256 -1.276 -3.078 C 59.888 26.81 57.126 26.81 55.428 28.507 z" style="stroke: none; stroke-width: 1; stroke-dasharray: none; stroke-linecap: butt; stroke-linejoin: miter; stroke-miterlimit: 10; fill: rgb(0,0,0); fill-rule: nonzero; opacity: 1;" transform=" matrix(1 0 0 1 0 0) " stroke-linecap="round" />
	<path d="M 89.995 7.163 c 0.001 -0.083 0.001 -0.165 0.001 -0.248 c 0 -0.427 -0.003 -0.854 -0.012 -1.285 c -0.006 -0.267 -0.016 -0.534 -0.026 -0.802 c -0.011 -0.299 -0.02 -0.597 -0.036 -0.897 c -0.031 -0.602 -0.07 -1.207 -0.121 -1.814 c -0.081 -0.973 -0.854 -1.745 -1.827 -1.827 c -0.607 -0.051 -1.21 -0.089 -1.811 -0.121 c -0.305 -0.016 -0.607 -0.025 -0.909 -0.036 c -0.262 -0.009 -0.525 -0.02 -0.787 -0.025 c -0.437 -0.01 -0.871 -0.013 -1.304 -0.013 c -0.072 0 -0.145 0 -0.217 0.001 c -8.628 0.042 -16.548 2.16 -24.544 6.527 C 58.261 6.7 58.12 6.773 57.979 6.85 c -0.05 0.028 -0.099 0.052 -0.149 0.08 c -0.011 0.006 -0.02 0.016 -0.031 0.022 c -6.556 3.654 -13.101 8.811 -19.875 15.585 c -0.77 0.77 -1.523 1.55 -2.268 2.334 l -13.164 1.001 c -0.385 0.029 -0.753 0.169 -1.06 0.402 L 0.785 41.987 c -0.657 0.5 -0.94 1.352 -0.711 2.145 c 0.228 0.793 0.92 1.364 1.742 1.439 l 19.373 1.749 l 6.134 6.134 c -2.174 0.497 -4.389 1.715 -6.286 3.611 c -1.136 1.137 -2.048 2.411 -2.716 3.803 c -0.873 1.849 -2.79 6.61 -4.82 11.651 l -0.991 2.459 c -0.3 0.744 -0.127 1.595 0.441 2.162 c 0.382 0.383 0.894 0.586 1.415 0.586 c 0.251 0 0.505 -0.048 0.748 -0.146 l 2.547 -1.027 c 5 -2.014 9.723 -3.917 11.576 -4.79 c 1.38 -0.664 2.655 -1.576 3.79 -2.711 c 1.896 -1.896 3.113 -4.111 3.61 -6.285 l 5.952 5.952 l 1.749 19.372 c 0.074 0.822 0.646 1.514 1.439 1.742 c 0.183 0.053 0.369 0.078 0.553 0.078 c 0.614 0 1.207 -0.283 1.592 -0.789 l 15.711 -20.646 c 0.233 -0.307 0.373 -0.675 0.402 -1.06 l 0.971 -12.775 c 0.857 -0.811 1.707 -1.635 2.547 -2.475 c 6.779 -6.779 11.939 -13.327 15.594 -19.887 c 0.004 -0.007 0.01 -0.013 0.014 -0.02 c 0.018 -0.032 0.033 -0.063 0.051 -0.095 c 0.167 -0.301 0.326 -0.602 0.486 -0.904 C 87.906 23.416 89.95 15.628 89.995 7.163 z M 85.931 4.161 c 0.442 8.455 -1.171 16.115 -5.014 23.796 L 62.136 9.176 C 69.815 5.332 77.471 3.718 85.931 4.161 z M 23.384 29.817 l 8.371 -0.636 c -1.415 1.633 -2.771 3.282 -4.06 4.942 c -0.007 0.009 -0.016 0.015 -0.023 0.024 c -0.107 0.138 -0.206 0.276 -0.312 0.414 c -0.541 0.704 -1.075 1.408 -1.591 2.114 c -0.144 0.196 -0.278 0.391 -0.42 0.587 c -0.488 0.678 -0.973 1.355 -1.437 2.033 c -0.236 0.344 -0.455 0.685 -0.683 1.027 c -0.353 0.53 -0.712 1.059 -1.049 1.588 c -0.3 0.47 -0.578 0.935 -0.864 1.403 L 7.308 42.05 L 23.384 29.817 z M 51.111 61.049 c -0.687 0.503 -1.371 0.991 -2.054 1.465 c -0.411 0.285 -0.822 0.569 -1.233 0.845 c -0.293 0.197 -0.585 0.391 -0.877 0.582 c -0.709 0.464 -1.417 0.922 -2.124 1.356 L 34.811 55.284 c -0.001 -0.001 -0.001 -0.001 -0.002 -0.002 s -0.001 -0.001 -0.002 -0.002 L 24.795 45.268 c 0.025 -0.04 0.052 -0.081 0.077 -0.122 c 0.407 -0.659 0.832 -1.319 1.265 -1.98 c 0.201 -0.306 0.405 -0.613 0.612 -0.921 c 0.263 -0.392 0.535 -0.785 0.807 -1.177 c 0.486 -0.7 0.986 -1.401 1.501 -2.105 c 0.135 -0.184 0.268 -0.369 0.405 -0.553 l 22.22 22.221 C 51.492 60.772 51.301 60.909 51.111 61.049 z M 30.199 66.225 c -0.816 0.816 -1.722 1.466 -2.683 1.927 c -1.512 0.714 -5.425 2.304 -9.539 3.962 c 1.66 -4.119 3.247 -8.024 3.955 -9.526 c 0.468 -0.973 1.119 -1.879 1.935 -2.696 c 1.728 -1.729 3.886 -2.682 5.661 -2.682 c 0.978 0 1.84 0.29 2.449 0.897 l 0.006 0.006 C 33.695 59.832 32.879 63.545 30.199 66.225 z M 60.092 66.525 L 47.858 82.6 L 46.62 68.873 c 0.521 -0.318 1.041 -0.629 1.566 -0.965 c 0.498 -0.318 0.997 -0.656 1.495 -0.988 c 0.375 -0.25 0.748 -0.49 1.124 -0.748 c 0.652 -0.446 1.303 -0.913 1.955 -1.382 c 0.223 -0.161 0.446 -0.315 0.67 -0.479 c 0.685 -0.5 1.367 -1.019 2.05 -1.542 c 0.155 -0.119 0.31 -0.23 0.465 -0.35 c 0.01 -0.008 0.017 -0.018 0.027 -0.026 c 1.588 -1.232 3.165 -2.527 4.729 -3.875 L 60.092 66.525 z M 64.725 49.339 c -3.181 3.181 -6.49 6.147 -9.844 8.834 L 31.919 35.21 c 2.687 -3.354 5.653 -6.663 8.834 -9.844 c 6.432 -6.432 12.306 -10.995 17.707 -14.209 l 20.474 20.474 C 75.721 37.033 71.158 42.907 64.725 49.339 z" style="stroke: none; stroke-width: 1; stroke-dasharray: none; stroke-linecap: butt; stroke-linejoin: miter; stroke-miterlimit: 10; fill: rgb(0,0,0); fill-rule: nonzero; opacity: 1;" transform=" matrix(1 0 0 1 0 0) " stroke-linecap="round" />
</g>
</svg>