<svg width="40" height="40" viewBox="0 0 40 40" fill="none" xmlns="http://www.w3.org/2000/svg">
<g clip-path="url(#clip0_1158_1196)">
<path d="M20 8.33333C19 8.33333 18.3333 7.66667 18.3333 6.66667V1.66667C18.3333 0.666667 19 0 20 0C21 0 21.6667 0.666667 21.6667 1.66667V6.66667C21.6667 7.66667 21 8.33333 20 8.33333Z" fill="#3F3D56" fill-opacity="0.4"/>
<path d="M20 40C19 40 18.3333 39.3334 18.3333 38.3334V33.3334C18.3333 32.3334 19 31.6667 20 31.6667C21 31.6667 21.6667 32.3334 21.6667 33.3334V38.3334C21.6667 39.3334 21 40 20 40Z" fill="#3F3D56"/>
<path d="M6.66667 21.6666H1.66667C0.666667 21.6666 0 21 0 20C0 19 0.666667 18.3333 1.66667 18.3333H6.66667C7.66667 18.3333 8.33333 19 8.33333 20C8.33333 21 7.66667 21.6666 6.66667 21.6666Z" fill="#3F3D56" fill-opacity="0.1"/>
<path d="M38.3333 21.6666H33.3333C32.3333 21.6666 31.6667 21 31.6667 20C31.6667 19 32.3333 18.3333 33.3333 18.3333H38.3333C39.3333 18.3333 40 19 40 20C40 21 39.3333 21.6666 38.3333 21.6666Z" fill="#3F3D56" fill-opacity="0.7"/>
<path d="M31.5 15C31 15 30.3333 14.6666 30 14.1666C29.5 13.3333 29.8333 12.3333 30.6667 11.8333L35 9.33331C35.8333 8.83331 36.8333 9.16665 37.3333 9.99998C37.8333 10.8333 37.5 11.8333 36.6667 12.3333L32.3333 14.8333C32.1667 15 31.8333 15 31.5 15Z" fill="#3F3D56" fill-opacity="0.6"/>
<path d="M4.16669 30.8334C3.66669 30.8334 3.00002 30.5 2.66669 30C2.16669 29.1667 2.50002 28.1667 3.33335 27.6667L7.66669 25.1667C8.50002 24.6667 9.50002 25 10 25.8334C10.5 26.6667 10.1667 27.6667 9.33335 28.1667L5.00002 30.6667C4.66669 30.8334 4.33335 30.8334 4.16669 30.8334Z" fill="#3F3D56" fill-opacity="0.05"/>
<path d="M26.6667 10.1667C26.3333 10.1667 26.1667 10.1667 25.8333 10C25 9.50003 24.8333 8.50003 25.1667 7.66669L27.6667 3.33336C28.1667 2.50003 29.1667 2.33336 30 2.66669C30.8333 3.16669 31 4.16669 30.6667 5.00003L28.1667 9.33336C27.8333 9.83336 27.1667 10.1667 26.6667 10.1667Z" fill="#3F3D56" fill-opacity="0.5"/>
<path d="M10.8333 37.5C10.5 37.5 10.3333 37.5 9.99999 37.3333C9.16665 36.8333 8.99999 35.8333 9.33332 35L11.8333 30.6666C12.3333 30 13.3333 29.6666 14.1667 30.1666C15 30.6666 15.1667 31.6666 14.8333 32.5L12.3333 36.6666C12 37.1666 11.3333 37.5 10.8333 37.5Z" fill="#3F3D56" fill-opacity="0.02"/>
<path d="M8.50002 15C8.16669 15 7.83335 15 7.66669 14.8333L3.33335 12.3333C2.50002 11.8333 2.16669 10.8333 2.66669 9.99999C3.16669 9.16665 4.16669 8.99999 5.00002 9.33332L9.33335 11.8333C10.1667 12.3333 10.3334 13.3333 9.83335 14.1667C9.66669 14.6667 9.00002 15 8.50002 15Z" fill="#3F3D56" fill-opacity="0.2"/>
<path d="M35.8333 30.8334C35.5 30.8334 35.3333 30.8334 35 30.6667L30.6667 28.1667C29.8333 27.6667 29.6667 26.6667 30 25.8334C30.5 25 31.5 24.8334 32.3333 25.1667L36.6667 27.6667C37.5 28.1667 37.6667 29.1667 37.3333 30C37 30.5 36.5 30.8334 35.8333 30.8334Z" fill="#3F3D56" fill-opacity="0.8"/>
<path d="M13.3333 10.1667C12.8333 10.1667 12.1667 9.83335 11.8333 9.33335L9.33332 5.00002C8.99999 4.16669 9.16665 3.16669 9.99999 2.66669C10.8333 2.16669 11.8333 2.50002 12.3333 3.33335L14.8333 7.66669C15.1667 8.50002 15 9.50002 14.1667 9.83335C13.8333 10 13.6667 10.1667 13.3333 10.1667Z" fill="#3F3D56" fill-opacity="0.3"/>
<path d="M29.1667 37.5C28.6667 37.5 28 37.1667 27.6667 36.6667L25.1667 32.3333C24.6667 31.5 25 30.5 25.8333 30C26.6667 29.5 27.6667 29.8333 28.1667 30.6667L30.6667 35C31.1667 35.8333 30.8333 36.8333 30 37.3333C29.6667 37.5 29.5 37.5 29.1667 37.5Z" fill="#3F3D56" fill-opacity="0.9"/>
</g>
<defs>
<clipPath id="clip0_1158_1196">
<rect width="40" height="40" fill="white"/>
</clipPath>
</defs>
</svg>
