<svg width="16" height="14" viewBox="0 0 16 14" fill="none" xmlns="http://www.w3.org/2000/svg">
<path id="Vector" d="M6.4001 9.1875C6.4001 8.74508 6.4331 8.94879 4.27335 4.22434C3.8321 3.25938 2.5686 3.25746 2.1266 4.22434C-0.051404 8.98926 0.000596287 8.75902 0.000596287 9.1875C0.000596287 10.3955 1.43285 11.375 3.2001 11.375C4.96735 11.375 6.4001 10.3955 6.4001 9.1875ZM3.2001 4.8125L5.0001 8.75H1.4001L3.2001 4.8125ZM15.9996 9.1875C15.9996 8.74508 16.0331 8.94879 13.8733 4.22434C13.4321 3.25938 12.1686 3.25746 11.7266 4.22434C9.5486 8.98926 9.6006 8.75902 9.6006 9.1875C9.6006 10.3955 11.0328 11.375 12.8001 11.375C14.5673 11.375 15.9996 10.3955 15.9996 9.1875ZM11.0001 8.75L12.8001 4.8125L14.6001 8.75H11.0001ZM13.2001 12.25H8.8001V4.19043C9.38785 3.90906 9.8291 3.32965 9.95985 2.625H13.2001C13.4211 2.625 13.6001 2.42922 13.6001 2.1875V1.3125C13.6001 1.07078 13.4211 0.875 13.2001 0.875H9.5911C9.2261 0.346719 8.65235 0 8.0001 0C7.34785 0 6.7741 0.346719 6.4091 0.875H2.8001C2.5791 0.875 2.4001 1.07078 2.4001 1.3125V2.1875C2.4001 2.42922 2.5791 2.625 2.8001 2.625H6.04035C6.1711 3.32938 6.6121 3.90906 7.2001 4.19043V12.25H2.8001C2.5791 12.25 2.4001 12.4458 2.4001 12.6875V13.5625C2.4001 13.8042 2.5791 14 2.8001 14H13.2001C13.4211 14 13.6001 13.8042 13.6001 13.5625V12.6875C13.6001 12.4458 13.4211 12.25 13.2001 12.25Z" fill="#3F3D56"/>
</svg>
