<svg width="40" height="40" viewBox="0 0 40 40" xmlns="http://www.w3.org/2000/svg">
<g clip-path="url(#clip0_1157_1186)">
<path d="M20 37.5C15.3587 37.5 10.9075 35.6563 7.62563 32.3744C4.34374 29.0925 2.5 24.6413 2.5 20C2.5 15.3587 4.34374 10.9075 7.62563 7.62563C10.9075 4.34374 15.3587 2.5 20 2.5C24.6413 2.5 29.0925 4.34374 32.3744 7.62563C35.6563 10.9075 37.5 15.3587 37.5 20C37.5 24.6413 35.6563 29.0925 32.3744 32.3744C29.0925 35.6563 24.6413 37.5 20 37.5ZM20 40C25.3043 40 30.3914 37.8929 34.1421 34.1421C37.8929 30.3914 40 25.3043 40 20C40 14.6957 37.8929 9.60859 34.1421 5.85786C30.3914 2.10714 25.3043 0 20 0C14.6957 0 9.60859 2.10714 5.85786 5.85786C2.10714 9.60859 0 14.6957 0 20C0 25.3043 2.10714 30.3914 5.85786 34.1421C9.60859 37.8929 14.6957 40 20 40Z" fill="#25A249"/>
<path d="M27.1182 12.425C27.1004 12.4423 27.0837 12.4606 27.0682 12.48L18.3857 23.5425L13.1532 18.3075C12.7978 17.9763 12.3277 17.796 11.8419 17.8046C11.3562 17.8131 10.8927 18.0099 10.5492 18.3534C10.2056 18.697 10.0089 19.1604 10.0003 19.6462C9.99172 20.1319 10.172 20.6021 10.5032 20.9575L17.1182 27.575C17.2964 27.7529 17.5086 27.893 17.7422 27.9871C17.9757 28.0812 18.2258 28.1273 18.4776 28.1226C18.7293 28.118 18.9776 28.0627 19.2075 27.96C19.4374 27.8573 19.6442 27.7094 19.8157 27.525L29.7957 15.05C30.1356 14.6933 30.3214 14.2172 30.313 13.7247C30.3046 13.2321 30.1026 12.7626 29.7509 12.4177C29.3991 12.0729 28.9257 11.8803 28.4331 11.8816C27.9404 11.883 27.4681 12.0782 27.1182 12.425Z" fill="#25A249"/>
</g>
<defs>
<clipPath id="clip0_1157_1186">
<rect width="40" height="40" />
</clipPath>
</defs>
</svg>
