<svg width="22" height="20" viewBox="0 0 22 20" fill="none" xmlns="http://www.w3.org/2000/svg">
<path d="M2.60524 13.6842H8.51261L7.33051 17.2284C7.11788 17.8684 7.22524 18.5779 7.61998 19.1253C8.01472 19.6726 8.65472 20 9.32945 20H11.0263C11.3389 20 11.6347 19.8611 11.8358 19.6211L16.7831 13.6842H19.4473C20.6084 13.6842 21.5526 12.74 21.5526 11.5789V2.10526C21.5526 0.94421 20.6084 0 19.4473 0H5.43998C5.01168 0.00142097 4.59389 0.132799 4.24186 0.37676C3.88982 0.620724 3.62012 0.96578 3.4684 1.36632L0.566296 9.10421C0.522232 9.2224 0.499769 9.34755 0.499981 9.47368V11.5789C0.499981 12.74 1.44419 13.6842 2.60524 13.6842ZM19.4473 11.5789H17.3421V2.10526H19.4473V11.5789ZM2.60524 9.66421L5.43998 2.10526H15.2368V12.2505L10.5337 17.8947H9.32735L10.9716 12.9653C11.0249 12.807 11.0398 12.6384 11.015 12.4732C10.9902 12.3081 10.9263 12.1513 10.8288 12.0157C10.7312 11.8802 10.6027 11.7699 10.454 11.6939C10.3053 11.618 10.1407 11.5786 9.97366 11.5789H2.60524V9.66421Z" fill="#3F3D56"/>
</svg>
