<svg width="22" height="20" viewBox="0 0 22 20" fill="none" xmlns="http://www.w3.org/2000/svg">
<path d="M2.55265 20H3.60528V6.31579H2.55265C1.9943 6.31579 1.45882 6.53759 1.064 6.93241C0.669191 7.32722 0.447388 7.8627 0.447388 8.42105V17.8947C0.447388 18.4531 0.669191 18.9886 1.064 19.3834C1.45882 19.7782 1.9943 20 2.55265 20ZM19.3948 6.31579H12.0263L13.2074 2.77053C13.3128 2.45412 13.3415 2.11721 13.2911 1.78753C13.2408 1.45786 13.1129 1.14486 12.9179 0.87431C12.7229 0.603764 12.4664 0.383413 12.1696 0.231406C11.8727 0.0793993 11.544 8.64345e-05 11.2105 0H10.9737L5.71055 5.72421V20H17.2895L21.4074 10.9516L21.5 10.5263V8.42105C21.5 7.8627 21.2782 7.32722 20.8834 6.93241C20.4886 6.53759 19.9531 6.31579 19.3948 6.31579Z" fill="#3F3D56"/>
</svg>
