<svg width="14" height="16" viewBox="0 0 14 16" fill="none" xmlns="http://www.w3.org/2000/svg">
<path id="time icon" d="M9.33343 0H4.66647V1.52381H9.33343V0ZM6.22213 9.90476H7.77778V5.33333H6.22213V9.90476ZM12.4681 4.86857L13.5726 3.78667C13.2381 3.39809 12.8725 3.03238 12.4759 2.71238L11.3713 3.79429C10.1325 2.81777 8.59009 2.28548 6.99995 2.28571C3.13415 2.28571 -0.000488281 5.35619 -0.000488281 9.14286C-0.000488281 12.9295 3.12638 16 6.99995 16C8.31783 16.0007 9.60911 15.6367 10.7251 14.9501C11.841 14.2634 12.7363 13.2819 13.3077 12.1187C13.8791 10.9554 14.1035 9.65772 13.9549 8.37505C13.8064 7.09237 13.291 5.87688 12.4681 4.86857ZM6.99995 14.4762C3.98976 14.4762 1.55517 12.0914 1.55517 9.14286C1.55517 6.19429 3.98976 3.80952 6.99995 3.80952C10.0101 3.80952 12.4447 6.19429 12.4447 9.14286C12.4447 12.0914 10.0101 14.4762 6.99995 14.4762Z" fill="#3F3D56"/>
</svg>
