<svg width="40" height="40" viewBox="0 0 40 40" fill="none" xmlns="http://www.w3.org/2000/svg">
    <path fill-rule="evenodd" clip-rule="evenodd" d="M20 2.7907C10.4956 2.7907 2.7907 10.4956 2.79069 20C2.79069 29.5044 10.4956 37.2093 20 37.2093C29.5044 37.2093 37.2093 29.5044 37.2093 20C37.2093 10.4956 29.5044 2.7907 20 2.7907ZM-3.49691e-06 20C-1.56562e-06 8.95431 8.95431 1.56562e-06 20 3.49691e-06C31.0458 5.42821e-06 40 8.95431 40 20C40 31.0458 31.0458 40 20 40C8.9543 40 -5.42821e-06 31.0458 -3.49691e-06 20Z" fill="#F1C21B"/>
    <path fill-rule="evenodd" clip-rule="evenodd" d="M20.0001 9.30219C20.7707 9.30219 21.3954 9.92691 21.3954 10.6975L21.3954 23.9156C21.3954 24.6862 20.7707 25.3109 20.0001 25.3109C19.2295 25.3109 18.6047 24.6862 18.6047 23.9156L18.6047 10.6975C18.6047 9.92691 19.2295 9.30219 20.0001 9.30219Z" fill="#F1C21B"/>
    <path fill-rule="evenodd" clip-rule="evenodd" d="M18.1396 29.3022C18.1396 28.2747 18.9726 27.4418 20.0001 27.4418L20.0187 27.4418C21.0463 27.4418 21.8792 28.2747 21.8792 29.3022C21.8792 30.3298 21.0463 31.1627 20.0187 31.1627L20.0001 31.1627C18.9726 31.1627 18.1396 30.3298 18.1396 29.3022Z" fill="#F1C21B"/>
</svg>
