<svg width="100" height="100" viewBox="0 0 100 100" fill="none" xmlns="http://www.w3.org/2000/svg">
<path d="M15.3562 0.978887C13.5009 -0.466391 10.8643 -0.290614 9.18471 1.3695L1.37265 9.18182C-0.287418 10.8419 -0.46319 13.4786 0.962513 15.3535L16.5866 35.6656C17.4655 36.8179 18.8521 37.5015 20.2974 37.5015H30.8632L52.1511 58.79C49.2802 64.454 50.1981 71.5632 54.9439 76.2896L76.8177 98.1641C79.259 100.605 83.2236 100.605 85.6649 98.1641L98.1642 85.6644C100.605 83.2231 100.605 79.2583 98.1642 76.8169L76.2904 54.9425C71.5641 50.216 64.4551 49.2785 58.7913 52.1496L37.5035 30.861V20.3144C37.5035 18.8496 36.8199 17.4824 35.6676 16.6035L15.3562 0.978887ZM3.89204 77.3638C1.41171 79.8442 0.00553444 83.2231 0.00553444 86.7386C0.00553444 94.0626 5.94271 100 13.2665 100C16.7819 100 20.1607 98.5938 22.641 96.1134L45.6475 73.1061C44.1242 69.0242 43.8898 64.5907 44.9445 60.3916L32.8943 48.3411L3.89204 77.3638ZM100 28.1267C100 26.076 99.7852 24.0838 99.375 22.1698C98.9063 19.9823 96.2307 19.416 94.6487 20.9979L82.169 33.4781C81.5831 34.064 80.7823 34.3961 79.9621 34.3961H68.7517C67.0331 34.3961 65.6269 32.9899 65.6269 31.2711V20.0409C65.6269 19.2206 65.9589 18.4199 66.5448 17.834L79.0246 5.35378C80.6066 3.77179 80.0402 1.09607 77.8528 0.627333C75.9193 0.217187 73.9272 0.00234782 71.8766 0.00234782C56.3501 0.00234782 43.7531 12.5997 43.7531 28.1267V28.2829L60.4123 44.9427C67.4432 43.1654 75.2162 45.0404 80.7237 50.548L83.79 53.6144C93.3597 49.1223 100 39.396 100 28.1267ZM10.9424 84.3754C10.9424 83.1322 11.4363 81.9399 12.3153 81.0609C13.1943 80.1818 14.3865 79.688 15.6297 79.688C16.8728 79.688 18.065 80.1818 18.944 81.0609C19.8231 81.9399 20.3169 83.1322 20.3169 84.3754C20.3169 85.6185 19.8231 86.8108 18.944 87.6898C18.065 88.5689 16.8728 89.0628 15.6297 89.0628C14.3865 89.0628 13.1943 88.5689 12.3153 87.6898C11.4363 86.8108 10.9424 85.6185 10.9424 84.3754Z" fill="#3F3D56"/>
</svg>
