<svg width="53" height="58" viewBox="0 0 53 58" fill="none" xmlns="http://www.w3.org/2000/svg">
    <path d="M52.068 11.07C47.708 2.67997 38.818 0.549969 34.598 0.0199694C34.0172 -0.0608709 33.4297 0.112258 32.9856 0.495142C32.5414 0.878026 32.2836 1.4336 32.278 2.01997V13.36C28.4373 9.86348 22.776 9.25287 18.278 11.85L18.198 11.89C19.9232 14.2502 20.3862 17.3045 19.438 20.07C19.3819 20.2701 19.3151 20.467 19.238 20.66C18.9149 19.2129 18.2026 17.8817 17.178 16.81C15.518 15.17 13.158 14.72 11.798 16.15C10.9321 17.1076 10.5077 18.3845 10.628 19.67C9.35836 19.5868 8.11705 20.0701 7.238 20.99C5.968 22.32 6.318 24.49 7.718 26.12C7.818 26.24 7.918 26.36 8.038 26.48C9.11269 27.4959 10.4494 28.192 11.898 28.49C12.6158 28.1826 13.3872 28.0195 14.168 28.01L14.178 28L28.398 31L42.618 28L43.498 27.49C44.3138 27.0195 44.9092 26.244 45.1531 25.3344C45.3969 24.4247 45.2692 23.4554 44.798 22.64V22.63C44.3275 21.8141 43.5521 21.2187 42.6424 20.9749C41.7327 20.7311 40.7634 20.8588 39.948 21.33C41.0496 20.6956 41.7284 19.5211 41.728 18.25C41.7313 18.1661 41.7246 18.0822 41.708 18L51.068 13.78C51.57 13.5647 51.9615 13.1525 52.1506 12.64C52.3397 12.1275 52.3099 11.5598 52.068 11.07Z" fill="#F9EAB0"/>
    <path d="M50.278 34V36H8.27801V34C8.26457 30.7252 10.8934 28.0517 14.168 28.01L14.178 28H44.278C47.5917 28 50.278 30.6863 50.278 34Z" fill="#F29C1F"/>
    <path d="M52.748 37.93L43.398 55.85C42.7108 57.1703 41.3464 57.9989 39.858 58H18.698C17.2096 57.9989 15.8452 57.1703 15.158 55.85L5.80799 37.93C5.48242 37.3101 5.5047 36.5652 5.86673 35.9659C6.22876 35.3666 6.87783 35.0002 7.57799 35H50.978C51.6782 35.0002 52.3272 35.3666 52.6893 35.9659C53.0513 36.5652 53.0736 37.3101 52.748 37.93Z" fill="#894B9D"/>
    <path d="M20.278 54.9999C19.8892 55.0002 19.5355 54.7752 19.371 54.4229L12.371 39.4229C12.1475 38.9244 12.3654 38.3388 12.8604 38.1077C13.3555 37.8766 13.9443 38.0855 14.183 38.5769L21.183 53.5769C21.3275 53.8864 21.304 54.2483 21.1207 54.5365C20.9374 54.8248 20.6196 54.9995 20.278 54.9999Z" fill="#3D324C"/>
    <path d="M26.278 54.9999C25.8031 54.9995 25.394 54.6652 25.299 54.1999L22.299 39.1999C22.2116 38.6682 22.5612 38.1628 23.0897 38.0571C23.6181 37.9514 24.1352 38.2834 24.259 38.8079L27.259 53.8079C27.3646 54.3467 27.016 54.8699 26.478 54.9799C26.4123 54.9936 26.3452 55.0003 26.278 54.9999Z" fill="#3D324C"/>
    <path d="M38.278 54.9999C37.9373 54.9978 37.6211 54.8224 37.439 54.5344C37.2568 54.2465 37.2339 53.8856 37.378 53.5769L44.378 38.5769C44.5257 38.2475 44.8393 38.0233 45.1987 37.9902C45.5581 37.9571 45.9075 38.1202 46.1128 38.417C46.3182 38.7138 46.3477 39.0982 46.19 39.4229L39.19 54.4229C39.0248 54.7768 38.6686 55.0022 38.278 54.9999Z" fill="#3D324C"/>
    <path d="M32.278 54.9999C32.2108 55.0004 32.1438 54.9937 32.078 54.9799C31.8181 54.9269 31.5898 54.7728 31.4436 54.5515C31.2973 54.3302 31.2449 54.0598 31.298 53.7999L34.298 38.7999C34.3573 38.4393 34.6086 38.1397 34.9535 38.0186C35.2983 37.8976 35.6817 37.9743 35.9535 38.2186C36.2252 38.463 36.342 38.8362 36.258 39.1919L33.258 54.1919C33.1663 54.6608 32.7557 54.9993 32.278 54.9999Z" fill="#3D324C"/>
    <path d="M41.728 18.2499C41.7283 19.5211 41.0496 20.6956 39.948 21.3299L28.398 27.9999H14.178L14.848 27.6199L14.858 27.6099L34.588 16.2199L36.398 15.1799C38.0963 14.1999 40.2675 14.7819 41.248 16.4799C41.5191 16.9432 41.6768 17.4641 41.708 17.9999C41.7246 18.0822 41.7313 18.1661 41.728 18.2499Z" fill="#F3D55B"/>
    <path d="M43.498 27.49L42.618 28H28.398L39.948 21.33C40.7635 20.8588 41.7327 20.7311 42.6424 20.9749C43.5521 21.2187 44.3275 21.8141 44.798 22.63V22.64C45.2692 23.4554 45.3969 24.4247 45.1531 25.3344C44.9093 26.2441 44.3139 27.0195 43.498 27.49Z" fill="#F0C419"/>
    <path d="M19.438 20.0699C20.3862 17.3045 19.9232 14.2501 18.198 11.8899L18.278 11.8499C22.776 9.25283 28.4372 9.86344 32.278 13.3599C33.1951 14.1844 33.9749 15.1499 34.588 16.2199L14.858 27.6099C16.7469 25.5968 18.2335 23.2412 19.238 20.6699V20.6599C19.3151 20.467 19.3818 20.27 19.438 20.0699Z" fill="#F9EAB0"/>
    <path d="M51.068 13.78L41.708 18C41.6768 17.4641 41.5191 16.9432 41.248 16.48C40.2675 14.7819 38.0963 14.1999 36.398 15.18L34.588 16.22C33.9749 15.1499 33.1951 14.1844 32.278 13.36V2.01997C32.2836 1.4336 32.5414 0.878026 32.9855 0.495142C33.4297 0.112258 34.0172 -0.0608709 34.598 0.0199694C38.818 0.549969 47.708 2.67997 52.068 11.07C52.3098 11.5598 52.3397 12.1275 52.1506 12.64C51.9615 13.1525 51.57 13.5647 51.068 13.78Z" fill="#A56A43"/>
    <path d="M19.238 20.66V20.67C18.2336 23.2413 16.7469 25.5969 14.858 27.61L14.848 27.62L14.178 28L14.168 28.01C13.3872 28.0195 12.6158 28.1826 11.898 28.49C10.4494 28.192 9.11269 27.4959 8.038 26.48C7.918 26.36 7.818 26.24 7.718 26.12C6.318 24.49 5.968 22.32 7.238 20.99C8.11705 20.0701 9.35836 19.5868 10.628 19.67C10.5077 18.3846 10.9321 17.1076 11.798 16.15C13.158 14.72 15.518 15.17 17.178 16.81C18.2026 17.8817 18.9149 19.213 19.238 20.66Z" fill="#DF4D60"/>
    <path d="M10.303 20.5129C9.9331 20.5129 9.59346 20.3086 9.41998 19.9819C8.50162 18.1778 6.79153 16.9077 4.79898 16.5499C3.54352 16.3887 2.35147 17.1452 1.96298 18.3499C1.86474 18.6936 1.59059 18.9588 1.24383 19.0455C0.897058 19.1323 0.530346 19.0275 0.281826 18.7705C0.0333065 18.5136 -0.0592647 18.1436 0.0389833 17.7999C0.693595 15.6662 2.77784 14.3036 4.99498 14.5599C7.65211 14.989 9.94858 16.6522 11.185 19.0429C11.35 19.3528 11.3404 19.7264 11.1598 20.0274C10.9792 20.3284 10.654 20.5127 10.303 20.5129Z" fill="#24AE5F"/>
</svg>
