<svg width="49" height="49" viewBox="0 0 49 49" fill="none" xmlns="http://www.w3.org/2000/svg">
    <path d="M0.242981 6.42102L1.42102 5.24298L10.5851 14.4071L9.40708 15.5851L0.242981 6.42102Z" fill="#C7C7C5"/>
    <path d="M8.331 4.99902L0 13.33V4.99902H8.331Z" fill="#F35244"/>
    <path d="M25.826 23.328V48.322H9.164V23.328C9.164 20.6234 10.0412 17.9917 11.664 15.828C13.2868 13.6643 14.164 11.0327 14.164 8.32802V4.99902H20.829V8.33102C20.8286 9.67533 21.0454 11.0109 21.471 12.286C21.588 12.637 21.722 12.986 21.871 13.33C22.2576 14.2171 22.7462 15.0561 23.327 15.83C24.9498 17.9937 25.827 20.6254 25.827 23.33L25.826 23.328Z" fill="#5F9548"/>
    <path d="M25.829 23.328V48.322H23.329V23.328C23.329 20.6234 22.4518 17.9917 20.829 15.828C20.2482 15.0541 19.7595 14.2151 19.373 13.328C19.223 12.985 19.089 12.635 18.973 12.281C18.5472 11.0076 18.3297 9.67376 18.329 8.33102V4.99902H20.829V8.33102C20.8286 9.67533 21.0454 11.0109 21.471 12.286C21.588 12.637 21.722 12.986 21.871 13.33C22.2576 14.2171 22.7462 15.0561 23.327 15.83C24.9498 17.9937 25.827 20.6254 25.827 23.33L25.829 23.328Z" fill="#5D9146"/>
    <path d="M14.163 0H20.828V5H14.163V0Z" fill="#C7C7C5"/>
    <path d="M25.826 23.33V48.324H9.164V23.33C9.164 20.6253 10.0412 17.9937 11.664 15.83C12.2448 15.056 12.7334 14.217 13.12 13.33H21.872C22.2586 14.217 22.7472 15.056 23.328 15.83C24.9501 17.9939 25.8266 20.6256 25.826 23.33V23.33Z" fill="#51803D"/>
    <path d="M25.827 23.33V48.324H23.327V23.33C23.327 20.6253 22.4497 17.9937 20.827 15.83C20.2462 15.056 19.7575 14.217 19.371 13.33H21.871C22.2575 14.217 22.7462 15.056 23.327 15.83C24.9497 17.9937 25.827 20.6253 25.827 23.33V23.33Z" fill="#4F7A3D"/>
    <path d="M9.164 23.327H25.826V41.656H9.164V23.327Z" fill="#C7C7C5"/>
    <path d="M23.327 23.327H25.827V41.656H23.327V23.327Z" fill="#BFBFBD"/>
    <path d="M48.321 18.329V23.577C48.3201 26.7293 47.8997 29.8675 47.071 32.909C46.2417 35.9503 45.8213 39.0886 45.821 42.241V48.322H32.492V42.241C32.4911 39.0886 32.0708 35.9504 31.242 32.909C30.4127 29.8676 29.9923 26.7294 29.992 23.577V18.329H48.321Z" fill="#FFB531"/>
    <path d="M48.32 18.329V23.577C48.3191 26.7293 47.8987 29.8675 47.07 32.909C46.2407 35.9503 45.8203 39.0886 45.82 42.241V48.322H39.87V42.241C39.8695 39.0865 40.2902 35.9461 41.121 32.903C41.9496 29.8636 42.3693 26.7273 42.369 23.577V18.329H48.32Z" fill="#FFAE1F"/>
    <path d="M37.491 28.326L36.936 34.991L35.825 48.3211H20.825L19.714 34.991L19.162 28.326H37.491Z" fill="#E0E0DE"/>
    <path d="M37.492 28.326L36.937 34.991L35.826 48.3211H29.992L31.103 34.991L31.658 28.326H37.492Z" fill="#D6D6D4"/>
    <path d="M45.821 13.33H32.492C31.1113 13.33 29.992 14.4492 29.992 15.83V18.33H39.156C40.0761 18.33 40.822 19.0758 40.822 19.996V24.162C40.822 25.0821 41.5679 25.828 42.488 25.828C43.4081 25.828 44.154 25.0821 44.154 24.162V19.996C44.154 19.5539 44.3297 19.13 44.6423 18.8176C44.955 18.5051 45.379 18.3297 45.821 18.33H48.321V15.83C48.321 14.4492 47.2017 13.33 45.821 13.33V13.33Z" fill="#E0E0DE"/>
    <path d="M36.935 34.991L35.824 48.321H20.824L19.717 34.991H36.935Z" fill="#FA6D00"/>
    <path d="M36.935 34.991L35.824 48.321H29.992L31.103 34.991H36.935Z" fill="#F86400"/>
    <path d="M24.16 39.157H29.16V44.157H24.16V39.157Z" fill="#FF7D19"/>
    <path d="M4.16501 44.988H10.833C12.6732 44.988 14.165 46.4798 14.165 48.32H0.833008C0.833008 46.4798 2.3248 44.988 4.16501 44.988V44.988Z" fill="#E0E0DE"/>
    <path d="M5.83197 34.991H9.16397V44.991H5.83197V34.991Z" fill="#D6D6D4"/>
    <path d="M14.847 26.681C14.9475 27.3885 14.9986 28.1023 15 28.817V29.993C15 34.1351 11.6421 37.493 7.5 37.493C3.35786 37.493 0 34.1351 0 29.993V28.817C0.000351081 27.387 0.199593 25.964 0.592 24.589C0.985472 23.2124 1.18506 21.7877 1.185 20.356C1.18489 19.6784 1.14046 19.0017 1.052 18.33C0.992667 17.8893 0.915 17.451 0.819 17.015L0 13.33H15L14.181 17.013C14.0843 17.4496 14.0067 17.888 13.948 18.328C13.67 20.423 13.8263 22.5529 14.407 24.585C14.6023 25.2725 14.7493 25.9729 14.847 26.681V26.681Z" fill="#E0E0DE"/>
    <path d="M14.848 26.681C14.9478 27.3886 14.9983 28.1023 14.999 28.817V29.993C14.999 32.4277 13.8171 34.7109 11.8291 36.1166C9.84115 37.5223 7.29453 37.8755 4.99902 37.064C7.9956 36.0045 9.99899 33.1713 9.99902 29.993V28.817C9.99872 27.3859 9.79913 25.9619 9.40602 24.586C8.82511 22.5543 8.66853 20.4248 8.94602 18.33C9.00536 17.8893 9.08302 17.451 9.17902 17.015L9.99902 13.33H14.999L14.18 17.013C14.0834 17.4496 14.0057 17.888 13.947 18.328C13.6691 20.423 13.8253 22.5529 14.406 24.585C14.6019 25.2725 14.7496 25.9729 14.848 26.681V26.681Z" fill="#D6D6D4"/>
    <path d="M15 28.817V29.993C15 34.1351 11.6421 37.493 7.5 37.493C3.35786 37.493 0 34.1351 0 29.993V28.817C0.000351081 27.387 0.199593 25.964 0.592 24.589C0.985472 23.2124 1.18506 21.7877 1.185 20.356C1.18494 19.6781 1.14051 19.001 1.052 18.329H13.944C13.666 20.424 13.8223 22.5539 14.403 24.586C14.7975 25.9618 14.9984 27.3858 15 28.817Z" fill="#F98500"/>
    <path d="M14.999 28.817V29.993C14.999 32.4277 13.8171 34.711 11.8291 36.1167C9.84115 37.5223 7.29453 37.8756 4.99902 37.064C7.9956 36.0045 9.99899 33.1713 9.99902 29.993V28.817C9.99872 27.386 9.79913 25.9619 9.40602 24.586C8.82497 22.554 8.66839 20.4241 8.94602 18.329H13.946C13.6681 20.424 13.8243 22.5539 14.405 24.586C14.7985 25.9619 14.9984 27.3859 14.999 28.817Z" fill="#F77C00"/>
    <path d="M10.444 32.105C12.0705 30.4781 12.0705 27.8408 10.444 26.214L4.55298 32.105C6.17983 33.7315 8.81712 33.7315 10.444 32.105V32.105Z" fill="#FFB531"/>
    <path d="M4.16602 23.327H5.83202V24.993H4.16602V23.327Z" fill="#FF9419"/>
    <path d="M8.33099 20.828H9.99699V22.494H8.33099V20.828Z" fill="#FF9419"/>
    <path d="M34.158 21.661H35.824V23.327H34.158V21.661Z" fill="#FFBF57"/>
    <path d="M40.823 30.825H42.489V32.491H40.823V30.825Z" fill="#FFBF57"/>
    <path d="M39.157 37.49H40.823V39.156H39.157V37.49Z" fill="#FFBF57"/>
    <path d="M18.329 0H20.829V5H18.329V0Z" fill="#BFBFBD"/>
    <path d="M8.331 4.99902L0 13.33V9.20502C2.49581 8.03346 4.87338 6.625 7.1 4.99902H8.331Z" fill="#E64C3F"/>
</svg>
