<svg width="48" height="44" viewBox="0 0 48 44" fill="none" xmlns="http://www.w3.org/2000/svg">
    <path d="M44.362 25.7361C44.3622 26.5515 44.0385 27.3335 43.4619 27.91C42.8854 28.4866 42.1033 28.8104 41.288 28.8101H5.71798C4.02026 28.8101 2.64398 27.4338 2.64398 25.7361C2.64398 24.0384 4.02026 22.6621 5.71798 22.6621H41.288C42.1035 22.6613 42.8858 22.9849 43.4625 23.5616C44.0392 24.1382 44.3628 24.9206 44.362 25.7361Z" fill="#884D00"/>
    <path d="M44.087 24.458C43.5864 25.5543 42.4922 26.2577 41.287 26.258H5.72103C4.95382 26.4833 4.12814 26.1976 3.66433 25.5462C3.20051 24.8949 3.20051 24.0212 3.66433 23.3698C4.12814 22.7185 4.95382 22.4327 5.72103 22.658H41.291C42.495 22.6589 43.5878 23.3624 44.087 24.458Z" fill="#AA6100"/>
    <path d="M47.007 31.2931C47.0876 34.8869 45.262 38.2555 42.207 40.1501C39.242 42.1031 35.146 43.0661 30.622 43.0661H16.383C7.335 43.0651 0 39.2151 0 31.2931C0.000183964 30.8616 0.10629 30.4369 0.309 30.0561C0.481453 29.7307 0.712689 29.4401 0.991 29.1991C1.65734 28.6303 2.50701 28.322 3.383 28.3311H43.624C44.8878 28.2975 46.0682 28.9599 46.698 30.0561C46.9007 30.4369 47.0068 30.8616 47.007 31.2931Z" fill="#FFA733"/>
    <path d="M46.699 30.0561C46.0614 32.6195 44.451 34.8342 42.209 36.2311C39.244 38.1841 35.148 39.1471 30.624 39.1471H16.383C8.42302 39.1471 1.78902 36.1671 0.309021 30.0561C0.481474 29.7307 0.71271 29.4402 0.991021 29.1991C1.65736 28.6304 2.50703 28.322 3.38302 28.3311H43.624C44.8882 28.2972 46.069 28.9596 46.699 30.0561Z" fill="#FFB655"/>
    <path d="M36.572 21.3721L28.619 29.3251C27.8073 30.1368 26.7064 30.5929 25.5585 30.5929C24.4106 30.5929 23.3097 30.1368 22.498 29.3251L14.545 21.3721L36.572 21.3721Z" fill="#EEBF00"/>
    <path d="M36.576 21.372L28.622 29.32C28.4265 29.5156 28.2129 29.692 27.984 29.847C27.3583 29.6341 26.7902 29.2796 26.324 28.811L18.881 21.368L36.576 21.372Z" fill="#FFD422"/>
    <path d="M46.114 22.4811C46.1144 22.9101 46.0407 23.3361 45.896 23.7401C45.312 25.3691 43.749 26.0021 42.53 25.1021L41.069 24.0231C40.5815 23.6641 39.9608 23.5378 39.3718 23.6777C38.7829 23.8175 38.2852 24.2093 38.011 24.7491L37.949 24.8491C37.6838 25.3672 37.2123 25.7495 36.6505 25.9018C36.0887 26.0541 35.4886 25.9623 34.998 25.6491L31.726 23.5091C30.9933 23.0141 30.0196 23.0723 29.351 23.6511L26.729 25.7841C26.0221 26.3959 24.9815 26.4235 24.243 25.8501L21.252 23.6331C20.5227 23.0655 19.4957 23.0855 18.789 23.6811L16.066 25.8441C15.3795 26.4223 14.3874 26.459 13.66 25.9331L10.134 23.4831C9.47142 23.0021 8.57839 22.9881 7.90103 23.4481L4.61203 25.6011C3.36552 25.7907 2.11539 25.2816 1.35603 24.2751C0.862221 23.3903 0.756179 22.3407 1.06303 21.3751C1.29663 20.3157 2.1981 19.5354 3.28003 19.4561H43.728C44.8068 19.5384 45.7057 20.3147 45.944 21.3701C46.0569 21.7296 46.1143 22.1042 46.114 22.4811Z" fill="#6DC82A"/>
    <path d="M45.945 21.3671C45.931 21.4151 45.914 21.4621 45.897 21.5091C45.313 23.1391 43.75 23.7721 42.531 22.8721L41.07 21.7921C40.5823 21.4339 39.9618 21.308 39.3731 21.4477C38.7843 21.5875 38.2866 21.9789 38.012 22.5181L37.95 22.6181C37.6848 23.1363 37.2133 23.5185 36.6514 23.6708C36.0896 23.8231 35.4896 23.7314 34.999 23.4181L31.727 21.2781C30.9944 20.7824 30.0203 20.8407 29.352 21.4201L26.73 23.5531C26.0228 24.1646 24.9822 24.1918 24.244 23.6181L21.253 21.4031C20.5235 20.8359 19.4968 20.8559 18.79 21.4511L16.066 23.6151C15.3791 24.1926 14.3876 24.2293 13.66 23.7041L10.134 21.2541C9.47167 20.7722 8.57808 20.7582 7.90099 21.2191L4.61199 23.3691C3.36543 23.5592 2.11507 23.05 1.35599 22.0431C1.23472 21.8312 1.13649 21.6069 1.06299 21.3741C1.29659 20.3147 2.19806 19.5344 3.27999 19.4551H43.729C44.807 19.5375 45.7056 20.3127 45.945 21.3671Z" fill="#7ED63E"/>
    <path d="M45.298 17.4871C45.3169 18.3157 45.0004 19.1169 44.4204 19.709C43.8404 20.3011 43.0459 20.6339 42.217 20.6321C36.694 20.6321 21.982 20.5081 19.763 20.5811H19.615C16.815 20.6871 16.175 21.1361 16.175 22.6301V28.0951C16.1753 28.3652 16.0682 28.6244 15.8772 28.8156C15.6863 29.0067 15.4272 29.1141 15.157 29.1141C14.8867 29.1138 14.6273 29.2211 14.4362 29.4122C14.245 29.6034 14.1378 29.8627 14.138 30.1331V32.5131C14.1383 32.7489 14.1101 32.984 14.054 33.2131C13.7277 34.5484 12.5287 35.4862 11.154 35.4811H11.079C10.3089 35.4811 9.57032 35.1747 9.02629 34.6296C8.48226 34.0844 8.17743 33.3452 8.17902 32.5751L8.19202 28.2661C8.19202 27.6033 8.72928 27.0661 9.39202 27.0661C10.0548 27.0661 10.592 26.5288 10.592 25.8661V22.6271C10.592 21.5225 9.69659 20.6271 8.59202 20.6271H4.84802C3.15641 20.6383 1.76381 19.2998 1.70802 17.6091C1.69136 16.7809 2.00867 15.9809 2.58845 15.3892C3.16822 14.7976 3.96168 14.4642 4.79002 14.4641H42.156C43.8503 14.4518 45.2449 15.7936 45.298 17.4871Z" fill="#FF3501"/>
    <path d="M45.298 17.4871C45.3045 17.7962 45.2647 18.1047 45.18 18.4021C39.333 18.3961 25.36 18.2811 23.203 18.3511C20.275 18.4511 19.615 18.8861 19.615 20.4061V20.5871C16.815 20.6931 16.175 21.1421 16.175 22.6361V28.1011C16.1753 28.3712 16.0681 28.6304 15.8772 28.8215C15.6862 29.0127 15.4272 29.1201 15.157 29.1201C14.8867 29.1198 14.6273 29.2271 14.4362 29.4182C14.245 29.6094 14.1377 29.8687 14.138 30.1391V32.5191C14.1383 32.7549 14.1101 32.99 14.054 33.2191C12.6494 32.9889 11.6195 31.7734 11.623 30.3501L11.636 26.0421C11.636 25.3793 12.1732 24.8421 12.836 24.8421C13.4987 24.8421 14.036 24.3048 14.036 23.6421V20.4091C14.036 19.3045 13.1406 18.4091 12.036 18.4091H8.28399C6.59238 18.4203 5.19978 17.0818 5.14399 15.3911C5.1375 15.0818 5.17762 14.7734 5.26299 14.4761H42.153C43.8439 14.462 45.2384 15.7971 45.298 17.4871Z" fill="#FF5023"/>
    <path d="M27.671 11.3361L20.853 18.1571C19.7155 19.2947 18.1727 19.9339 16.564 19.9339C14.9552 19.9339 13.4124 19.2947 12.275 18.1571L5.45398 11.3361H27.671Z" fill="#EEBF00"/>
    <path d="M27.669 11.3361L20.851 18.1571C20.1922 18.8181 19.3887 19.317 18.504 19.6141C17.6199 19.3169 16.817 18.8181 16.159 18.1571L9.336 11.3361H27.669Z" fill="#FFD422"/>
    <path d="M47.007 12.2961C47.007 12.3471 47.007 12.3961 47.007 12.4461C46.9281 13.7877 45.817 14.8353 44.473 14.8351H2.539C1.13698 14.8345 0.000553801 13.6981 1.93248e-06 12.2961C-0.00183872 9.51644 1.31131 6.89978 3.541 5.24005C5.41342 3.81563 7.52671 2.73951 9.78 2.06305C14.2356 0.742856 18.8532 0.0485425 23.5 5.09845e-05C23.5 5.09845e-05 47.007 -0.126949 47.007 12.2961Z" fill="#FFA733"/>
    <path d="M47.007 12.296C47.007 12.347 47.007 12.396 47.007 12.446H7.70703C6.30501 12.4455 5.16858 11.309 5.16803 9.90701C5.16619 7.12739 6.47934 4.51074 8.70903 2.85101C9.05103 2.57367 9.4107 2.31134 9.78803 2.06401C14.245 0.743796 18.8639 0.0498159 23.512 0.00200652C23.512 0.00200652 47.007 -0.126994 47.007 12.296Z" fill="#FFB655"/>
    <path d="M36.137 4.44299C36.5446 4.87433 36.5254 5.55441 36.094 5.96199C35.6627 6.36958 34.9826 6.35033 34.575 5.91899C34.167 5.48799 33.417 3.99299 33.849 3.58599C34.281 3.17899 35.729 4.01099 36.137 4.44299Z" fill="#FFF5CC"/>
    <path d="M30.441 9.75303C30.5785 10.1114 30.5145 10.5159 30.2729 10.8142C30.0314 11.1124 29.649 11.2592 29.2699 11.1992C28.8908 11.1391 28.5725 10.8814 28.435 10.523C28.222 9.96903 28.097 8.30203 28.651 8.08903C29.205 7.87603 30.229 9.19903 30.441 9.75303Z" fill="#FFF5CC"/>
    <path d="M24.578 5.33404C24.578 5.92747 24.0969 6.40854 23.5035 6.40854C22.9101 6.40854 22.429 5.92747 22.429 5.33404C22.429 4.74104 22.91 3.13904 23.503 3.13904C24.096 3.13904 24.578 4.74004 24.578 5.33404Z" fill="#FFF5CC"/>
    <path d="M18.67 10.4271C18.5741 10.7988 18.2871 11.0911 17.9172 11.1939C17.5473 11.2967 17.1507 11.1944 16.8767 10.9254C16.6027 10.6565 16.4931 10.2618 16.589 9.89008C16.737 9.31508 17.604 7.89008 18.178 8.03408C18.752 8.17808 18.818 9.85208 18.67 10.4271Z" fill="#FFF5CC"/>
    <path d="M12.758 5.74606C12.4993 6.28012 11.8566 6.5033 11.3225 6.24456C10.7884 5.98581 10.5653 5.34312 10.824 4.80906C11.083 4.27506 12.214 3.04306 12.748 3.30206C13.282 3.56106 13.017 5.21206 12.758 5.74606Z" fill="#FFF5CC"/>
</svg>
