<svg width="58" height="53" viewBox="0 0 58 53" fill="none" xmlns="http://www.w3.org/2000/svg">
    <path d="M7.70399 16.407H5.77799C3.65059 16.407 1.92599 18.1316 1.92599 20.259V26.037H11.555V20.259C11.555 18.132 9.83101 16.4075 7.70399 16.407Z" fill="#BE5000"/>
    <path d="M7.70399 18.3329H5.77799C4.71429 18.3329 3.85199 19.1952 3.85199 20.2589V26.0329H9.62999V20.2549C9.62778 19.1927 8.76613 18.3329 7.70399 18.3329Z" fill="#DC6E1E"/>
    <path d="M14.444 20.2589H18.296C18.8279 20.2589 19.259 20.6901 19.259 21.2219V26.0369H13.481V21.2219C13.481 20.6901 13.9122 20.2589 14.444 20.2589V20.2589Z" fill="#4B8C41"/>
    <path d="M18.296 18.3329H22.148C22.6799 18.3329 23.111 18.764 23.111 19.2959V26.0329H17.333V19.2919C17.3352 18.7616 17.7657 18.3329 18.296 18.3329V18.3329Z" fill="#91B945"/>
    <ellipse cx="49.888" cy="26.5" rx="6" ry="5.5" fill="#D7E6E6"/>
    <path d="M14.926 26.036C14.926 25.413 15.767 24.664 15.584 24.101C15.395 23.518 14.268 23.408 13.915 22.923C13.562 22.438 13.799 21.329 13.309 20.972C12.819 20.615 11.85 21.187 11.267 20.998C10.704 20.815 10.253 19.777 9.632 19.777C9.011 19.777 8.557 20.815 7.995 20.998C7.412 21.187 6.438 20.619 5.953 20.972C5.468 21.325 5.704 22.433 5.347 22.923C4.99 23.413 3.867 23.523 3.678 24.101C3.495 24.663 4.336 25.412 4.336 26.036C4.336 26.66 3.495 27.408 3.678 27.971C3.867 28.554 4.994 28.664 5.347 29.149C5.7 29.634 5.463 30.743 5.953 31.1C6.443 31.457 7.412 30.885 7.995 31.074C8.557 31.257 9.009 32.295 9.632 32.295C10.255 32.295 10.707 31.257 11.269 31.074C11.852 30.885 12.826 31.453 13.311 31.1C13.796 30.747 13.56 29.639 13.917 29.149C14.274 28.659 15.397 28.549 15.586 27.971C15.766 27.408 14.926 26.659 14.926 26.036Z" fill="#D7E6E6"/>
    <path fill-rule="evenodd" clip-rule="evenodd" d="M5.62582 27.6952C6.29649 29.3143 7.87646 30.37 9.62899 30.37C12.0209 30.3672 13.9592 28.4289 13.962 26.037C13.962 24.2844 12.9063 22.7045 11.2872 22.0338C9.66803 21.3631 7.80433 21.7339 6.5651 22.9731C5.32587 24.2123 4.95516 26.076 5.62582 27.6952ZM6.25899 26.04C6.25899 24.1788 7.76779 22.67 9.62899 22.67V22.666C11.4908 22.6682 12.999 24.1781 12.999 26.04C12.999 27.9012 11.4902 29.41 9.62899 29.41C7.76779 29.41 6.25899 27.9012 6.25899 26.04Z" fill="#FF8773"/>
    <path fill-rule="evenodd" clip-rule="evenodd" d="M7.54303 26.0369C7.54303 27.189 8.47696 28.1229 9.62903 28.1229C10.7804 28.1213 11.7134 27.1883 11.715 26.0369C11.715 24.8849 10.7811 23.9509 9.62903 23.9509C8.47696 23.9509 7.54303 24.8849 7.54303 26.0369ZM8.50603 26.0359C8.50603 25.4157 9.00881 24.9129 9.62903 24.9129C10.2488 24.914 10.7509 25.4162 10.752 26.0359C10.752 26.6561 10.2492 27.1589 9.62903 27.1589C9.00881 27.1589 8.50603 26.6561 8.50603 26.0359Z" fill="#FF8773"/>
    <circle cx="49.889" cy="25.9989" r="3" fill="#FABE19"/>
    <ellipse cx="40.888" cy="26.5" rx="6" ry="5.5" fill="#D7E6E6"/>
    <ellipse cx="41.389" cy="25.9989" rx="2.5" ry="3" fill="#FABE19"/>
    <path d="M18.195 2.926H53.526V1H18.195C17.7046 1.05483 17.3337 1.4695 17.3337 1.963C17.3337 2.4565 17.7046 2.87117 18.195 2.926Z" fill="#D7322D"/>
    <path d="M18.198 6.77793H53.678V4.85193H18.198C17.704 4.90233 17.3282 5.31836 17.3282 5.81493C17.3282 6.31149 17.704 6.72752 18.198 6.77793Z" fill="#D7322D"/>
    <path d="M17.333 1.96295H53.526V0.999945H18.195C17.6918 1.0295 17.3068 1.4596 17.333 1.96295Z" fill="#F04B37"/>
    <path d="M17.333 5.815H53.678V4.852H18.198C17.6939 4.8805 17.3074 5.31074 17.333 5.815Z" fill="#F04B37"/>
    <path d="M23.11 27.481C22.7269 27.481 22.3594 27.3287 22.0886 27.0577C21.8178 26.7867 21.6657 26.4191 21.666 26.036C21.6612 24.8473 22.136 23.707 22.983 22.873C23.3677 22.565 23.5917 22.0988 23.5917 21.606C23.5917 21.1131 23.3677 20.647 22.983 20.339C22.1399 19.5025 21.6658 18.3641 21.6658 17.1765C21.6658 15.9889 22.1399 14.8504 22.983 14.014C23.3677 13.706 23.5917 13.2398 23.5917 12.747C23.5917 12.2541 23.3677 11.788 22.983 11.48C22.1399 10.6435 21.6658 9.50508 21.6658 8.31748C21.6658 7.12988 22.1399 5.99144 22.983 5.15498C23.3629 4.84323 23.5855 4.37941 23.591 3.88798C23.591 3.09021 24.2377 2.44348 25.0355 2.44348C25.8333 2.44348 26.48 3.09021 26.48 3.88798C26.4848 5.07633 26.0099 6.21636 25.163 7.04998C24.7783 7.35799 24.5543 7.82414 24.5543 8.31698C24.5543 8.80983 24.7783 9.27597 25.163 9.58398C26.0063 10.4203 26.4806 11.5588 26.4806 12.7465C26.4806 13.9342 26.0063 15.0727 25.163 15.909C24.7783 16.217 24.5543 16.6831 24.5543 17.176C24.5543 17.6688 24.7783 18.135 25.163 18.443C26.006 19.2794 26.4802 20.4179 26.4802 21.6055C26.4802 22.7931 26.006 23.9315 25.163 24.768C24.7827 25.0799 24.5597 25.5441 24.554 26.036C24.554 26.8336 23.9077 27.4804 23.11 27.481Z" fill="#F5871E"/>
    <path d="M20.221 27.481C19.8379 27.481 19.4704 27.3287 19.1996 27.0577C18.9288 26.7867 18.7768 26.4191 18.777 26.036C18.7722 24.8473 19.247 23.707 20.094 22.873C20.4788 22.565 20.7027 22.0988 20.7027 21.606C20.7027 21.1131 20.4788 20.647 20.094 20.339C19.251 19.5025 18.7768 18.3641 18.7768 17.1765C18.7768 15.9889 19.251 14.8504 20.094 14.014C20.4788 13.706 20.7027 13.2398 20.7027 12.747C20.7027 12.2541 20.4788 11.788 20.094 11.48C19.251 10.6435 18.7768 9.50508 18.7768 8.31748C18.7768 7.12988 19.251 5.99144 20.094 5.15498C20.4739 4.84323 20.6965 4.37941 20.702 3.88798C20.702 3.09021 21.3487 2.44348 22.1465 2.44348C22.9443 2.44348 23.591 3.09021 23.591 3.88798C23.5958 5.07633 23.1209 6.21636 22.274 7.04998C21.8893 7.35799 21.6653 7.82414 21.6653 8.31698C21.6653 8.80983 21.8893 9.27597 22.274 9.58398C23.1173 10.4203 23.5917 11.5588 23.5917 12.7465C23.5917 13.9342 23.1173 15.0727 22.274 15.909C21.8893 16.217 21.6653 16.6831 21.6653 17.176C21.6653 17.6688 21.8893 18.135 22.274 18.443C23.1171 19.2794 23.5912 20.4179 23.5912 21.6055C23.5912 22.7931 23.1171 23.9315 22.274 24.768C21.8937 25.0799 21.6707 25.5441 21.665 26.036C21.665 26.8336 21.0187 27.4804 20.221 27.481Z" fill="#FABE19"/>
    <path d="M28.888 27.481C28.5049 27.481 28.1374 27.3287 27.8666 27.0577C27.5958 26.7867 27.4437 26.4191 27.444 26.036C27.4392 24.8473 27.914 23.707 28.761 22.873C29.1458 22.565 29.3697 22.0988 29.3697 21.606C29.3697 21.1131 29.1458 20.647 28.761 20.339C27.918 19.5025 27.4438 18.3641 27.4438 17.1765C27.4438 15.9889 27.918 14.8504 28.761 14.014C29.1458 13.706 29.3697 13.2398 29.3697 12.747C29.3697 12.2541 29.1458 11.788 28.761 11.48C27.918 10.6435 27.4438 9.50508 27.4438 8.31748C27.4438 7.12988 27.918 5.99144 28.761 5.15498C29.1409 4.84323 29.3635 4.37941 29.369 3.88798C29.369 3.09021 30.0157 2.44348 30.8135 2.44348C31.6113 2.44348 32.258 3.09021 32.258 3.88798C32.2628 5.07633 31.7879 6.21636 30.941 7.04998C30.5563 7.35799 30.3323 7.82414 30.3323 8.31698C30.3323 8.80983 30.5563 9.27597 30.941 9.58398C31.7843 10.4203 32.2587 11.5588 32.2587 12.7465C32.2587 13.9342 31.7843 15.0727 30.941 15.909C30.5563 16.217 30.3323 16.6831 30.3323 17.176C30.3323 17.6688 30.5563 18.135 30.941 18.443C31.7841 19.2794 32.2582 20.4179 32.2582 21.6055C32.2582 22.7931 31.7841 23.9315 30.941 24.768C30.5607 25.0799 30.3377 25.5441 30.332 26.036C30.3323 26.4191 30.1803 26.7867 29.9094 27.0577C29.6386 27.3287 29.2712 27.481 28.888 27.481Z" fill="#F5871E"/>
    <path d="M25.999 27.481C25.6159 27.481 25.2485 27.3287 24.9776 27.0577C24.7068 26.7867 24.5548 26.4191 24.555 26.036C24.5502 24.8473 25.0251 23.707 25.872 22.873C26.2568 22.565 26.4807 22.0988 26.4807 21.606C26.4807 21.1131 26.2568 20.647 25.872 20.339C25.029 19.5025 24.5548 18.3641 24.5548 17.1765C24.5548 15.9889 25.029 14.8504 25.872 14.014C26.2568 13.706 26.4807 13.2398 26.4807 12.747C26.4807 12.2541 26.2568 11.788 25.872 11.48C25.029 10.6435 24.5548 9.50508 24.5548 8.31748C24.5548 7.12988 25.029 5.99144 25.872 5.15498C26.252 4.84323 26.4745 4.37941 26.48 3.88798C26.48 3.09021 27.1268 2.44348 27.9245 2.44348C28.7223 2.44348 29.369 3.09021 29.369 3.88798C29.3738 5.07633 28.899 6.21636 28.052 7.04998C27.6673 7.35799 27.4434 7.82414 27.4434 8.31698C27.4434 8.80983 27.6673 9.27597 28.052 9.58398C28.8953 10.4203 29.3697 11.5588 29.3697 12.7465C29.3697 13.9342 28.8953 15.0727 28.052 15.909C27.6673 16.217 27.4434 16.6831 27.4434 17.176C27.4434 17.6688 27.6673 18.135 28.052 18.443C28.8951 19.2794 29.3693 20.4179 29.3693 21.6055C29.3693 22.7931 28.8951 23.9315 28.052 24.768C27.6717 25.0799 27.4488 25.5441 27.443 26.036C27.4433 26.4191 27.2913 26.7867 27.0205 27.0577C26.7496 27.3287 26.3822 27.481 25.999 27.481Z" fill="#FABE19"/>
    <path d="M34.6651 27.481C34.2819 27.481 33.9145 27.3287 33.6436 27.0577C33.3728 26.7867 33.2208 26.4191 33.2211 26.036C33.2161 24.8473 33.691 23.7069 34.5381 22.873C34.9228 22.565 35.1467 22.0988 35.1467 21.606C35.1467 21.1131 34.9228 20.647 34.5381 20.339C33.695 19.5025 33.2208 18.3641 33.2208 17.1765C33.2208 15.9889 33.695 14.8504 34.5381 14.014C34.9228 13.706 35.1467 13.2398 35.1467 12.747C35.1467 12.2541 34.9228 11.788 34.5381 11.48C33.695 10.6435 33.2208 9.50508 33.2208 8.31748C33.2208 7.12988 33.695 5.99144 34.5381 5.15498C34.918 4.84323 35.1406 4.37941 35.1461 3.88798C35.1461 3.09021 35.7928 2.44348 36.5906 2.44348C37.3883 2.44348 38.0351 3.09021 38.0351 3.88798C38.0398 5.07633 37.565 6.21636 36.7181 7.04998C36.3333 7.35799 36.1094 7.82414 36.1094 8.31698C36.1094 8.80983 36.3333 9.27597 36.7181 9.58398C37.5613 10.4203 38.0357 11.5588 38.0357 12.7465C38.0357 13.9342 37.5613 15.0727 36.7181 15.909C36.3333 16.217 36.1094 16.6831 36.1094 17.176C36.1094 17.6688 36.3333 18.135 36.7181 18.443C37.5611 19.2794 38.0353 20.4179 38.0353 21.6055C38.0353 22.7931 37.5611 23.9315 36.7181 24.768C36.3377 25.0799 36.1148 25.5441 36.1091 26.036C36.1093 26.4191 35.9573 26.7867 35.6865 27.0577C35.4156 27.3287 35.0482 27.481 34.6651 27.481Z" fill="#F5871E"/>
    <path d="M31.776 27.481C31.3929 27.481 31.0254 27.3287 30.7546 27.0577C30.4838 26.7867 30.3317 26.4191 30.332 26.036C30.3271 24.8473 30.8019 23.7069 31.649 22.873C32.0338 22.565 32.2577 22.0988 32.2577 21.606C32.2577 21.1131 32.0338 20.647 31.649 20.339C30.806 19.5025 30.3318 18.3641 30.3318 17.1765C30.3318 15.9889 30.806 14.8504 31.649 14.014C32.0338 13.706 32.2577 13.2398 32.2577 12.747C32.2577 12.2541 32.0338 11.788 31.649 11.48C30.806 10.6435 30.3318 9.50508 30.3318 8.31748C30.3318 7.12988 30.806 5.99144 31.649 5.15498C32.0289 4.84323 32.2515 4.37941 32.257 3.88798C32.257 3.09021 32.9037 2.44348 33.7015 2.44348C34.4993 2.44348 35.146 3.09021 35.146 3.88798C35.1508 5.07633 34.6759 6.21636 33.829 7.04998C33.4443 7.35799 33.2203 7.82414 33.2203 8.31698C33.2203 8.80983 33.4443 9.27597 33.829 9.58398C34.6723 10.4203 35.1467 11.5588 35.1467 12.7465C35.1467 13.9342 34.6723 15.0727 33.829 15.909C33.4443 16.217 33.2203 16.6831 33.2203 17.176C33.2203 17.6688 33.4443 18.135 33.829 18.443C34.6721 19.2794 35.1462 20.4179 35.1462 21.6055C35.1462 22.7931 34.6721 23.9315 33.829 24.768C33.4487 25.0799 33.2257 25.5441 33.22 26.036C33.2203 26.4191 33.0683 26.7867 32.7974 27.0577C32.5266 27.3287 32.1592 27.481 31.776 27.481Z" fill="#FABE19"/>
    <path d="M38.518 49.148H19.259C8.62255 49.148 0 40.5254 0 29.889V27.963C0 26.8993 0.8623 26.037 1.926 26.037H55.851C56.9147 26.037 57.777 26.8993 57.777 27.963V29.889C57.777 34.9968 55.7479 39.8954 52.1362 43.5072C48.5244 47.1189 43.6258 49.148 38.518 49.148Z" fill="#F04B37"/>
    <path d="M19.259 47.2209C9.69081 47.2099 1.93702 39.4561 1.92599 29.8879V28.9249C1.92599 28.3931 2.35714 27.9619 2.88899 27.9619C3.42085 27.9619 3.85199 28.3931 3.85199 28.9249V29.8879C3.86191 38.3929 10.7541 45.285 19.259 45.2949C19.603 45.2949 19.921 45.4785 20.093 45.7764C20.265 46.0744 20.265 46.4415 20.093 46.7394C19.921 47.0374 19.603 47.2209 19.259 47.2209Z" fill="#FF6955"/>
    <path d="M55.851 26.037H36.592C37.6557 26.037 38.518 26.8993 38.518 27.963V29.889C38.518 34.9968 36.4889 39.8954 32.8771 43.5072C29.2654 47.1189 24.3668 49.148 19.259 49.148H38.518C43.6258 49.148 48.5244 47.1189 52.1361 43.5072C55.7479 39.8954 57.777 34.9968 57.777 29.889V27.963C57.777 26.8993 56.9147 26.037 55.851 26.037Z" fill="#D7322D"/>
    <path d="M36.592 52.999H21.185C20.1213 52.999 19.259 52.1367 19.259 51.073V49.147H38.518V51.073C38.518 52.1367 37.6557 52.999 36.592 52.999Z" fill="#D7322D"/>
</svg>
