<svg width="57" height="56" viewBox="0 0 57 56" fill="none" xmlns="http://www.w3.org/2000/svg">
    <path d="M28.671 27.726H1.621C1.18618 28.2102 0.96296 28.8482 1.001 29.498C1.55521 38.1275 6.10385 46.0044 13.301 50.798C13.8421 51.1578 14.5051 51.285 15.141 51.151L28.671 27.726Z" fill="#FFA000"/>
    <path d="M15.144 4.29695C14.5085 4.16376 13.8461 4.29091 13.305 4.64995C6.10549 9.44365 1.55522 17.3223 1.001 25.954C0.96296 26.6037 1.18618 27.2417 1.621 27.726H28.671L15.144 4.29695Z" fill="#FFA000"/>
    <path d="M42.199 4.29996C41.9979 3.68391 41.5585 3.17399 40.979 2.88396C33.2234 -0.956602 24.1196 -0.956602 16.364 2.88396C15.7843 3.17381 15.3449 3.6838 15.144 4.29996L28.671 27.73L42.199 4.29996Z" fill="#FFA000"/>
    <path d="M15.145 51.1559C15.3458 51.7724 15.7852 52.2828 16.365 52.5729C24.1207 56.4132 33.2244 56.4132 40.98 52.5729C41.581 52.2722 42.0308 51.7364 42.2231 51.0925C42.4153 50.4486 42.3328 49.7539 41.995 49.1729L30.079 28.5339L28.672 27.7269L15.145 51.1559Z" fill="#FFA000"/>
    <path d="M56.338 25.9529C55.7839 17.3233 51.2353 9.44635 44.038 4.65294C43.4969 4.29401 42.8345 4.16686 42.199 4.29994L28.672 27.7299L30.079 28.5419H53.906C54.5781 28.5421 55.2204 28.2646 55.6811 27.7752C56.1418 27.2858 56.3798 26.6278 56.339 25.9569L56.338 25.9529Z" fill="#FFA000"/>
    <path d="M23.09 27.726L10.838 48.947C11.6251 49.6108 12.4487 50.2301 13.305 50.802C13.8459 51.1615 14.5085 51.2887 15.144 51.155L28.672 27.726H23.09Z" fill="#F57C00"/>
    <path d="M15.144 4.29695C14.5085 4.16376 13.8461 4.29091 13.305 4.64995C13.055 4.81662 12.8083 4.98795 12.565 5.16395L24.341 25.564H1.036C1.026 25.695 1.014 25.826 1.005 25.957C0.965875 26.6061 1.18763 27.244 1.621 27.729H28.671L15.144 4.29695Z" fill="#F57C00"/>
    <path d="M40.979 2.87902C39.8564 2.32224 38.6974 1.84214 37.51 1.44202C37.6649 1.65049 37.7854 1.88243 37.867 2.12902L25.881 22.892L28.672 27.726L42.199 4.29602C41.9979 3.67996 41.5585 3.17004 40.979 2.88002V2.87902Z" fill="#F57C00"/>
    <path d="M41.994 49.177L30.078 28.538L28.671 27.726L27.599 29.582L37.662 47.011C37.9994 47.592 38.0818 48.2866 37.8896 48.9304C37.6974 49.5742 37.2477 50.11 36.647 50.411C30.0655 53.6667 22.4624 54.1833 15.501 51.848C15.7265 52.1562 16.0224 52.4061 16.364 52.577C24.1209 56.4118 33.2221 56.4118 40.979 52.577C41.5785 52.2762 42.0274 51.7413 42.2195 51.0986C42.4116 50.4559 42.33 49.7625 41.994 49.182V49.177Z" fill="#F57C00"/>
    <path d="M56.337 25.953C55.783 17.3234 51.2343 9.44638 44.037 4.65298C43.4957 4.29378 42.8329 4.16662 42.197 4.29998L42.172 4.34298C47.9719 9.20818 51.5255 16.2369 52.005 23.792C52.0456 24.4627 51.8074 25.1204 51.3467 25.6096C50.8861 26.0988 50.244 26.3761 49.572 26.376H29.453L28.671 27.73L30.078 28.542H53.905C54.5771 28.5421 55.2195 28.2647 55.6801 27.7752C56.1408 27.2858 56.3788 26.6279 56.338 25.957L56.337 25.953Z" fill="#F57C00"/>
    <path d="M6.22503 27.726C6.08404 29.0458 6.05427 30.3751 6.13603 31.7C6.50525 32.9748 6.98611 34.2146 7.57303 35.405C7.89127 36.6934 8.31985 37.952 8.85403 39.167C9.64038 40.2363 10.5176 41.2357 11.476 42.154C12.2157 43.2565 13.0484 44.2936 13.965 45.254C15.0688 45.9907 16.2337 46.6314 17.447 47.169L28.672 27.726H6.22503Z" fill="#FFE082"/>
    <path d="M23.089 27.726L13.332 44.626C13.5262 44.8509 13.7375 45.0605 13.964 45.253C15.0677 45.9897 16.2327 46.6304 17.446 47.168L28.669 27.726H23.089Z" fill="#FFCA28"/>
    <path d="M17.446 47.169C18.5171 47.9543 19.6548 48.6445 20.846 49.232C22.1358 49.5438 23.4499 49.7445 24.774 49.832C26.0489 50.2025 27.3539 50.4605 28.674 50.603C29.994 50.4605 31.299 50.2025 32.574 49.832C33.8981 49.7445 35.2122 49.5438 36.502 49.232C37.1127 48.9909 37.6908 48.6744 38.223 48.29C39.1631 47.6529 39.4524 46.3983 38.886 45.414L28.671 27.726L17.446 47.169Z" fill="#FFE082"/>
    <path d="M28.671 27.726L27.131 30.394L35.565 45.003C34.4999 45.7973 33.3614 46.4881 32.165 47.066C30.8749 47.3779 29.5604 47.5786 28.236 47.666C26.961 48.0363 25.656 48.2943 24.336 48.437C23.016 48.2943 21.711 48.0363 20.436 47.666C19.556 47.512 18.643 47.493 17.768 47.366C18.722 48.0954 19.7516 48.7203 20.839 49.23C22.1292 49.5416 23.4436 49.7424 24.768 49.83C26.043 50.2 27.348 50.4577 28.668 50.6C29.988 50.4576 31.293 50.2 32.568 49.83C33.892 49.7423 35.2062 49.5416 36.496 49.23C37.1067 48.9889 37.6848 48.6724 38.217 48.288C39.1567 47.6506 39.4459 46.3964 38.88 45.412L28.671 27.726Z" fill="#FFCA28"/>
    <path d="M17.446 8.28296C16.2326 8.82082 15.0677 9.46184 13.964 10.199C13.047 11.159 12.2143 12.1962 11.475 13.299C10.5166 14.2172 9.63931 15.2166 8.85299 16.286C8.31889 17.5009 7.89031 18.7595 7.57199 20.048C6.98513 21.2384 6.50427 22.4782 6.13499 23.753C6.05324 25.0778 6.08301 26.4071 6.22399 27.727H28.671L17.446 8.28296Z" fill="#FFE082"/>
    <path d="M17.446 8.28296C16.681 8.72596 15.833 9.05496 15.054 9.47596L22.464 22.311C22.8509 22.9812 22.8509 23.8069 22.464 24.477C22.077 25.1472 21.3619 25.56 20.588 25.56H6.086C6.135 26.276 6.225 27.002 6.225 27.726H28.672L17.446 8.28296Z" fill="#FFCA28"/>
    <path d="M36.498 6.22C35.2082 5.90817 33.8941 5.70744 32.57 5.62C31.2951 5.24944 29.9901 4.99145 28.67 4.849C27.35 4.99145 26.045 5.24944 24.77 5.62C23.4459 5.70744 22.1318 5.90817 20.842 6.22C19.6507 6.80719 18.513 7.49749 17.442 8.283L28.667 27.726L39.898 8.284C38.827 7.49848 37.6894 6.80818 36.498 6.221V6.22Z" fill="#FFE082"/>
    <path d="M39.897 8.28292C38.826 7.49741 37.6884 6.80711 36.497 6.21992C36.2172 6.12025 35.93 6.04268 35.638 5.98792L25.879 22.8879L28.67 27.7219L39.895 8.27891L39.897 8.28292Z" fill="#FFCA28"/>
    <path d="M49.483 27.726C50.3869 27.7256 51.1402 27.0336 51.217 26.133C51.3178 25.3424 51.3161 24.5421 51.212 23.752C50.8428 22.4772 50.3619 21.2374 49.775 20.047C49.4567 18.7582 49.0282 17.4993 48.494 16.284C47.7076 15.2147 46.8303 14.2154 45.872 13.297C45.1326 12.1943 44.2999 11.1571 43.383 10.197C42.2794 9.46003 41.1144 8.81934 39.901 8.28198L28.671 27.726H39.608V33.147C39.6078 33.6794 39.8191 34.19 40.1956 34.5664C40.572 34.9429 41.0827 35.1542 41.615 35.154C42.174 35.1702 42.7157 34.9596 43.117 34.57C43.5182 34.1805 43.7447 33.6452 43.745 33.086V32.341C43.7645 31.6433 44.3356 31.0879 45.0335 31.0879C45.7314 31.0879 46.3026 31.6433 46.322 32.341V38.13C46.322 39.0015 47.0285 39.708 47.9 39.708C48.7715 39.708 49.478 39.0015 49.478 38.13L49.483 27.726Z" fill="#FFE082"/>
    <path d="M51.208 23.753C50.8388 22.4781 50.3579 21.2383 49.771 20.048C49.4527 18.7592 49.0241 17.5002 48.49 16.285C47.7036 15.2157 46.8263 14.2164 45.868 13.298C45.1286 12.1953 44.2959 11.1581 43.379 10.198C42.2754 9.46102 41.1104 8.82033 39.897 8.28296L39.68 8.65996C40.353 9.42996 40.88 10.349 41.536 11.131C42.4944 12.0492 43.3717 13.0486 44.158 14.118C44.6921 15.3329 45.1207 16.5915 45.439 17.88C46.026 19.0707 46.5068 20.3108 46.876 21.586L46.882 21.624C47.0391 22.6098 46.755 23.6148 46.1052 24.3725C45.4553 25.1302 44.5052 25.5641 43.507 25.559H29.922L28.671 27.725H45.147V31.057C45.8124 31.115 46.323 31.6721 46.323 32.34V38.129C46.323 39.0005 47.0295 39.707 47.901 39.707C48.7725 39.707 49.479 39.0005 49.479 38.129V27.729C50.3829 27.7286 51.1362 27.0366 51.213 26.136C51.3138 25.3454 51.3121 24.5451 51.208 23.755V23.753Z" fill="#FFCA28"/>
    <path d="M29.479 43.3319C29.479 45.1097 28.0378 46.5509 26.26 46.5509C24.4822 46.5509 23.041 45.1097 23.041 43.3319C23.041 41.5541 24.4822 40.1129 26.26 40.1129C28.0378 40.1129 29.479 41.5541 29.479 43.3319Z" fill="#EF5350"/>
    <path d="M19.437 38.2279C19.437 40.0052 17.9966 41.4462 16.2194 41.4469C14.4421 41.4476 13.0005 40.0079 12.999 38.2306C12.9976 36.4533 14.4367 35.0111 16.214 35.0089C17.0684 35.0079 17.8882 35.3465 18.4928 35.9503C19.0973 36.5541 19.437 37.3735 19.437 38.2279Z" fill="#EF5350"/>
    <path d="M22.086 21.646C22.086 23.4237 20.645 24.8648 18.8673 24.865C17.0897 24.8652 15.6484 23.4243 15.648 21.6467C15.6476 19.869 17.0883 18.4276 18.866 18.427C20.644 18.427 22.0855 19.868 22.086 21.646Z" fill="#EF5350"/>
    <path d="M28.846 10.7369C28.846 12.5146 27.405 13.9558 25.6274 13.9559C23.8497 13.9561 22.4084 12.5153 22.408 10.7376C22.4077 8.95994 23.8483 7.5185 25.626 7.51794C26.4799 7.51768 27.2989 7.85671 27.9028 8.46041C28.5067 9.06412 28.846 9.88304 28.846 10.7369Z" fill="#EF5350"/>
    <path d="M42.987 14.721C42.987 15.6101 42.2661 16.331 41.377 16.331C40.4878 16.331 39.767 15.6101 39.767 14.721C39.767 13.8318 40.4878 13.111 41.377 13.111C42.2661 13.111 42.987 13.8318 42.987 14.721Z" fill="#FF6F00"/>
    <path d="M37.806 23.0819C37.806 23.9711 37.0852 24.6919 36.196 24.6919C35.3068 24.6919 34.586 23.9711 34.586 23.0819C34.586 22.1927 35.3068 21.4719 36.196 21.4719C36.623 21.4719 37.0325 21.6415 37.3344 21.9435C37.6364 22.2454 37.806 22.6549 37.806 23.0819Z" fill="#FF6F00"/>
    <path d="M35.92 9.89294C35.9204 10.5442 35.5284 11.1316 34.9268 11.3811C34.3252 11.6306 33.6326 11.4931 33.1719 11.0327C32.7112 10.5724 32.5733 9.87979 32.8225 9.27805C33.0716 8.67631 33.6587 8.28394 34.31 8.28394C35.1988 8.28394 35.9194 9.00415 35.92 9.89294Z" fill="#FF6F00"/>
    <path d="M30.28 18.799C30.28 19.6881 29.5592 20.409 28.67 20.409C27.7808 20.409 27.06 19.6881 27.06 18.799C27.06 17.9098 27.7808 17.189 28.67 17.189C29.0971 17.1887 29.5067 17.3582 29.8087 17.6602C30.1107 17.9622 30.2803 18.3719 30.28 18.799Z" fill="#FF6F00"/>
    <path d="M12.243 23.731C12.243 24.3822 11.8507 24.9692 11.2491 25.2184C10.6475 25.4676 9.95501 25.3299 9.49455 24.8694C9.0341 24.409 8.89635 23.7165 9.14555 23.1149C9.39475 22.5132 9.98181 22.121 10.633 22.121C11.0601 22.1207 11.4697 22.2902 11.7717 22.5922C12.0737 22.8942 12.2433 23.3039 12.243 23.731Z" fill="#FF6F00"/>
    <path d="M21.488 31.3669C21.4884 32.0182 21.0964 32.6056 20.4948 32.8551C19.8932 33.1046 19.2006 32.9671 18.7399 32.5067C18.2792 32.0464 18.1413 31.3538 18.3904 30.752C18.6396 30.1503 19.2267 29.7579 19.878 29.7579C20.7668 29.7579 21.4874 30.4781 21.488 31.3669Z" fill="#FF6F00"/>
    <path d="M17.762 13.504C17.5111 12.6514 16.6167 12.1634 15.764 12.4138C14.9112 12.6641 14.4226 13.5582 14.6724 14.4111C14.9222 15.264 15.8159 15.7532 16.669 15.504C17.0796 15.3843 17.4256 15.1061 17.6307 14.7309C17.8358 14.3556 17.883 13.9141 17.762 13.504Z" fill="#FF6F00"/>
    <path d="M12.822 32.554C12.822 33.2052 12.4296 33.7924 11.8279 34.0415C11.2261 34.2907 10.5336 34.1527 10.0732 33.6921C9.6128 33.2314 9.4753 32.5387 9.72482 31.9372C9.97433 31.3356 10.5617 30.9436 11.213 30.944C11.6399 30.944 12.0493 31.1136 12.3511 31.4156C12.6528 31.7176 12.8222 32.1271 12.822 32.554Z" fill="#FF6F00"/>
    <path d="M35.494 44.9429C35.494 45.8321 34.7732 46.5529 33.884 46.5529C32.9948 46.5529 32.274 45.8321 32.274 44.9429C32.274 44.0537 32.9948 43.3329 33.884 43.3329C34.311 43.3329 34.7205 43.5025 35.0224 43.8044C35.3244 44.1064 35.494 44.5159 35.494 44.9429Z" fill="#FF6F00"/>
    <path d="M30.28 35.7739C30.28 36.6631 29.5592 37.3839 28.67 37.3839C27.7808 37.3839 27.06 36.6631 27.06 35.7739C27.06 34.8848 27.7808 34.1639 28.67 34.1639C29.5592 34.1639 30.28 34.8848 30.28 35.7739Z" fill="#FF6F00"/>
    <path d="M47.333 21.8619C47.333 23.1639 46.5487 24.3377 45.3458 24.8359C44.143 25.3342 42.7584 25.0587 41.8378 24.1381C40.9172 23.2175 40.6418 21.8329 41.14 20.6301C41.6383 19.4272 42.812 18.6429 44.114 18.6429C45.8918 18.6429 47.333 20.0841 47.333 21.8619Z" fill="#EF5350"/>
    <path d="M26.926 40.1849C27.5167 41.2892 27.4135 42.6358 26.6615 43.6372C25.9096 44.6386 24.6452 45.1132 23.42 44.8539C24.126 46.1654 25.6396 46.8213 27.0793 46.4396C28.5191 46.0579 29.5089 44.7383 29.4724 43.2493C29.4359 41.7602 28.3827 40.4907 26.926 40.1799V40.1849Z" fill="#D32F2F"/>
    <path d="M16.888 35.079C17.4241 36.0768 17.3965 37.2829 16.8153 38.2552C16.2341 39.2274 15.1848 39.8228 14.052 39.823C13.8269 39.823 13.6023 39.7995 13.382 39.753C14.088 41.0645 15.6016 41.7203 17.0414 41.3386C18.4811 40.9569 19.4709 39.6373 19.4344 38.1483C19.398 36.6593 18.3447 35.3897 16.888 35.079V35.079Z" fill="#D32F2F"/>
    <path d="M19.537 18.4969C20.0731 19.4948 20.0455 20.7009 19.4643 21.6732C18.8831 22.6454 17.8337 23.2408 16.701 23.2409C16.4758 23.241 16.2513 23.2175 16.031 23.1709C16.7366 24.4838 18.251 25.1408 19.6918 24.7592C21.1326 24.3775 22.1231 23.057 22.0863 21.567C22.0495 20.0769 20.9949 18.8069 19.537 18.4969V18.4969Z" fill="#D32F2F"/>
    <path d="M26.299 7.58801C26.8351 8.58584 26.8075 9.79198 26.2262 10.7642C25.645 11.7365 24.5957 12.3318 23.463 12.332C23.2378 12.332 23.0133 12.3086 22.793 12.262C23.4986 13.5749 25.013 14.2319 26.4538 13.8502C27.8946 13.4686 28.8851 12.148 28.8483 10.658C28.8114 9.16801 27.7568 7.89801 26.299 7.58801Z" fill="#D32F2F"/>
    <path d="M44.784 18.714C45.3201 19.7118 45.2925 20.918 44.7113 21.8902C44.1301 22.8625 43.0807 23.4578 41.948 23.458C41.7229 23.458 41.4983 23.4345 41.278 23.388C41.9836 24.7009 43.498 25.3579 44.9388 24.9762C46.3796 24.5946 47.3702 23.274 47.3333 21.784C47.2965 20.294 46.2419 19.024 44.784 18.714Z" fill="#D32F2F"/>
</svg>
