<svg width="58" height="58" viewBox="0 0 58 58" fill="none" xmlns="http://www.w3.org/2000/svg">
    <circle cx="29" cy="29" r="29" fill="#F4F5FB"/>
    <path d="M50 29C50.1918 25.9139 50.8667 22.8769 52 20L45 25C43.092 19.392 35.661 17 26 17C11 17 4 29 4 29C4 29 12 41 26 41C35.661 41 43.092 38.608 45 33L52 38C50.8667 35.1231 50.1918 32.0861 50 29Z" fill="#7D8D9C"/>
    <path d="M44 44H42C38.6863 44 36 41.3137 36 38V36H38C41.3137 36 44 38.6863 44 42V44Z" fill="#E1462B"/>
    <path d="M23 21H21C17.6863 21 15 18.3137 15 15L15 13H17C20.3137 13 23 15.6863 23 19V21Z" fill="#E1462B"/>
    <path d="M6.99999 19.4L5.16699 18.6C7.48296 13.3262 11.4733 8.96329 16.52 6.18701L17.48 7.94001C12.8217 10.5039 9.13838 14.5317 6.99999 19.4Z" fill="#8CAFBF"/>
    <path d="M17 33.9871C14.1275 36.6772 12.911 40.6969 13.8099 44.5283C14.7087 48.3597 17.5859 51.419 21.355 52.551C25.1241 53.683 29.2109 52.7152 32.072 50.0131L29.332 47.1001C26.5153 49.7488 22.0847 49.6127 19.436 46.7961C16.7872 43.9794 16.9233 39.5488 19.74 36.9001L17 33.9871Z" fill="#8EC13F"/>
    <path d="M19.74 36.9C16.9234 39.5488 16.7872 43.9794 19.436 46.796C22.0848 49.6127 26.5154 49.7488 29.332 47.1L19.74 36.9Z" fill="#FCF05A"/>
    <path d="M19.437 46.8C18.4902 45.7938 17.8637 44.5289 17.637 43.166L24.536 42L22.954 48.818C21.6076 48.5088 20.3834 47.8064 19.437 46.8Z" fill="#E8D734"/>
    <path d="M29.99 4C27.1141 6.68943 25.895 10.7109 26.7936 14.5445C27.6921 18.3781 30.5712 21.4391 34.3427 22.5704C38.1141 23.7018 42.2027 22.731 45.063 20.025L42.323 17.112C39.5063 19.7608 35.0757 19.6247 32.427 16.808C29.7782 13.9913 29.9143 9.56076 32.731 6.912L29.99 4Z" fill="#8EC13F"/>
    <path d="M32.731 6.91394C30.9089 8.62739 30.1394 11.1827 30.7123 13.6174C31.2851 16.0521 33.1134 17.9962 35.5083 18.7174C37.9032 19.4386 40.5009 18.8274 42.323 17.1139L32.731 6.91394Z" fill="#FCF05A"/>
    <path d="M32.428 16.8089C31.4814 15.8026 30.8549 14.5378 30.628 13.1749L37.528 12.0129L35.946 18.8309C34.5987 18.5208 33.3741 17.817 32.428 16.8089Z" fill="#E8D734"/>
    <path d="M20.707 33.707L19.292 32.294C20.2028 31.4097 20.8021 30.2539 21 29C20.8021 27.7461 20.2028 26.5902 19.292 25.706L20.707 24.293C20.942 24.527 23 26.653 23 29C23 31.347 20.942 33.473 20.707 33.707Z" fill="#ECECEC"/>
    <path d="M37.707 33.707L36.292 32.294C37.2028 31.4097 37.8021 30.2539 38 29C37.8021 27.7461 37.2028 26.5902 36.292 25.706L37.707 24.293C37.942 24.527 40 26.653 40 29C40 31.347 37.942 33.473 37.707 33.707Z" fill="#ECECEC"/>
    <path d="M25.832 35.5549L24.167 34.4459C25.2204 32.8108 25.8504 30.9393 26 28.9999C25.8533 27.0605 25.2235 25.1886 24.168 23.5549L25.832 22.4449C27.1062 24.4072 27.8529 26.6649 28 28.9999C27.8529 31.335 27.1062 33.5927 25.832 35.5549Z" fill="#ECECEC"/>
    <path d="M31.832 35.5549L30.167 34.4459C31.2204 32.8108 31.8504 30.9393 32 28.9999C31.8533 27.0605 31.2235 25.1886 30.168 23.5549L31.832 22.4449C33.1062 24.4072 33.8529 26.6649 34 28.9999C33.8529 31.335 33.1062 33.5927 31.832 35.5549Z" fill="#ECECEC"/>
    <path d="M11 26H13V28H11V26Z" fill="#394D5C"/>
    <path d="M40 48H42V50H40V48Z" fill="#8CAFBF"/>
    <path d="M36 51H38V53H36V51Z" fill="#8CAFBF"/>
</svg>
