<svg width="56" height="43" viewBox="0 0 56 43" fill="none" xmlns="http://www.w3.org/2000/svg">
    <path d="M17.473 19.245L3.23999 5.01098C2.84218 4.6137 2.26264 4.45883 1.71967 4.60471C1.17671 4.75059 0.75282 5.17506 0.607674 5.71821C0.462527 6.26137 0.618178 6.8407 1.01599 7.23798L15.249 21.469L17.473 19.245Z" fill="#9BACB2"/>
    <path d="M24.24 25.139C24.24 19.5502 28.7706 15.0195 34.3595 15.0195C39.9483 15.0195 44.479 19.5502 44.479 25.139H24.24Z" fill="#F781BF"/>
    <path d="M34.36 15.0189C34.0069 15.0189 33.6541 15.0373 33.303 15.0739C38.4551 15.614 42.3675 19.9576 42.368 25.1379H44.481C44.481 19.5494 39.9505 15.0189 34.362 15.0189H34.36Z" fill="#F464B7"/>
    <path d="M27.687 25.1389C27.687 21.4541 30.6742 18.4669 34.359 18.4669C38.0439 18.4669 41.031 21.4541 41.031 25.1389H27.687Z" fill="#FFA4D8"/>
    <path d="M31.024 25.139C31.024 23.2966 32.5176 21.803 34.36 21.803C36.2024 21.803 37.696 23.2966 37.696 25.139H31.024Z" fill="#F781BF"/>
    <path d="M34.36 21.802C34.0208 21.8017 33.6836 21.8533 33.36 21.955C34.7495 22.3928 35.6947 23.6811 35.695 25.138H37.695C37.695 23.296 36.202 21.8026 34.36 21.802Z" fill="#F464B7"/>
    <path d="M27.008 13.11C27.1397 12.9771 27.3212 12.9059 27.5081 12.9137C27.6949 12.9215 27.8699 13.0076 27.99 13.151C30.4655 16.1774 30.1341 20.6131 27.2363 23.2381C24.3386 25.8631 19.8917 25.7557 17.124 22.994L27.008 13.11Z" fill="#FB4239"/>
    <path d="M29.53 16.486C29.2539 19.0149 27.6875 21.2204 25.3907 22.3141C23.0938 23.4079 20.3943 23.2337 18.257 21.854L17.121 22.99C19.3904 25.2598 22.8718 25.7912 25.7151 24.3019C28.5584 22.8125 30.1037 19.648 29.53 16.49V16.486Z" fill="#E31F1D"/>
    <path d="M24.947 15.1649C26.4017 16.6196 26.4017 18.9782 24.947 20.4329C23.4923 21.8876 21.1337 21.8876 19.679 20.4329L24.947 15.1649Z" fill="#FF7373"/>
    <path d="M15.426 14.162C15.4375 13.9718 15.3669 13.7857 15.2321 13.6509C15.0973 13.5161 14.9113 13.4455 14.721 13.457C12.906 13.569 8.18198 14.097 5.70598 16.572C3.51617 18.4816 3.11021 21.7314 4.76298 24.121C7.15257 25.7738 10.4024 25.3678 12.312 23.178C14.788 20.702 15.312 15.978 15.427 14.163L15.426 14.162Z" fill="#8BCC3F"/>
    <path d="M13.771 13.535C13.546 15.714 12.855 19.481 10.735 21.601C9.11961 23.4714 6.47792 24.0785 4.20801 23.101C4.35423 23.4611 4.54004 23.8039 4.76201 24.123C7.1516 25.7757 10.4014 25.3698 12.311 23.18C14.786 20.704 15.311 15.98 15.426 14.165C15.4375 13.9747 15.3669 13.7886 15.2322 13.6538C15.0974 13.519 14.9113 13.4484 14.721 13.46C14.46 13.476 14.139 13.501 13.772 13.539L13.771 13.535Z" fill="#659922"/>
    <path d="M14.896 2.15398C14.7038 2.14078 14.5153 2.21147 14.3791 2.34781C14.243 2.48415 14.1725 2.67277 14.186 2.86498C14.296 4.44598 14.763 8.15398 16.734 10.126C18.302 11.9251 20.9714 12.2587 22.934 10.901C24.2918 8.93839 23.9581 6.26896 22.159 4.70098C20.188 2.72898 16.479 2.26298 14.898 2.15198L14.896 2.15398Z" fill="#8BCC3F"/>
    <path d="M22.157 4.70192C21.9014 4.44893 21.6229 4.22027 21.325 4.01892C22.4304 5.60542 22.4339 7.71166 21.334 9.30192C19.7437 10.4019 17.6375 10.3983 16.051 9.29292C16.2524 9.59112 16.481 9.86998 16.734 10.1259C18.3019 11.925 20.9714 12.2587 22.934 10.9009C24.2917 8.93833 23.9581 6.2689 22.159 4.70092L22.157 4.70192Z" fill="#659922"/>
    <path d="M38.219 8.60393C38.027 8.59076 37.8386 8.66132 37.7025 8.79744C37.5664 8.93355 37.4958 9.12189 37.509 9.31393C37.619 10.8949 38.086 14.6029 40.057 16.5749C41.6248 18.3744 44.2945 18.7082 46.257 17.3499C47.6148 15.3873 47.2811 12.7179 45.482 11.1499C43.51 9.17793 39.802 8.71193 38.221 8.60193L38.219 8.60393Z" fill="#8BCC3F"/>
    <path d="M45.479 11.152C45.2312 10.9059 44.9614 10.6829 44.673 10.486C45.7959 12.0745 45.8063 14.1955 44.699 15.795C43.0993 16.9019 40.9784 16.8911 39.39 15.768C39.5872 16.0565 39.8101 16.3266 40.056 16.575C41.624 18.374 44.2934 18.7077 46.256 17.35C47.6126 15.3874 47.278 12.7189 45.479 11.152Z" fill="#659922"/>
    <path d="M19.57 20.6909C19.57 23.1475 17.5786 25.1389 15.122 25.1389C12.6654 25.1389 10.674 23.1475 10.674 20.6909C10.674 18.2344 12.6654 16.2429 15.122 16.2429C17.5786 16.2429 19.57 18.2344 19.57 20.6909Z" fill="#FE9700"/>
    <path d="M17.694 17.063C18.9485 18.8316 18.7446 21.2471 17.2114 22.7803C15.6781 24.3136 13.2626 24.5175 11.494 23.263C12.5172 24.7055 14.298 25.4046 16.0293 25.0434C17.7606 24.6823 19.1133 23.3296 19.4745 21.5983C19.8356 19.867 19.1365 18.0862 17.694 17.063V17.063Z" fill="#FC7800"/>
    <path d="M16.79 20.6909C16.79 21.6122 16.0432 22.3589 15.122 22.3589C14.2008 22.3589 13.454 21.6122 13.454 20.6909C13.454 19.7697 14.2008 19.0229 15.122 19.0229C16.0432 19.0229 16.79 19.7697 16.79 20.6909Z" fill="#FFD15F"/>
    <path d="M39.475 25.138C39.475 21.0845 42.761 17.7985 46.8145 17.7985C50.868 17.7985 54.154 21.0845 54.154 25.138H39.475Z" fill="#FB4239"/>
    <path d="M46.814 17.799C46.5165 17.7997 46.2193 17.8184 45.924 17.855C49.6057 18.3042 52.3735 21.4299 52.374 25.139H54.154C54.154 21.0852 50.8678 17.799 46.814 17.799Z" fill="#E31F1D"/>
    <path d="M43.089 25.1389C43.089 23.0817 44.7567 21.4139 46.814 21.4139C48.8713 21.4139 50.539 23.0817 50.539 25.1389H43.089Z" fill="#FF7373"/>
    <path d="M35.36 5.34497C35.36 7.80154 33.3686 9.79297 30.912 9.79297C28.4554 9.79297 26.464 7.80154 26.464 5.34497C26.464 2.88841 28.4554 0.896973 30.912 0.896973C33.3686 0.896973 35.36 2.88841 35.36 5.34497Z" fill="#FE9700"/>
    <path d="M33.453 1.69299C34.6836 3.46032 34.471 5.85548 32.9483 7.37841C31.4256 8.90135 29.0305 9.11434 27.263 7.88399C28.2782 9.34583 30.0671 10.0618 31.8105 9.70403C33.554 9.34628 34.9163 7.98371 35.2738 6.2402C35.6312 4.4967 34.915 2.70795 33.453 1.69299V1.69299Z" fill="#FC7800"/>
    <path d="M32.581 5.34403C32.581 6.26524 31.8342 7.01203 30.913 7.01203C29.9918 7.01203 29.245 6.26524 29.245 5.34403C29.245 4.42281 29.9918 3.67603 30.913 3.67603C31.8342 3.67603 32.581 4.42281 32.581 5.34403Z" fill="#FFD15F"/>
    <path d="M4.76201 24.953C4.42496 24.9528 4.12115 24.7497 3.99205 24.4384C3.86296 24.127 3.93397 23.7686 4.17201 23.53L7.56401 20.138C7.77479 19.9274 8.08193 19.8452 8.36971 19.9225C8.6575 19.9997 8.88221 20.2246 8.95921 20.5125C9.03621 20.8003 8.95379 21.1074 8.74301 21.318L5.35301 24.709C5.19631 24.8657 4.98362 24.9535 4.76201 24.953Z" fill="#659922"/>
    <path d="M23.795 13.6289H23.778C23.3177 13.6202 22.9516 13.2402 22.96 12.7799C22.909 12.2956 22.6933 11.8434 22.349 11.4989L22.34 11.4899L19.423 8.57294C19.2025 8.36439 19.1128 8.05254 19.1886 7.75868C19.2644 7.46483 19.4939 7.23537 19.7877 7.15953C20.0816 7.0837 20.3934 7.17348 20.602 7.39394L23.515 10.3069C24.1887 10.9696 24.5864 11.8629 24.628 12.8069C24.6193 13.2613 24.2484 13.625 23.794 13.6249L23.795 13.6289Z" fill="#659922"/>
    <path d="M46.253 18.1839C46.032 18.1841 45.8201 18.0963 45.664 17.9399L42.746 15.0219C42.4204 14.6961 42.4206 14.168 42.7465 13.8424C43.0723 13.5168 43.6004 13.5171 43.926 13.8429L46.844 16.7609C47.0827 16.9995 47.1542 17.3584 47.025 17.6702C46.8958 17.9819 46.5915 18.1851 46.254 18.1849L46.253 18.1839Z" fill="#659922"/>
    <path d="M44.813 39.1639L44.597 39.7039C43.9227 41.3943 42.2868 42.5034 40.467 42.5039H15.354C13.5342 42.5034 11.8982 41.3943 11.224 39.7039L11.008 39.1639L44.813 39.1639Z" fill="#B8E9FF"/>
    <path d="M27.91 23.151H1.63398C1.36835 23.1509 1.11658 23.2695 0.94761 23.4745C0.778643 23.6795 0.710185 23.9493 0.760981 24.21L2.26698 31.967C3.08037 36.1469 6.74066 39.165 10.999 39.167H44.819C49.0773 39.165 52.7376 36.1469 53.551 31.967L55.059 24.212C55.1098 23.9513 55.0413 23.6815 54.8724 23.4765C54.7034 23.2715 54.4516 23.1529 54.186 23.153L27.91 23.151Z" fill="#D7F1FF"/>
    <path d="M48.371 23.151L46.657 31.966C45.8436 36.1459 42.1833 39.164 37.925 39.166H44.819C49.0773 39.164 52.7376 36.1459 53.551 31.966L55.059 24.21C55.1094 23.9492 55.0407 23.6794 54.8716 23.4745C54.7025 23.2696 54.4507 23.1509 54.185 23.151H48.371Z" fill="#B8E9FF"/>
</svg>
